<svg xmlns="http://www.w3.org/2000/svg" xmlns:xlink="http://www.w3.org/1999/xlink" width="484" height="272" viewBox="0 0 484 272">
  <defs>
    <clipPath id="clip-path">
      <path id="Path_205855" data-name="Path 205855" d="M0,0H21.9V22.72H0Z" fill="none" stroke="#aeacac" stroke-width="0.2"/>
    </clipPath>
    <clipPath id="clip-path-2">
      <rect id="Rectangle_74090" data-name="Rectangle 74090" width="19.465" height="22.895" fill="none" stroke="#aeacac" stroke-width="0.2"/>
    </clipPath>
    <clipPath id="clip-path-3">
      <rect id="Rectangle_74082" data-name="Rectangle 74082" width="22.088" height="22.053" fill="none"/>
    </clipPath>
    <clipPath id="clip-path-4">
      <rect id="Rectangle_74076" data-name="Rectangle 74076" width="21" height="17" fill="none"/>
    </clipPath>
    <clipPath id="clip-path-5">
      <rect id="Rectangle_74089" data-name="Rectangle 74089" width="26.978" height="26.69" transform="translate(-2 -2)" fill="none" stroke="#aeacac" stroke-width="0.2"/>
    </clipPath>
    <clipPath id="clip-path-6">
      <path id="Path_205855-2" data-name="Path 205855" d="M0,0H21.9V22.72H0Z" fill="none" stroke="#334a5c" stroke-width="0.2"/>
    </clipPath>
    <clipPath id="clip-path-7">
      <rect id="Rectangle_74090-2" data-name="Rectangle 74090" width="19.465" height="22.895" fill="none" stroke="#334a5c" stroke-width="0.2"/>
    </clipPath>
    <clipPath id="clip-Artboard_3">
      <rect width="484" height="272"/>
    </clipPath>
  </defs>
  <g id="Artboard_3" data-name="Artboard – 3" clip-path="url(#clip-Artboard_3)">
    <g id="Group_230972" data-name="Group 230972" transform="translate(12 -588.81)">
      <rect id="Rectangle_74091" data-name="Rectangle 74091" width="30" height="30" transform="translate(12 745)" fill="none"/>
      <g id="Group_230971" data-name="Group 230971" transform="translate(-15509.659 8440.692)">
        <path id="path118" d="M25.276-160.483v-2.809c0-2.9-2.912-6.042-6.638-6.042S12-166.192,12-163.291v1.333" transform="translate(15517.775 -7522.668)" fill="none" stroke="#aeacac" stroke-miterlimit="10" stroke-width="1"/>
        <path id="path120" d="M39.294-144v1a4.587,4.587,0,0,1-1.97,3.882" transform="translate(15501.789 -7538.659)" fill="none" stroke="#aeacac" stroke-miterlimit="10" stroke-width="1"/>
        <path id="path122" d="M22.667-161.333c0,2.758,5.576,6.392,8.359,6.392" transform="translate(15511.041 -7527.717)" fill="none" stroke="#aeacac" stroke-miterlimit="10" stroke-width="1"/>
        <path id="path124" d="M18.458-154.666A3.948,3.948,0,0,0,16-151.224v1.475a5.1,5.1,0,0,0,3.287,4.35" transform="translate(15515.251 -7531.926)" fill="none" stroke="#aeacac" stroke-miterlimit="10" stroke-width="1"/>
        <path id="path126" d="M29.617-127.016a.983.983,0,0,1-.983.983H27.65a.983.983,0,0,1-.983-.983h0A.983.983,0,0,1,27.65-128h.983A.983.983,0,0,1,29.617-127.016Z" transform="translate(15508.518 -7548.759)" fill="none" stroke="#aeacac" stroke-miterlimit="10" stroke-width="1"/>
        <path id="path128" d="M33.333-132.955h.507a4.613,4.613,0,0,0,4.893-4.453" transform="translate(15504.311 -7542.82)" fill="none" stroke="#aeacac" stroke-miterlimit="10" stroke-width="1"/>
        <path id="path130" d="M48.983-149.333H48v4.425h.983a.983.983,0,0,0,.983-.983v-2.458A.983.983,0,0,0,48.983-149.333Z" transform="translate(15495.052 -7535.292)" fill="none" stroke="#aeacac" stroke-miterlimit="10" stroke-width="1"/>
        <path id="path132" d="M7.65-149.333h.983v4.425H7.65a.983.983,0,0,1-.983-.983v-2.458A.983.983,0,0,1,7.65-149.333Z" transform="translate(15521.143 -7535.292)" fill="none" stroke="#aeacac" stroke-miterlimit="10" stroke-width="1"/>
        <path id="path134" d="M2.667-123.149l.455-1.365a2.95,2.95,0,0,1,2.159-1.947s2.263-.5,2.795-.621A1.885,1.885,0,0,0,9.55-129.05V-132" transform="translate(15523.667 -7546.234)" fill="none" stroke="#aeacac" stroke-miterlimit="10" stroke-width="1"/>
        <path id="path136" d="M46.962-117.256l-.455-1.365a2.95,2.95,0,0,0-2.159-1.947s-2.263-.5-2.795-.621a1.846,1.846,0,0,1-1.429-1.474" transform="translate(15500.022 -7552.127)" fill="none" stroke="#aeacac" stroke-miterlimit="10" stroke-width="1"/>
      </g>
    </g>
    <g id="Group_230984" data-name="Group 230984" transform="translate(4 -596.81)">
      <rect id="Rectangle_74092" data-name="Rectangle 74092" width="30" height="30" transform="translate(20 618)" fill="none"/>
      <g id="Group_230974" data-name="Group 230974" transform="translate(4877.803 1766.053)">
        <path id="path44" d="M332-368.978v-5.516a1.5,1.5,0,0,1,1.5-1.5h15.045a1.5,1.5,0,0,1,1.5,1.5v12.537a1.5,1.5,0,0,1-1.5,1.5h-7.522" transform="translate(-5182.324 -765.83)" fill="none" stroke="#aeacac" stroke-miterlimit="10" stroke-width="1"/>
        <path id="path46" d="M350.053-372.489H332V-375a1,1,0,0,1,1-1H349.05a1,1,0,0,1,1,1Z" transform="translate(-5182.324 -765.83)" fill="none" stroke="#aeacac" stroke-miterlimit="10" stroke-width="1"/>
        <path id="path48" d="M340-380v3.009" transform="translate(-5187.316 -763.334)" fill="none" stroke="#aeacac" stroke-miterlimit="10" stroke-width="1"/>
        <path id="path50" d="M348-380v3.009" transform="translate(-5192.307 -763.334)" fill="none" stroke="#aeacac" stroke-miterlimit="10" stroke-width="1"/>
        <path id="path52" d="M356-380v3.009" transform="translate(-5197.298 -763.334)" fill="none" stroke="#aeacac" stroke-miterlimit="10" stroke-width="1"/>
        <path id="path54" d="M364-380v3.009" transform="translate(-5202.289 -763.334)" fill="none" stroke="#aeacac" stroke-miterlimit="10" stroke-width="1"/>
        <path id="path56" d="M372-380v3.009" transform="translate(-5207.28 -763.334)" fill="none" stroke="#aeacac" stroke-miterlimit="10" stroke-width="1"/>
        <path id="path58" d="M335.032-349.149a5.516,5.516,0,0,1-5.516,5.516A5.516,5.516,0,0,1,324-349.149a5.516,5.516,0,0,1,5.516-5.516A5.516,5.516,0,0,1,335.032-349.149Z" transform="translate(-5177.333 -779.139)" fill="none" stroke="#aeacac" stroke-miterlimit="10" stroke-width="1"/>
        <path id="path60" d="M338.666-349.332v3.51h3.009" transform="translate(-5186.484 -782.467)" fill="none" stroke="#aeacac" stroke-miterlimit="10" stroke-width="1"/>
      </g>
    </g>
    <g id="Group_230985" data-name="Group 230985" transform="translate(7 -593.81)">
      <rect id="Rectangle_74093" data-name="Rectangle 74093" width="30" height="30" transform="translate(17 661)" fill="none"/>
      <g id="Group_230976" data-name="Group 230976" transform="translate(-35.465 -1.697)">
        <g id="Group_177873" data-name="Group 177873" transform="translate(4205.465 10738.697)">
          <g id="Rectangle_51331" data-name="Rectangle 51331" transform="translate(-4150 -10073)" fill="#fff" stroke="#707070" stroke-width="1" opacity="0">
            <rect width="24" height="24" stroke="none"/>
            <rect x="0.5" y="0.5" width="23" height="23" fill="none"/>
          </g>
          <path id="Path_143522" data-name="Path 143522" d="M15.773,7.822H10.036V6.028L7,8.492l3.036,2.52V9.162h5.737Z" transform="translate(-4122 -10067) rotate(90)" fill="#aeacac"/>
          <g id="Rectangle_51336" data-name="Rectangle 51336" transform="translate(-4148 -10068)" fill="none" stroke="#aeacac" stroke-width="1">
            <rect width="4" height="1" rx="0.5" stroke="none"/>
            <rect x="0.5" y="0.5" width="3" fill="none"/>
          </g>
          <g id="Rectangle_51337" data-name="Rectangle 51337" transform="translate(-4148 -10066)" fill="none" stroke="#aeacac" stroke-width="1">
            <rect width="4" height="1" rx="0.5" stroke="none"/>
            <rect x="0.5" y="0.5" width="3" fill="none"/>
          </g>
        </g>
        <g id="Rectangle_74085" data-name="Rectangle 74085" transform="translate(63.465 667.521)" fill="none" stroke="#aeacac" stroke-width="1">
          <rect width="14" height="9" rx="1" stroke="none"/>
          <rect x="0.5" y="0.5" width="13" height="8" rx="0.5" fill="none"/>
        </g>
        <g id="Rectangle_74086" data-name="Rectangle 74086" transform="translate(56.465 678.521)" fill="none" stroke="#aeacac" stroke-width="1">
          <rect width="14" height="9" rx="1" stroke="none"/>
          <rect x="0.5" y="0.5" width="13" height="8" rx="0.5" fill="none"/>
        </g>
      </g>
    </g>
    <g id="Group_230986" data-name="Group 230986" transform="translate(4 -599)">
      <rect id="Rectangle_74094" data-name="Rectangle 74094" width="30" height="30" transform="translate(20 711)" fill="none"/>
      <g id="Group_230973" data-name="Group 230973" transform="translate(27.449 718.037)">
        <g id="Mask_Group_30485" data-name="Mask Group 30485" transform="translate(-3.401 -3.397)" clip-path="url(#clip-path)">
          <path id="Path_205840" data-name="Path 205840" d="M.907,13.121v5.431a1.516,1.516,0,1,0,3.03.1l.36-5.4a16.194,16.194,0,0,1,10.188,4.855v.2a1.238,1.238,0,0,0,1.224,1.231h.583a1.238,1.238,0,0,0,1.245-1.231v-5.5a2.008,2.008,0,0,0,1.645-1.972V8.918a2,2,0,0,0-1.645-1.969V1.238A1.238,1.238,0,0,0,16.3,0h-.594a1.238,1.238,0,0,0-1.224,1.238V1.49a17.379,17.379,0,0,1-4.83,3.332A17.483,17.483,0,0,1,3.948,6.366l-.054.018H1.483A1.483,1.483,0,0,0,0,7.867v3.9a1.475,1.475,0,0,0,.907,1.357M3.217,18.6a.8.8,0,1,1-1.591-.05V13.243H3.592ZM18.462,8.918v1.918a1.285,1.285,0,0,1-.925,1.234V7.687a1.282,1.282,0,0,1,.925,1.231M15.709.72h.583a.518.518,0,0,1,.515.518V18.31a.515.515,0,0,1-.515.515h-.583a.515.515,0,0,1-.5-.515V1.238a.518.518,0,0,1,.5-.518M9.951,5.474a18.119,18.119,0,0,0,4.534-3V17.1A17,17,0,0,0,4.344,12.552V7.05A18.1,18.1,0,0,0,9.951,5.474M.72,7.874a.759.759,0,0,1,.759-.759H3.624v5.409H1.483a.7.7,0,0,1-.148-.018.76.76,0,0,1-.615-.741Z" transform="translate(1.224 1.223)" fill="#aeacac" stroke="#aeacac" stroke-width="0.2"/>
        </g>
      </g>
    </g>
    <g id="Group_230987" data-name="Group 230987" transform="translate(10 -610.81)">
      <rect id="Rectangle_74095" data-name="Rectangle 74095" width="30" height="30" transform="translate(14 818)" fill="none"/>
      <g id="Group_230975" data-name="Group 230975" transform="translate(20.113 821.553)">
        <g id="Group_230969" data-name="Group 230969" transform="translate(-0.846 0)" clip-path="url(#clip-path-2)">
          <path id="Path_205892" data-name="Path 205892" d="M19.316,3.506,15.254.124a.49.49,0,0,0-.077-.053L15.159.063a.541.541,0,0,0-.069-.03L15.061.026A.593.593,0,0,0,15,.008a.6.6,0,0,0-.1-.008H2.539A2.358,2.358,0,0,0,0,2.114V20.781a2.358,2.358,0,0,0,2.539,2.114H16.926a2.358,2.358,0,0,0,2.539-2.114V3.805a.391.391,0,0,0-.149-.3m-.867.506H15.4V1.444L18.449,3.98ZM16.926,22.05H2.539a1.415,1.415,0,0,1-1.523-1.268V2.114A1.415,1.415,0,0,1,2.539.846H14.387V4.435a.471.471,0,0,0,.508.423h3.554V20.781a1.415,1.415,0,0,1-1.523,1.268" transform="translate(0 0)" fill="#aeacac" stroke="#aeacac" stroke-width="0.2"/>
          <path id="Path_205893" data-name="Path 205893" d="M23.013,15.613a.525.525,0,0,0-.638,0l-2.592,2.006a.477.477,0,0,0-.189.378v3.98a.5.5,0,0,0,.508.486h5.183a.5.5,0,0,0,.508-.486V18a.477.477,0,0,0-.189-.378Zm1.765,5.877h-1.6V19.553a.508.508,0,0,0-1.016,0V21.49H20.61V18.228l2.084-1.613,2.084,1.613Z" transform="translate(-12.961 -10.484)" fill="#aeacac" stroke="#aeacac" stroke-width="0.2"/>
          <path id="Path_205894" data-name="Path 205894" d="M22.348,46.9H11.008a.486.486,0,1,0,0,.971h11.34a.486.486,0,1,0,0-.971" transform="translate(-6.946 -31.716)" fill="#aeacac" stroke="#aeacac" stroke-width="0.2"/>
          <path id="Path_205895" data-name="Path 205895" d="M22.348,54.9H11.008a.486.486,0,1,0,0,.971h11.34a.486.486,0,1,0,0-.971" transform="translate(-6.946 -37.125)" fill="#aeacac" stroke="#aeacac" stroke-width="0.2"/>
        </g>
      </g>
    </g>
    <g id="Group_230988" data-name="Group 230988" transform="translate(72 -839.81)">
      <rect id="Rectangle_74096" data-name="Rectangle 74096" width="30" height="30" transform="translate(16 862)" fill="none"/>
      <g id="Group_230977" data-name="Group 230977" transform="translate(20.957 873.974)">
        <g id="Group_230959" data-name="Group 230959" transform="translate(-1 -8)" clip-path="url(#clip-path-3)">
          <path id="Path_205871" data-name="Path 205871" d="M11.044,0a11.037,11.037,0,0,0-1.65,21.952l.576.087v-8.7H7.361V11.57H9.97V9.223a4.158,4.158,0,0,1,.921-2.993,3.426,3.426,0,0,1,2.6-.9,10.957,10.957,0,0,1,1.66.1V6.878H13.924a1.8,1.8,0,0,0-1.566.907,3.533,3.533,0,0,0-.389,1.767v2.017h3.074l-.274,1.767h-2.8v8.718l.57-.078A11.038,11.038,0,0,0,11.044,0m0,1a10.014,10.014,0,0,1,1.93,19.845v-6.51h2.657l.583-3.775h-3.24V9.552a2.72,2.72,0,0,1,.256-1.268.675.675,0,0,1,.695-.4h2.233V4.523l-.436-.059a15.221,15.221,0,0,0-2.228-.137,4.453,4.453,0,0,0-3.326,1.206,5.149,5.149,0,0,0-1.2,3.69v1.342H6.357V14.34H8.966v6.478A10.013,10.013,0,0,1,11.044,1" transform="translate(0 0)" fill="#aeacac"/>
        </g>
      </g>
    </g>
    <g id="Group_230990" data-name="Group 230990" transform="translate(64 -833.81)">
      <rect id="Rectangle_74098" data-name="Rectangle 74098" width="30" height="30" transform="translate(22 958)" fill="none"/>
      <g id="Group_230979" data-name="Group 230979" transform="translate(-15928.333 8653.643)">
        <path id="path184" d="M438.766-134.666v1.933h-.483l-1.45,1.45-2.421,1.14c-1.3.339-2.388,1.289-2.412,2.244v3.383" transform="translate(15523.667 -7544.768)" fill="none" stroke="#aeacac" stroke-miterlimit="10" stroke-width="1"/>
        <path id="path186" d="M453.3-164.983v.967l.967.483v1.9a.967.967,0,0,1-.431.8l-.536.68v.967c0,1.873-2.477,2.689-2.9,2.9a4.513,4.513,0,0,1-1.933.483,4.513,4.513,0,0,1-1.933-.483c-.423-.211-2.9-1.027-2.9-2.9v-.967l-.536-.68a.967.967,0,0,1-.431-.8v-1.9l.967-.483v-.967a4.35,4.35,0,0,1,4.35-4.35h.967a4.35,4.35,0,0,1,4.35,4.35Z" transform="translate(15516.867 -7522.668)" fill="none" stroke="#aeacac" stroke-miterlimit="10" stroke-width="1"/>
        <path id="path188" d="M450.666-129.333l2.9,2.417" transform="translate(15511.768 -7548.167)" fill="none" stroke="#aeacac" stroke-miterlimit="10" stroke-width="1"/>
        <path id="path190" d="M450.166-124.366l-2.417,1.933-2.417-2.9" transform="translate(15515.167 -7550.717)" fill="none" stroke="#aeacac" stroke-miterlimit="10" stroke-width="1"/>
        <path id="path192" d="M466.666-134.666v1.933h.483l1.45,1.45,2.421,1.14c1.3.339,2.388,1.289,2.412,2.244v3.383" transform="translate(15501.567 -7544.768)" fill="none" stroke="#aeacac" stroke-miterlimit="10" stroke-width="1"/>
        <path id="path194" d="M461.566-129.333l-2.9,2.417" transform="translate(15506.668 -7548.167)" fill="none" stroke="#aeacac" stroke-miterlimit="10" stroke-width="1"/>
        <path id="path196" d="M458.666-124.366l2.417,1.933,2.417-2.9" transform="translate(15506.668 -7550.717)" fill="none" stroke="#aeacac" stroke-miterlimit="10" stroke-width="1"/>
        <path id="path198" d="M457.566-120l-.483,2.417h-1.933L454.666-120" transform="translate(15509.218 -7554.117)" fill="none" stroke="#aeacac" stroke-miterlimit="10" stroke-width="1"/>
        <path id="path200" d="M457.566-111.4l-.483-1.933h-1.933l-.483,1.933" transform="translate(15509.218 -7558.367)" fill="none" stroke="#aeacac" stroke-miterlimit="10" stroke-width="1"/>
      </g>
    </g>
    <g id="Group_230991" data-name="Group 230991" transform="translate(70 -836.81)">
      <rect id="Rectangle_74099" data-name="Rectangle 74099" width="30" height="30" transform="translate(15 1014)" fill="none"/>
      <g id="Group_230980" data-name="Group 230980" transform="translate(19.5 1020.5)">
        <g id="Group_230941" data-name="Group 230941" clip-path="url(#clip-path-4)">
          <path id="Path_205837" data-name="Path 205837" d="M20.431,2.608H16.823L16.041.3A.418.418,0,0,0,15.65,0H8.694A.418.418,0,0,0,8.3.3l-.782,2.3h-2.3V1.3A.411.411,0,0,0,4.782.869H2.174a.436.436,0,0,0-.435.435v1.3H.435A.411.411,0,0,0,0,3.043V16.084a.411.411,0,0,0,.435.435h20a.411.411,0,0,0,.435-.435V3.043a.411.411,0,0,0-.435-.435M2.608,1.739H4.347v.869H2.608ZM20,15.65H.869V7.521h5.26a4.962,4.962,0,0,0-.217,1.608,5.651,5.651,0,1,0,11.3,0A6.526,6.526,0,0,0,17,7.521H20.04V15.65ZM6.782,9.129A4.3,4.3,0,0,1,7.173,7.3a.043.043,0,0,1,.043-.043,4.785,4.785,0,1,1,4.391,6.695A4.871,4.871,0,0,1,6.782,9.129M20,6.651H16.606a5.624,5.624,0,0,0-5.043-3.173A5.739,5.739,0,0,0,6.477,6.651H.869V3.478H7.825a.418.418,0,0,0,.391-.3L9,.869h6.347l.782,2.3a.418.418,0,0,0,.391.3H20V6.651" fill="#aeacac"/>
          <path id="Path_205838" data-name="Path 205838" d="M26.035,12.869a3.024,3.024,0,0,1,3.043,3.043.435.435,0,1,0,.869,0A3.9,3.9,0,0,0,26.035,12a.435.435,0,1,0,0,.869" transform="translate(-14.471 -6.783)" fill="#aeacac"/>
          <path id="Path_205839" data-name="Path 205839" d="M6.135,12.269h1.13a.435.435,0,0,0,0-.869H6.135a.411.411,0,0,0-.435.435.436.436,0,0,0,.435.435" transform="translate(-3.222 -6.444)" fill="#aeacac"/>
        </g>
      </g>
    </g>
    <g id="Group_230992" data-name="Group 230992" transform="translate(77 -831.81)">
      <rect id="Rectangle_74100" data-name="Rectangle 74100" width="30" height="30" transform="translate(8 1058)" fill="none"/>
      <g id="Group_230981" data-name="Group 230981" transform="translate(11.51 1061.656)">
        <g id="Group_230967" data-name="Group 230967" transform="translate(0 0)" clip-path="url(#clip-path-5)">
          <path id="Path_205888" data-name="Path 205888" d="M45.971,33.233l-3.812-3.812a.373.373,0,0,0-.524,0l-.855.855a.371.371,0,0,0,.524.524l.593-.593L45.185,33.5l-.642.645a.373.373,0,0,0,0,.524.364.364,0,0,0,.262.109.359.359,0,0,0,.262-.109l.9-.9a.372.372,0,0,0,0-.525.01.01,0,0,1,0-.006" transform="translate(-30.63 -22.071)" fill="#aeacac" stroke="#aeacac" stroke-width="0.2"/>
          <path id="Path_205889" data-name="Path 205889" d="M14.179,64.3l-.59.59L10.3,61.6l.642-.642a.372.372,0,0,0-.529-.524l-.9.9a.368.368,0,0,0,0,.521l0,0,3.817,3.815a.371.371,0,0,0,.524,0l.855-.855a.371.371,0,0,0-.526-.524" transform="translate(-7.078 -45.418)" fill="#aeacac" stroke="#aeacac" stroke-width="0.2"/>
          <path id="Path_205890" data-name="Path 205890" d="M27.863,45.108a2.661,2.661,0,1,0,1.88.778,2.661,2.661,0,0,0-1.88-.778m1.366,4.017a1.91,1.91,0,1,1,.017-.017l-.017.017" transform="translate(-18.975 -33.963)" fill="#aeacac" stroke="#aeacac" stroke-width="0.2"/>
          <path id="Path_205891" data-name="Path 205891" d="M22.939,8.763a9.678,9.678,0,0,0-19.271.03l-.556-.553a.368.368,0,0,0-.521,0l0,0a.373.373,0,0,0,0,.524L3.734,9.909a.357.357,0,0,0,.124.082.38.38,0,0,0,.269,0,.376.376,0,0,0,.121-.082L5.394,8.763a.371.371,0,1,0-.505-.542l-.019.019L4.406,8.7A8.939,8.939,0,0,1,22.2,8.812l.037.835a8.932,8.932,0,0,1-11.185,8.647l6.619-6.612a.376.376,0,0,0,.109-.262.37.37,0,0,0-.109-.262L11.534,5.025a.373.373,0,0,0-.524,0L.11,15.925a.368.368,0,0,0,0,.521l0,0,6.132,6.132a.371.371,0,0,0,.524,0L10.449,18.9A9.682,9.682,0,0,0,22.978,9.632ZM6.5,21.8.9,16.187,11.272,5.81l5.608,5.608Z" transform="translate(0 0)" fill="#aeacac" stroke="#aeacac" stroke-width="0.2"/>
        </g>
      </g>
    </g>
    <g id="Group_230993" data-name="Group 230993" transform="translate(145 -1071.81)">
      <rect id="Rectangle_74101" data-name="Rectangle 74101" width="30" height="30" transform="translate(12 1095)" fill="none"/>
      <g id="Group_230982" data-name="Group 230982" transform="translate(9428.178 -2536.063)">
        <path id="Path_20220" data-name="Path 20220" d="M2312.024,1410.495v2.8h-7.968v-6.077h-3.781v6.077H2297V1403" transform="translate(-11707.089 2242.135)" fill="none" stroke="#aeacac" stroke-linejoin="round" stroke-width="1"/>
        <path id="Path_20221" data-name="Path 20221" d="M2242,1163.3l10.3-10.3,4.693,4.693" transform="translate(-11653.945 2483.694)" fill="none" stroke="#aeacac" stroke-linejoin="round" stroke-width="1"/>
        <path id="Path_20222" data-name="Path 20222" d="M2355.33,1170.747V1167H2353v6.077" transform="translate(-11761.197 2470.167)" fill="none" stroke="#aeacac" stroke-linejoin="round" stroke-width="1"/>
        <path id="Path_20223" data-name="Path 20223" d="M2569.913,1337.457a4.457,4.457,0,1,1-4.457-4.457A4.452,4.452,0,0,1,2569.913,1337.457Z" transform="translate(-11962.175 2309.771)" fill="none" stroke="#aeacac" stroke-linejoin="round" stroke-width="1"/>
        <line id="Line_489" data-name="Line 489" x2="3.712" y2="3.712" transform="translate(-9394.123 3650.814)" fill="none" stroke="#aeacac" stroke-linejoin="round" stroke-width="1"/>
      </g>
    </g>
    <g id="Group_230994" data-name="Group 230994" transform="translate(201 -582.82)">
      <rect id="Rectangle_74091-2" data-name="Rectangle 74091" width="30" height="30" transform="translate(12 745)" fill="none"/>
      <g id="Group_230971-2" data-name="Group 230971" transform="translate(-15509.659 8440.692)">
        <path id="path118-2" data-name="path118" d="M25.276-160.483v-2.809c0-2.9-2.912-6.042-6.638-6.042S12-166.192,12-163.291v1.333" transform="translate(15517.775 -7522.668)" fill="none" stroke="#334a5c" stroke-miterlimit="10" stroke-width="1"/>
        <path id="path120-2" data-name="path120" d="M39.294-144v1a4.587,4.587,0,0,1-1.97,3.882" transform="translate(15501.789 -7538.659)" fill="none" stroke="#334a5c" stroke-miterlimit="10" stroke-width="1"/>
        <path id="path122-2" data-name="path122" d="M22.667-161.333c0,2.758,5.576,6.392,8.359,6.392" transform="translate(15511.041 -7527.717)" fill="none" stroke="#334a5c" stroke-miterlimit="10" stroke-width="1"/>
        <path id="path124-2" data-name="path124" d="M18.458-154.666A3.948,3.948,0,0,0,16-151.224v1.475a5.1,5.1,0,0,0,3.287,4.35" transform="translate(15515.251 -7531.926)" fill="none" stroke="#334a5c" stroke-miterlimit="10" stroke-width="1"/>
        <path id="path126-2" data-name="path126" d="M29.617-127.016a.983.983,0,0,1-.983.983H27.65a.983.983,0,0,1-.983-.983h0A.983.983,0,0,1,27.65-128h.983A.983.983,0,0,1,29.617-127.016Z" transform="translate(15508.518 -7548.759)" fill="none" stroke="#334a5c" stroke-miterlimit="10" stroke-width="1"/>
        <path id="path128-2" data-name="path128" d="M33.333-132.955h.507a4.613,4.613,0,0,0,4.893-4.453" transform="translate(15504.311 -7542.82)" fill="none" stroke="#334a5c" stroke-miterlimit="10" stroke-width="1"/>
        <path id="path130-2" data-name="path130" d="M48.983-149.333H48v4.425h.983a.983.983,0,0,0,.983-.983v-2.458A.983.983,0,0,0,48.983-149.333Z" transform="translate(15495.052 -7535.292)" fill="none" stroke="#334a5c" stroke-miterlimit="10" stroke-width="1"/>
        <path id="path132-2" data-name="path132" d="M7.65-149.333h.983v4.425H7.65a.983.983,0,0,1-.983-.983v-2.458A.983.983,0,0,1,7.65-149.333Z" transform="translate(15521.143 -7535.292)" fill="none" stroke="#334a5c" stroke-miterlimit="10" stroke-width="1"/>
        <path id="path134-2" data-name="path134" d="M2.667-123.149l.455-1.365a2.95,2.95,0,0,1,2.159-1.947s2.263-.5,2.795-.621A1.885,1.885,0,0,0,9.55-129.05V-132" transform="translate(15523.667 -7546.234)" fill="none" stroke="#334a5c" stroke-miterlimit="10" stroke-width="1"/>
        <path id="path136-2" data-name="path136" d="M46.962-117.256l-.455-1.365a2.95,2.95,0,0,0-2.159-1.947s-2.263-.5-2.795-.621a1.846,1.846,0,0,1-1.429-1.474" transform="translate(15500.022 -7552.127)" fill="none" stroke="#334a5c" stroke-miterlimit="10" stroke-width="1"/>
      </g>
    </g>
    <g id="Group_230995" data-name="Group 230995" transform="translate(194 -596.82)">
      <rect id="Rectangle_74092-2" data-name="Rectangle 74092" width="30" height="30" transform="translate(20 618)" fill="none"/>
      <g id="Group_230974-2" data-name="Group 230974" transform="translate(4877.803 1766.053)">
        <path id="path44-2" data-name="path44" d="M332-368.978v-5.516a1.5,1.5,0,0,1,1.5-1.5h15.045a1.5,1.5,0,0,1,1.5,1.5v12.537a1.5,1.5,0,0,1-1.5,1.5h-7.522" transform="translate(-5182.324 -765.83)" fill="none" stroke="#334a5c" stroke-miterlimit="10" stroke-width="1"/>
        <path id="path46-2" data-name="path46" d="M350.053-372.489H332V-375a1,1,0,0,1,1-1H349.05a1,1,0,0,1,1,1Z" transform="translate(-5182.324 -765.83)" fill="none" stroke="#334a5c" stroke-miterlimit="10" stroke-width="1"/>
        <path id="path48-2" data-name="path48" d="M340-380v3.009" transform="translate(-5187.316 -763.334)" fill="none" stroke="#334a5c" stroke-miterlimit="10" stroke-width="1"/>
        <path id="path50-2" data-name="path50" d="M348-380v3.009" transform="translate(-5192.307 -763.334)" fill="none" stroke="#334a5c" stroke-miterlimit="10" stroke-width="1"/>
        <path id="path52-2" data-name="path52" d="M356-380v3.009" transform="translate(-5197.298 -763.334)" fill="none" stroke="#334a5c" stroke-miterlimit="10" stroke-width="1"/>
        <path id="path54-2" data-name="path54" d="M364-380v3.009" transform="translate(-5202.289 -763.334)" fill="none" stroke="#334a5c" stroke-miterlimit="10" stroke-width="1"/>
        <path id="path56-2" data-name="path56" d="M372-380v3.009" transform="translate(-5207.28 -763.334)" fill="none" stroke="#334a5c" stroke-miterlimit="10" stroke-width="1"/>
        <path id="path58-2" data-name="path58" d="M335.032-349.149a5.516,5.516,0,0,1-5.516,5.516A5.516,5.516,0,0,1,324-349.149a5.516,5.516,0,0,1,5.516-5.516A5.516,5.516,0,0,1,335.032-349.149Z" transform="translate(-5177.333 -779.139)" fill="none" stroke="#334a5c" stroke-miterlimit="10" stroke-width="1"/>
        <path id="path60-2" data-name="path60" d="M338.666-349.332v3.51h3.009" transform="translate(-5186.484 -782.467)" fill="none" stroke="#334a5c" stroke-miterlimit="10" stroke-width="1"/>
      </g>
    </g>
    <g id="Group_230996" data-name="Group 230996" transform="translate(196 -591.82)">
      <rect id="Rectangle_74093-2" data-name="Rectangle 74093" width="30" height="30" transform="translate(17 661)" fill="none"/>
      <g id="Group_230976-2" data-name="Group 230976" transform="translate(-35.465 -1.697)">
        <g id="Group_177873-2" data-name="Group 177873" transform="translate(4205.465 10738.697)">
          <g id="Rectangle_51331-2" data-name="Rectangle 51331" transform="translate(-4150 -10073)" fill="#fff" stroke="#707070" stroke-width="1" opacity="0">
            <rect width="24" height="24" stroke="none"/>
            <rect x="0.5" y="0.5" width="23" height="23" fill="none"/>
          </g>
          <path id="Path_143522-2" data-name="Path 143522" d="M15.773,7.822H10.036V6.028L7,8.492l3.036,2.52V9.162h5.737Z" transform="translate(-4122 -10067) rotate(90)" fill="#334a5c"/>
          <g id="Rectangle_51336-2" data-name="Rectangle 51336" transform="translate(-4148 -10068)" fill="none" stroke="#334a5c" stroke-width="1">
            <rect width="4" height="1" rx="0.5" stroke="none"/>
            <rect x="0.5" y="0.5" width="3" fill="none"/>
          </g>
          <g id="Rectangle_51337-2" data-name="Rectangle 51337" transform="translate(-4148 -10066)" fill="none" stroke="#334a5c" stroke-width="1">
            <rect width="4" height="1" rx="0.5" stroke="none"/>
            <rect x="0.5" y="0.5" width="3" fill="none"/>
          </g>
        </g>
        <g id="Rectangle_74085-2" data-name="Rectangle 74085" transform="translate(63.465 667.521)" fill="none" stroke="#334a5c" stroke-width="1">
          <rect width="14" height="9" rx="1" stroke="none"/>
          <rect x="0.5" y="0.5" width="13" height="8" rx="0.5" fill="none"/>
        </g>
        <g id="Rectangle_74086-2" data-name="Rectangle 74086" transform="translate(56.465 678.521)" fill="none" stroke="#334a5c" stroke-width="1">
          <rect width="14" height="9" rx="1" stroke="none"/>
          <rect x="0.5" y="0.5" width="13" height="8" rx="0.5" fill="none"/>
        </g>
      </g>
    </g>
    <g id="Group_230997" data-name="Group 230997" transform="translate(195 -593.82)">
      <rect id="Rectangle_74094-2" data-name="Rectangle 74094" width="30" height="30" transform="translate(20 711)" fill="none"/>
      <g id="Group_230973-2" data-name="Group 230973" transform="translate(27.449 718.037)">
        <g id="Mask_Group_30485-2" data-name="Mask Group 30485" transform="translate(-3.401 -3.397)" clip-path="url(#clip-path-6)">
          <path id="Path_205840-2" data-name="Path 205840" d="M.907,13.121v5.431a1.516,1.516,0,1,0,3.03.1l.36-5.4a16.194,16.194,0,0,1,10.188,4.855v.2a1.238,1.238,0,0,0,1.224,1.231h.583a1.238,1.238,0,0,0,1.245-1.231v-5.5a2.008,2.008,0,0,0,1.645-1.972V8.918a2,2,0,0,0-1.645-1.969V1.238A1.238,1.238,0,0,0,16.3,0h-.594a1.238,1.238,0,0,0-1.224,1.238V1.49a17.379,17.379,0,0,1-4.83,3.332A17.483,17.483,0,0,1,3.948,6.366l-.054.018H1.483A1.483,1.483,0,0,0,0,7.867v3.9a1.475,1.475,0,0,0,.907,1.357M3.217,18.6a.8.8,0,1,1-1.591-.05V13.243H3.592ZM18.462,8.918v1.918a1.285,1.285,0,0,1-.925,1.234V7.687a1.282,1.282,0,0,1,.925,1.231M15.709.72h.583a.518.518,0,0,1,.515.518V18.31a.515.515,0,0,1-.515.515h-.583a.515.515,0,0,1-.5-.515V1.238a.518.518,0,0,1,.5-.518M9.951,5.474a18.119,18.119,0,0,0,4.534-3V17.1A17,17,0,0,0,4.344,12.552V7.05A18.1,18.1,0,0,0,9.951,5.474M.72,7.874a.759.759,0,0,1,.759-.759H3.624v5.409H1.483a.7.7,0,0,1-.148-.018.76.76,0,0,1-.615-.741Z" transform="translate(1.224 1.223)" fill="#334a5c" stroke="#334a5c" stroke-width="0.2"/>
        </g>
      </g>
    </g>
    <g id="Group_230998" data-name="Group 230998" transform="translate(200 -611.82)">
      <rect id="Rectangle_74095-2" data-name="Rectangle 74095" width="30" height="30" transform="translate(14 818)" fill="none"/>
      <g id="Group_230975-2" data-name="Group 230975" transform="translate(20.113 821.553)">
        <g id="Group_230969-2" data-name="Group 230969" transform="translate(-0.846 0)" clip-path="url(#clip-path-7)">
          <path id="Path_205892-2" data-name="Path 205892" d="M19.316,3.506,15.254.124a.49.49,0,0,0-.077-.053L15.159.063a.541.541,0,0,0-.069-.03L15.061.026A.593.593,0,0,0,15,.008a.6.6,0,0,0-.1-.008H2.539A2.358,2.358,0,0,0,0,2.114V20.781a2.358,2.358,0,0,0,2.539,2.114H16.926a2.358,2.358,0,0,0,2.539-2.114V3.805a.391.391,0,0,0-.149-.3m-.867.506H15.4V1.444L18.449,3.98ZM16.926,22.05H2.539a1.415,1.415,0,0,1-1.523-1.268V2.114A1.415,1.415,0,0,1,2.539.846H14.387V4.435a.471.471,0,0,0,.508.423h3.554V20.781a1.415,1.415,0,0,1-1.523,1.268" transform="translate(0 0)" fill="#334a5c" stroke="#334a5c" stroke-width="0.2"/>
          <path id="Path_205893-2" data-name="Path 205893" d="M23.013,15.613a.525.525,0,0,0-.638,0l-2.592,2.006a.477.477,0,0,0-.189.378v3.98a.5.5,0,0,0,.508.486h5.183a.5.5,0,0,0,.508-.486V18a.477.477,0,0,0-.189-.378Zm1.765,5.877h-1.6V19.553a.508.508,0,0,0-1.016,0V21.49H20.61V18.228l2.084-1.613,2.084,1.613Z" transform="translate(-12.961 -10.484)" fill="#334a5c" stroke="#334a5c" stroke-width="0.2"/>
          <path id="Path_205894-2" data-name="Path 205894" d="M22.348,46.9H11.008a.486.486,0,1,0,0,.971h11.34a.486.486,0,1,0,0-.971" transform="translate(-6.946 -31.716)" fill="#334a5c" stroke="#334a5c" stroke-width="0.2"/>
          <path id="Path_205895-2" data-name="Path 205895" d="M22.348,54.9H11.008a.486.486,0,1,0,0,.971h11.34a.486.486,0,1,0,0-.971" transform="translate(-6.946 -37.125)" fill="#334a5c" stroke="#334a5c" stroke-width="0.2"/>
        </g>
      </g>
    </g>
    <g id="Group_230999" data-name="Group 230999" transform="translate(257 -839.82)">
      <rect id="Rectangle_74096-2" data-name="Rectangle 74096" width="30" height="30" transform="translate(16 862)" fill="none"/>
      <g id="Group_230977-2" data-name="Group 230977" transform="translate(20.957 873.974)">
        <g id="Group_230959-2" data-name="Group 230959" transform="translate(-1 -8)" clip-path="url(#clip-path-3)">
          <path id="Path_205871-2" data-name="Path 205871" d="M11.044,0a11.037,11.037,0,0,0-1.65,21.952l.576.087v-8.7H7.361V11.57H9.97V9.223a4.158,4.158,0,0,1,.921-2.993,3.426,3.426,0,0,1,2.6-.9,10.957,10.957,0,0,1,1.66.1V6.878H13.924a1.8,1.8,0,0,0-1.566.907,3.533,3.533,0,0,0-.389,1.767v2.017h3.074l-.274,1.767h-2.8v8.718l.57-.078A11.038,11.038,0,0,0,11.044,0m0,1a10.014,10.014,0,0,1,1.93,19.845v-6.51h2.657l.583-3.775h-3.24V9.552a2.72,2.72,0,0,1,.256-1.268.675.675,0,0,1,.695-.4h2.233V4.523l-.436-.059a15.221,15.221,0,0,0-2.228-.137,4.453,4.453,0,0,0-3.326,1.206,5.149,5.149,0,0,0-1.2,3.69v1.342H6.357V14.34H8.966v6.478A10.013,10.013,0,0,1,11.044,1" transform="translate(0 0)" fill="#334a5c"/>
        </g>
      </g>
    </g>
    <g id="Group_231001" data-name="Group 231001" transform="translate(258 -846)">
      <rect id="Rectangle_74098-2" data-name="Rectangle 74098" width="30" height="30" transform="translate(22 958)" fill="none"/>
      <g id="Group_230979-2" data-name="Group 230979" transform="translate(-15928.333 8653.643)">
        <path id="path184-2" data-name="path184" d="M438.766-134.666v1.933h-.483l-1.45,1.45-2.421,1.14c-1.3.339-2.388,1.289-2.412,2.244v3.383" transform="translate(15523.667 -7544.768)" fill="none" stroke="#334a5c" stroke-miterlimit="10" stroke-width="1"/>
        <path id="path186-2" data-name="path186" d="M453.3-164.983v.967l.967.483v1.9a.967.967,0,0,1-.431.8l-.536.68v.967c0,1.873-2.477,2.689-2.9,2.9a4.513,4.513,0,0,1-1.933.483,4.513,4.513,0,0,1-1.933-.483c-.423-.211-2.9-1.027-2.9-2.9v-.967l-.536-.68a.967.967,0,0,1-.431-.8v-1.9l.967-.483v-.967a4.35,4.35,0,0,1,4.35-4.35h.967a4.35,4.35,0,0,1,4.35,4.35Z" transform="translate(15516.867 -7522.668)" fill="none" stroke="#334a5c" stroke-miterlimit="10" stroke-width="1"/>
        <path id="path188-2" data-name="path188" d="M450.666-129.333l2.9,2.417" transform="translate(15511.768 -7548.167)" fill="none" stroke="#334a5c" stroke-miterlimit="10" stroke-width="1"/>
        <path id="path190-2" data-name="path190" d="M450.166-124.366l-2.417,1.933-2.417-2.9" transform="translate(15515.167 -7550.717)" fill="none" stroke="#334a5c" stroke-miterlimit="10" stroke-width="1"/>
        <path id="path192-2" data-name="path192" d="M466.666-134.666v1.933h.483l1.45,1.45,2.421,1.14c1.3.339,2.388,1.289,2.412,2.244v3.383" transform="translate(15501.567 -7544.768)" fill="none" stroke="#334a5c" stroke-miterlimit="10" stroke-width="1"/>
        <path id="path194-2" data-name="path194" d="M461.566-129.333l-2.9,2.417" transform="translate(15506.668 -7548.167)" fill="none" stroke="#334a5c" stroke-miterlimit="10" stroke-width="1"/>
        <path id="path196-2" data-name="path196" d="M458.666-124.366l2.417,1.933,2.417-2.9" transform="translate(15506.668 -7550.717)" fill="none" stroke="#334a5c" stroke-miterlimit="10" stroke-width="1"/>
        <path id="path198-2" data-name="path198" d="M457.566-120l-.483,2.417h-1.933L454.666-120" transform="translate(15509.218 -7554.117)" fill="none" stroke="#334a5c" stroke-miterlimit="10" stroke-width="1"/>
        <path id="path200-2" data-name="path200" d="M457.566-111.4l-.483-1.933h-1.933l-.483,1.933" transform="translate(15509.218 -7558.367)" fill="none" stroke="#334a5c" stroke-miterlimit="10" stroke-width="1"/>
      </g>
    </g>
    <g id="Group_231002" data-name="Group 231002" transform="translate(265 -857)">
      <rect id="Rectangle_74099-2" data-name="Rectangle 74099" width="30" height="30" transform="translate(15 1014)" fill="none"/>
      <g id="Group_230980-2" data-name="Group 230980" transform="translate(19.5 1020.5)">
        <g id="Group_230941-2" data-name="Group 230941" clip-path="url(#clip-path-4)">
          <path id="Path_205837-2" data-name="Path 205837" d="M20.431,2.608H16.823L16.041.3A.418.418,0,0,0,15.65,0H8.694A.418.418,0,0,0,8.3.3l-.782,2.3h-2.3V1.3A.411.411,0,0,0,4.782.869H2.174a.436.436,0,0,0-.435.435v1.3H.435A.411.411,0,0,0,0,3.043V16.084a.411.411,0,0,0,.435.435h20a.411.411,0,0,0,.435-.435V3.043a.411.411,0,0,0-.435-.435M2.608,1.739H4.347v.869H2.608ZM20,15.65H.869V7.521h5.26a4.962,4.962,0,0,0-.217,1.608,5.651,5.651,0,1,0,11.3,0A6.526,6.526,0,0,0,17,7.521H20.04V15.65ZM6.782,9.129A4.3,4.3,0,0,1,7.173,7.3a.043.043,0,0,1,.043-.043,4.785,4.785,0,1,1,4.391,6.695A4.871,4.871,0,0,1,6.782,9.129M20,6.651H16.606a5.624,5.624,0,0,0-5.043-3.173A5.739,5.739,0,0,0,6.477,6.651H.869V3.478H7.825a.418.418,0,0,0,.391-.3L9,.869h6.347l.782,2.3a.418.418,0,0,0,.391.3H20V6.651" fill="#334a5c"/>
          <path id="Path_205838-2" data-name="Path 205838" d="M26.035,12.869a3.024,3.024,0,0,1,3.043,3.043.435.435,0,1,0,.869,0A3.9,3.9,0,0,0,26.035,12a.435.435,0,1,0,0,.869" transform="translate(-14.471 -6.783)" fill="#334a5c"/>
          <path id="Path_205839-2" data-name="Path 205839" d="M6.135,12.269h1.13a.435.435,0,0,0,0-.869H6.135a.411.411,0,0,0-.435.435.436.436,0,0,0,.435.435" transform="translate(-3.222 -6.444)" fill="#334a5c"/>
        </g>
      </g>
    </g>
    <g id="Group_231003" data-name="Group 231003" transform="translate(274 -848.82)">
      <rect id="Rectangle_74100-2" data-name="Rectangle 74100" width="30" height="30" transform="translate(8 1058)" fill="none"/>
      <g id="Group_230981-2" data-name="Group 230981" transform="translate(11.51 1061.656)">
        <g id="Group_230967-2" data-name="Group 230967" transform="translate(0 0)" clip-path="url(#clip-path-5)">
          <path id="Path_205888-2" data-name="Path 205888" d="M45.971,33.233l-3.812-3.812a.373.373,0,0,0-.524,0l-.855.855a.371.371,0,0,0,.524.524l.593-.593L45.185,33.5l-.642.645a.373.373,0,0,0,0,.524.364.364,0,0,0,.262.109.359.359,0,0,0,.262-.109l.9-.9a.372.372,0,0,0,0-.525.01.01,0,0,1,0-.006" transform="translate(-30.63 -22.071)" fill="#334a5c" stroke="#334a5c" stroke-width="0.2"/>
          <path id="Path_205889-2" data-name="Path 205889" d="M14.179,64.3l-.59.59L10.3,61.6l.642-.642a.372.372,0,0,0-.529-.524l-.9.9a.368.368,0,0,0,0,.521l0,0,3.817,3.815a.371.371,0,0,0,.524,0l.855-.855a.371.371,0,0,0-.526-.524" transform="translate(-7.078 -45.418)" fill="#334a5c" stroke="#334a5c" stroke-width="0.2"/>
          <path id="Path_205890-2" data-name="Path 205890" d="M27.863,45.108a2.661,2.661,0,1,0,1.88.778,2.661,2.661,0,0,0-1.88-.778m1.366,4.017a1.91,1.91,0,1,1,.017-.017l-.017.017" transform="translate(-18.975 -33.963)" fill="#334a5c" stroke="#334a5c" stroke-width="0.2"/>
          <path id="Path_205891-2" data-name="Path 205891" d="M22.939,8.763a9.678,9.678,0,0,0-19.271.03l-.556-.553a.368.368,0,0,0-.521,0l0,0a.373.373,0,0,0,0,.524L3.734,9.909a.357.357,0,0,0,.124.082.38.38,0,0,0,.269,0,.376.376,0,0,0,.121-.082L5.394,8.763a.371.371,0,1,0-.505-.542l-.019.019L4.406,8.7A8.939,8.939,0,0,1,22.2,8.812l.037.835a8.932,8.932,0,0,1-11.185,8.647l6.619-6.612a.376.376,0,0,0,.109-.262.37.37,0,0,0-.109-.262L11.534,5.025a.373.373,0,0,0-.524,0L.11,15.925a.368.368,0,0,0,0,.521l0,0,6.132,6.132a.371.371,0,0,0,.524,0L10.449,18.9A9.682,9.682,0,0,0,22.978,9.632ZM6.5,21.8.9,16.187,11.272,5.81l5.608,5.608Z" transform="translate(0 0)" fill="#334a5c" stroke="#334a5c" stroke-width="0.2"/>
        </g>
      </g>
    </g>
    <g id="Group_231004" data-name="Group 231004" transform="translate(325 -1072.82)">
      <rect id="Rectangle_74101-2" data-name="Rectangle 74101" width="30" height="30" transform="translate(12 1095)" fill="none"/>
      <g id="Group_230982-2" data-name="Group 230982" transform="translate(9428.178 -2536.063)">
        <path id="Path_20220-2" data-name="Path 20220" d="M2312.024,1410.495v2.8h-7.968v-6.077h-3.781v6.077H2297V1403" transform="translate(-11707.089 2242.135)" fill="none" stroke="#334a5c" stroke-linejoin="round" stroke-width="1"/>
        <path id="Path_20221-2" data-name="Path 20221" d="M2242,1163.3l10.3-10.3,4.693,4.693" transform="translate(-11653.945 2483.694)" fill="none" stroke="#334a5c" stroke-linejoin="round" stroke-width="1"/>
        <path id="Path_20222-2" data-name="Path 20222" d="M2355.33,1170.747V1167H2353v6.077" transform="translate(-11761.197 2470.167)" fill="none" stroke="#334a5c" stroke-linejoin="round" stroke-width="1"/>
        <path id="Path_20223-2" data-name="Path 20223" d="M2569.913,1337.457a4.457,4.457,0,1,1-4.457-4.457A4.452,4.452,0,0,1,2569.913,1337.457Z" transform="translate(-11962.175 2309.771)" fill="none" stroke="#334a5c" stroke-linejoin="round" stroke-width="1"/>
        <line id="Line_489-2" data-name="Line 489" x2="3.712" y2="3.712" transform="translate(-9394.123 3650.814)" fill="none" stroke="#334a5c" stroke-linejoin="round" stroke-width="1"/>
      </g>
    </g>
    <g id="Group_231006" data-name="Group 231006" transform="translate(-19998 -3060.81)">
      <rect id="Rectangle_74102" data-name="Rectangle 74102" width="30" height="30" transform="translate(20083 3130)" fill="none"/>
      <g id="Group_231005" data-name="Group 231005" transform="translate(-55.568 7.766)">
        <path id="Path_205899" data-name="Path 205899" d="M9.234,8.888c0-.7-.012-1.408,0-2.116a5.27,5.27,0,0,1,3.588-5.257,5.424,5.424,0,0,1,7.218,3.678,22.558,22.558,0,0,1,.384,3.7c.457.049,1,.138,1.537.159,1.345.055,1.554.7,1.575,1.742.07,3.388.063,6.778.005,10.165-.019,1.1-.381,1.851-1.888,1.851-4.679,0-9.358-.014-14.036.014A1.561,1.561,0,0,1,6,21.212c.006-3.562-.017-7.124.012-10.686C6.021,9.5,6.488,9.1,7.339,9.059c.605-.031,1.208-.107,1.9-.171m5.467.985c-2.367,0-4.734.014-7.1-.011-.519-.006-.7.113-.691.668.037,1.789.014,3.579.014,5.369,0,1.809.006,3.618,0,5.426,0,.352.027.6.481.574.419-.029.841-.006,1.262-.006H21.881c.756,0,.759,0,.759-.769q0-5.2,0-10.391c0-.783-.077-.858-.9-.858H14.7m4.76-.939c-.06-1.048-.082-2.039-.18-3.022a4.243,4.243,0,0,0-2.209-3.259,4.455,4.455,0,0,0-3.3-.519,4.6,4.6,0,0,0-2.568,1.474c-1.4,1.579-1,3.488-1.035,5.326Z" transform="translate(20138.775 3125.236)" fill="#aeacac"/>
        <path id="Path_205900" data-name="Path 205900" d="M24.286,28.8a3.639,3.639,0,1,1-7.277.063,3.546,3.546,0,0,1,3.928-3.632A3.464,3.464,0,0,1,24.286,28.8M17.929,28.8a2.691,2.691,0,0,0,2.776,2.8,2.742,2.742,0,0,0,2.741-2.715,2.653,2.653,0,0,0-3.115-2.746,2.544,2.544,0,0,0-2.4,2.656" transform="translate(20132.854 3112.297)" fill="#aeacac"/>
        <path id="Path_205901" data-name="Path 205901" d="M23.159,29.036c-.351.569-.625,1.1-.105,1.6.461.438.968.243,1.447-.01.353.908-.565,1.927-1.5,2.085a1.873,1.873,0,0,1-2-1.578c-.2-1.051.689-1.931,2.164-2.093" transform="translate(20130.727 3110.25)" fill="#aeacac"/>
      </g>
    </g>
    <g id="Group_231007" data-name="Group 231007" transform="translate(-19808 -3066.82)">
      <rect id="Rectangle_74102-2" data-name="Rectangle 74102" width="30" height="30" transform="translate(20083 3130)" fill="none"/>
      <g id="Group_231005-2" data-name="Group 231005" transform="translate(-55.568 7.766)">
        <path id="Path_205899-2" data-name="Path 205899" d="M9.234,8.888c0-.7-.012-1.408,0-2.116a5.27,5.27,0,0,1,3.588-5.257,5.424,5.424,0,0,1,7.218,3.678,22.558,22.558,0,0,1,.384,3.7c.457.049,1,.138,1.537.159,1.345.055,1.554.7,1.575,1.742.07,3.388.063,6.778.005,10.165-.019,1.1-.381,1.851-1.888,1.851-4.679,0-9.358-.014-14.036.014A1.561,1.561,0,0,1,6,21.212c.006-3.562-.017-7.124.012-10.686C6.021,9.5,6.488,9.1,7.339,9.059c.605-.031,1.208-.107,1.9-.171m5.467.985c-2.367,0-4.734.014-7.1-.011-.519-.006-.7.113-.691.668.037,1.789.014,3.579.014,5.369,0,1.809.006,3.618,0,5.426,0,.352.027.6.481.574.419-.029.841-.006,1.262-.006H21.881c.756,0,.759,0,.759-.769q0-5.2,0-10.391c0-.783-.077-.858-.9-.858H14.7m4.76-.939c-.06-1.048-.082-2.039-.18-3.022a4.243,4.243,0,0,0-2.209-3.259,4.455,4.455,0,0,0-3.3-.519,4.6,4.6,0,0,0-2.568,1.474c-1.4,1.579-1,3.488-1.035,5.326Z" transform="translate(20138.775 3125.236)" fill="#334a5c"/>
        <path id="Path_205900-2" data-name="Path 205900" d="M24.286,28.8a3.639,3.639,0,1,1-7.277.063,3.546,3.546,0,0,1,3.928-3.632A3.464,3.464,0,0,1,24.286,28.8M17.929,28.8a2.691,2.691,0,0,0,2.776,2.8,2.742,2.742,0,0,0,2.741-2.715,2.653,2.653,0,0,0-3.115-2.746,2.544,2.544,0,0,0-2.4,2.656" transform="translate(20132.854 3112.297)" fill="#334a5c"/>
        <path id="Path_205901-2" data-name="Path 205901" d="M23.159,29.036c-.351.569-.625,1.1-.105,1.6.461.438.968.243,1.447-.01.353.908-.565,1.927-1.5,2.085a1.873,1.873,0,0,1-2-1.578c-.2-1.051.689-1.931,2.164-2.093" transform="translate(20130.727 3110.25)" fill="#334a5c"/>
      </g>
    </g>
  </g>
</svg>
