<svg width="42" height="43" viewBox="0 0 42 43" fill="none" xmlns="http://www.w3.org/2000/svg">
<path d="M21.0052 35.6976C21.0052 35.6976 4.19922 26.6486 4.19922 15.9836C4.19922 13.6693 5.11856 11.4498 6.755 9.81337C8.39145 8.17693 10.6109 7.25759 12.9252 7.25759C14.6358 7.20728 16.3218 7.6738 17.7632 8.59625C19.2046 9.51871 20.3344 10.8543 21.0052 12.4286C21.676 10.8544 22.8057 9.51898 24.2469 8.59654C25.6881 7.6741 27.3738 7.20749 29.0842 7.25759C31.3985 7.25759 33.618 8.17693 35.2544 9.81337C36.8909 11.4498 37.8102 13.6693 37.8102 15.9836C37.8102 26.6486 21.0052 35.6976 21.0052 35.6976Z" stroke="#363636" stroke-width="3" stroke-linecap="round" stroke-linejoin="round"/>
</svg>
