<svg width="42" height="43" viewBox="0 0 42 43" fill="none" xmlns="http://www.w3.org/2000/svg">
<path d="M18.7567 4.75206L10.8605 12.6483C9.61938 13.8894 9.61938 15.9016 10.8605 17.1427C12.1016 18.3838 14.1138 18.3838 15.3548 17.1427L23.2511 9.24643C24.4922 8.00535 24.4922 5.99315 23.2511 4.75206C22.01 3.51097 19.9978 3.51098 18.7567 4.75206Z" stroke="#363636" stroke-width="2.5" stroke-linecap="round" stroke-linejoin="round"/>
<path d="M33.2372 19.2301L25.3409 27.1263C24.0998 28.3674 24.0998 30.3796 25.3409 31.6207C26.582 32.8618 28.5942 32.8618 29.8353 31.6207L37.7316 23.7245C38.9727 22.4834 38.9727 20.4712 37.7316 19.2301C36.4905 17.989 34.4783 17.989 33.2372 19.2301Z" stroke="#363636" stroke-width="2.5" stroke-linecap="round" stroke-linejoin="round"/>
<path d="M23.9102 8.58838L33.8932 18.5714" stroke="#363636" stroke-width="2.5" stroke-linecap="round" stroke-linejoin="round"/>
<path d="M14.6953 17.8018L24.6783 27.7848" stroke="#363636" stroke-width="2.5" stroke-linecap="round" stroke-linejoin="round"/>
<path d="M21.6635 24.7683L9.98247 36.4493C9.45781 36.9711 8.74793 37.2641 8.00797 37.2641C7.268 37.2641 6.55812 36.9711 6.03347 36.4493C5.51166 35.9247 5.21875 35.2148 5.21875 34.4748C5.21875 33.7349 5.51166 33.025 6.03347 32.5003L17.7155 20.8193" stroke="#363636" stroke-width="2.5" stroke-linecap="round" stroke-linejoin="round"/>
</svg>
