<svg width="32" height="33" viewBox="0 0 32 33" fill="none" xmlns="http://www.w3.org/2000/svg">
<path d="M16.0036 4.83838C13.7021 4.83838 11.4523 5.52084 9.53874 6.79946C7.62515 8.07808 6.13369 9.89543 5.25296 12.0217C4.37223 14.148 4.14179 16.4876 4.59078 18.7449C5.03977 21.0021 6.14803 23.0755 7.7754 24.7029C9.40278 26.3303 11.4762 27.4385 13.7334 27.8875C15.9906 28.3365 18.3303 28.1061 20.4566 27.2253C22.5829 26.3446 24.4002 24.8531 25.6788 22.9396C26.9575 21.026 27.6399 18.7762 27.6399 16.4747C27.6399 13.3886 26.4139 10.4288 24.2317 8.24659C22.0495 6.06435 19.0897 4.83838 16.0036 4.83838Z" fill="#FFC107"/>
<path d="M16.0043 29.116C13.5049 29.116 11.0617 28.3748 8.98349 26.9862C6.90533 25.5977 5.28561 23.624 4.32913 21.3149C3.37266 19.0058 3.12241 16.4649 3.61001 14.0135C4.09762 11.5622 5.30118 9.31045 7.06851 7.54312C8.83584 5.77579 11.0876 4.57223 13.5389 4.08462C15.9903 3.59702 18.5312 3.84727 20.8403 4.80374C23.1494 5.76021 25.1231 7.37994 26.5116 9.4581C27.9002 11.5363 28.6414 13.9795 28.6414 16.4789C28.6419 18.1386 28.3155 19.7821 27.6806 21.3156C27.0457 22.849 26.1149 24.2424 24.9413 25.4159C23.7678 26.5895 22.3744 27.5203 20.841 28.1552C19.3075 28.7901 17.664 29.1166 16.0043 29.116ZM16.0043 5.84326C13.8986 5.84182 11.8399 6.46501 10.0885 7.63398C8.33715 8.80295 6.9719 10.4652 6.1655 12.4103C5.35911 14.3554 5.14781 16.496 5.55836 18.5612C5.9689 20.6265 6.98283 22.5235 8.47186 24.0123C9.96088 25.5012 11.8581 26.5148 13.9234 26.9251C15.9887 27.3354 18.1292 27.1238 20.0742 26.3171C22.0193 25.5105 23.6813 24.145 24.85 22.3935C26.0187 20.6419 26.6416 18.5831 26.6399 16.4774C26.6315 13.6587 25.5084 10.9578 23.5158 8.96416C21.5233 6.97049 18.823 5.84596 16.0043 5.83598V5.84326Z" fill="#FD8F25"/>
<path d="M16.0068 8.26221C14.3818 8.26278 12.7935 8.74517 11.4426 9.64839C10.0918 10.5516 9.03906 11.8351 8.4176 13.3365C7.79614 14.838 7.63384 16.49 7.95121 18.0837C8.26858 19.6774 9.05138 21.1412 10.2006 22.2901C11.3499 23.4389 12.814 24.2212 14.4078 24.538C16.0016 24.8548 17.6535 24.6919 19.1548 24.0699C20.656 23.4479 21.9391 22.3948 22.8419 21.0436C23.7446 19.6924 24.2264 18.1039 24.2264 16.4789C24.2264 15.3997 24.0138 14.3309 23.6007 13.3339C23.1876 12.3368 22.5821 11.4308 21.8188 10.6678C21.0555 9.90477 20.1493 9.29959 19.1521 8.88684C18.1549 8.47408 17.0861 8.26183 16.0068 8.26221Z" fill="#FF8F00"/>
<path d="M20.2927 10.1587H18.4498C18.3799 10.1587 18.313 10.1864 18.2636 10.2358C18.2142 10.2852 18.1865 10.3521 18.1865 10.422V17.5303H18.1414L13.2454 10.2692C13.2182 10.2348 13.1835 10.2069 13.1439 10.1878C13.1043 10.1686 13.061 10.1587 13.017 10.1587H11.3414C11.2716 10.1587 11.2046 10.1864 11.1552 10.2358C11.1059 10.2852 11.0781 10.3521 11.0781 10.422V21.4765C11.0781 21.5463 11.1059 21.6133 11.1552 21.6627C11.2046 21.712 11.2716 21.7398 11.3414 21.7398H13.1843C13.2541 21.7398 13.3211 21.712 13.3705 21.6627C13.4198 21.6133 13.4476 21.5463 13.4476 21.4765V14.3769H13.4927L18.3901 21.638C18.4188 21.6727 18.4548 21.7006 18.4955 21.7197C18.5363 21.7389 18.5807 21.7487 18.6258 21.7485H20.2941C20.3639 21.7485 20.4309 21.7208 20.4803 21.6714C20.5297 21.622 20.5574 21.5551 20.5574 21.4852V10.4307C20.5586 10.3953 20.5526 10.36 20.5398 10.3269C20.527 10.2939 20.5077 10.2637 20.4829 10.2383C20.4582 10.2129 20.4286 10.1928 20.3959 10.1791C20.3632 10.1654 20.3281 10.1585 20.2927 10.1587Z" fill="white"/>
</svg>
