<svg width="23" height="23" viewBox="0 0 23 23" fill="none" xmlns="http://www.w3.org/2000/svg">
<path d="M21.7671 12.2113L12.9253 3.36945C12.7935 3.23659 12.6366 3.13128 12.4637 3.05964C12.2908 2.988 12.1054 2.95146 11.9182 2.95216H3.66613C3.47703 2.95216 3.29568 3.02728 3.16196 3.16099C3.02825 3.29471 2.95313 3.47606 2.95313 3.66516V11.9172C2.95244 12.1044 2.98897 12.2898 3.06061 12.4627C3.13225 12.6356 3.23756 12.7925 3.37042 12.9243L12.2123 21.7662C12.4794 22.0332 12.8416 22.1832 13.2193 22.1832C13.5971 22.1832 13.9593 22.0332 14.2264 21.7662L21.7655 14.2271C21.8981 14.0949 22.0033 13.9379 22.0752 13.765C22.147 13.5921 22.1841 13.4068 22.1842 13.2195C22.1844 13.0323 22.1476 12.8469 22.076 12.6739C22.0045 12.5009 21.8995 12.3437 21.7671 12.2113ZM7.58435 8.64958C7.37315 8.64958 7.16669 8.58696 6.99108 8.46962C6.81547 8.35228 6.6786 8.18551 6.59778 7.99038C6.51696 7.79526 6.4958 7.58055 6.53701 7.3734C6.57821 7.16626 6.67991 6.97598 6.82926 6.82664C6.9786 6.6773 7.16888 6.57559 7.37602 6.53439C7.58317 6.49319 7.79788 6.51434 7.993 6.59516C8.18813 6.67598 8.3549 6.81285 8.47224 6.98846C8.58958 7.16407 8.6522 7.37053 8.6522 7.58173C8.6522 7.86494 8.5397 8.13656 8.33944 8.33682C8.13917 8.53708 7.86756 8.64958 7.58435 8.64958Z" fill="#479A5B"/>
</svg>
