<svg width="24" height="25" viewBox="0 0 24 25" fill="none" xmlns="http://www.w3.org/2000/svg">
<path d="M11.2763 1.24912C11.6711 0.830516 12.3367 0.830517 12.7315 1.24912L14.5284 3.15479C14.7623 3.4028 15.1063 3.5146 15.4413 3.45142L18.0152 2.96591C18.5806 2.85926 19.1191 3.25054 19.1924 3.82121L19.526 6.41914C19.5695 6.75724 19.7821 7.04994 20.0903 7.19571L22.4579 8.31582C22.978 8.56186 23.1837 9.19496 22.9076 9.69972L21.6505 11.9976C21.4869 12.2966 21.4869 12.6584 21.6505 12.9575L22.9076 15.2554C23.1837 15.7601 22.978 16.3932 22.4579 16.6393L20.0903 17.7594C19.7821 17.9051 19.5695 18.1978 19.526 18.5359L19.1924 21.1339C19.1191 21.7045 18.5806 22.0958 18.0152 21.9892L15.4413 21.5037C15.1063 21.4405 14.7623 21.5523 14.5284 21.8003L12.7315 23.706C12.3367 24.1246 11.6711 24.1246 11.2763 23.706L9.47941 21.8003C9.24555 21.5523 8.90147 21.4405 8.56649 21.5037L5.99262 21.9892C5.42723 22.0958 4.88869 21.7045 4.8154 21.1339L4.48177 18.5359C4.43835 18.1978 4.2257 17.9051 3.91756 17.7594L1.54988 16.6393C1.02978 16.3932 0.824078 15.7601 1.10022 15.2554L2.35734 12.9575C2.52094 12.6584 2.52094 12.2966 2.35734 11.9976L1.10022 9.69972C0.824078 9.19496 1.02978 8.56186 1.54988 8.31582L3.91756 7.19571C4.2257 7.04994 4.43835 6.75724 4.48177 6.41914L4.8154 3.82121C4.88869 3.25054 5.42723 2.85926 5.99262 2.96591L8.56649 3.45142C8.90147 3.5146 9.24555 3.4028 9.47941 3.15479L11.2763 1.24912Z" fill="#7ACA78"/>
<g clip-path="url(#clip0_1322_5884)">
<path d="M16.9073 9.29333L10.5075 14.7832C10.5075 14.7833 10.5075 14.7833 10.5074 14.7833C10.4644 14.8203 10.4152 14.848 10.3635 14.8664C10.3118 14.8847 10.2574 14.8939 10.2032 14.8939C10.1489 14.8939 10.0945 14.8847 10.0428 14.8664L16.9073 9.29333ZM16.9073 9.29333C16.9948 9.21827 17.0531 9.10749 17.0531 8.9822C17.0531 8.85692 16.9948 8.74614 16.9073 8.67107C16.821 8.59703 16.7111 8.56055 16.603 8.56055C16.495 8.56055 16.3851 8.59703 16.2987 8.67107L10.2032 13.9L7.7075 11.7592C7.62118 11.6851 7.51128 11.6487 7.40323 11.6487C7.29519 11.6487 7.18528 11.6851 7.09896 11.7592C7.01146 11.8343 6.95312 11.945 6.95312 12.0703C6.95312 12.1956 7.01145 12.3064 7.09896 12.3814L9.89879 14.7832C9.89883 14.7833 9.89886 14.7833 9.8989 14.7833M16.9073 9.29333L9.8989 14.7833M9.8989 14.7833C9.94198 14.8203 9.99115 14.848 10.0428 14.8664L9.8989 14.7833Z" fill="white" stroke="white" stroke-width="0.5"/>
</g>
<defs>
<clipPath id="clip0_1322_5884">
<rect width="12" height="10.5" fill="white" transform="translate(6.00391 6.47754)"/>
</clipPath>
</defs>
</svg>
