<svg xmlns="http://www.w3.org/2000/svg" width="10" height="10" viewBox="0 0 10 10">
  <g id="Group_179195" data-name="Group 179195" transform="translate(7160 -20909)">
    <g id="Group_179125" data-name="Group 179125" transform="translate(-7240.27 20774.516)">
      <path id="icons8-left" d="M10.528,5.342a.508.508,0,0,1,.36.15l2.879,2.879a.509.509,0,0,1,0,.72L10.888,11.97a.509.509,0,0,1-.72,0l-.044-.044a.509.509,0,0,1,0-.72s1.793-1.839,2.354-2.5h0L10.124,6.255a.509.509,0,0,1,0-.72l.044-.044A.508.508,0,0,1,10.528,5.342Z" transform="translate(73.324 130.753)" fill="#fff"/>
    </g>
    <rect id="Rectangle_53256" data-name="Rectangle 53256" width="10" height="10" transform="translate(-7160 20909)" fill="none"/>
  </g>
</svg>
