<svg width="42" height="42" viewBox="0 0 42 42" fill="none" xmlns="http://www.w3.org/2000/svg">
<circle cx="21" cy="21" r="20.5" fill="white" stroke="#E8E8E8"/>
<g clip-path="url(#clip0_680_1551)">
<path d="M21.375 11.25C18.8894 11.2527 16.5065 12.2413 14.7489 13.9989C12.9913 15.7565 12.0027 18.1394 12 20.625V28.5309C12.0005 28.9204 12.1554 29.2938 12.4308 29.5692C12.7062 29.8446 13.0796 29.9995 13.4691 30H21.375C23.8614 30 26.246 29.0123 28.0041 27.2541C29.7623 25.496 30.75 23.1114 30.75 20.625C30.75 18.1386 29.7623 15.754 28.0041 13.9959C26.246 12.2377 23.8614 11.25 21.375 11.25ZM17.25 22.125C17.0275 22.125 16.81 22.059 16.625 21.9354C16.44 21.8118 16.2958 21.6361 16.2106 21.4305C16.1255 21.225 16.1032 20.9988 16.1466 20.7805C16.19 20.5623 16.2972 20.3618 16.4545 20.2045C16.6118 20.0472 16.8123 19.94 17.0305 19.8966C17.2488 19.8532 17.475 19.8755 17.6805 19.9606C17.8861 20.0458 18.0618 20.19 18.1854 20.375C18.309 20.56 18.375 20.7775 18.375 21C18.375 21.2984 18.2565 21.5845 18.0455 21.7955C17.8345 22.0065 17.5484 22.125 17.25 22.125ZM21.375 22.125C21.1525 22.125 20.935 22.059 20.75 21.9354C20.565 21.8118 20.4208 21.6361 20.3356 21.4305C20.2505 21.225 20.2282 20.9988 20.2716 20.7805C20.315 20.5623 20.4222 20.3618 20.5795 20.2045C20.7368 20.0472 20.9373 19.94 21.1555 19.8966C21.3738 19.8532 21.6 19.8755 21.8055 19.9606C22.0111 20.0458 22.1868 20.19 22.3104 20.375C22.434 20.56 22.5 20.7775 22.5 21C22.5 21.2984 22.3815 21.5845 22.1705 21.7955C21.9595 22.0065 21.6734 22.125 21.375 22.125ZM25.5 22.125C25.2775 22.125 25.06 22.059 24.875 21.9354C24.69 21.8118 24.5458 21.6361 24.4606 21.4305C24.3755 21.225 24.3532 20.9988 24.3966 20.7805C24.44 20.5623 24.5472 20.3618 24.7045 20.2045C24.8618 20.0472 25.0623 19.94 25.2805 19.8966C25.4988 19.8532 25.725 19.8755 25.9305 19.9606C26.1361 20.0458 26.3118 20.19 26.4354 20.375C26.559 20.56 26.625 20.7775 26.625 21C26.625 21.2984 26.5065 21.5845 26.2955 21.7955C26.0845 22.0065 25.7984 22.125 25.5 22.125Z" fill="#348E86"/>
</g>
<defs>
<clipPath id="clip0_680_1551">
<rect width="24" height="24" fill="white" transform="translate(9 9)"/>
</clipPath>
</defs>
</svg>
