<svg xmlns="http://www.w3.org/2000/svg" xmlns:xlink="http://www.w3.org/1999/xlink" width="86.181" height="36.74" viewBox="0 0 86.181 36.74">
  <defs>
    <filter id="Path_27361" x="5.289" y="0" width="80.892" height="36.74" filterUnits="userSpaceOnUse">
      <feOffset dy="3" input="SourceAlpha"/>
      <feGaussianBlur stdDeviation="3" result="blur"/>
      <feFlood flood-opacity="0.161"/>
      <feComposite operator="in" in2="blur"/>
      <feComposite in="SourceGraphic"/>
    </filter>
    <linearGradient id="linear-gradient" x1="0.138" x2="0.855" y2="1" gradientUnits="objectBoundingBox">
      <stop offset="0" stop-color="#fbd249"/>
      <stop offset="1" stop-color="#f5a623"/>
    </linearGradient>
    <filter id="Path_27359" x="0" y="0.541" width="31.153" height="33.867" filterUnits="userSpaceOnUse">
      <feOffset dy="2" input="SourceAlpha"/>
      <feGaussianBlur stdDeviation="2" result="blur-2"/>
      <feFlood flood-opacity="0.259"/>
      <feComposite operator="in" in2="blur-2"/>
      <feComposite in="SourceGraphic"/>
    </filter>
  </defs>
  <g id="Group_4" data-name="Group 4" transform="translate(-67.192 -166.582)">
    <g id="Group_19880" data-name="Group 19880" transform="translate(72.066 169.999)">
      <g transform="matrix(1, 0, 0, 1, -4.87, -3.42)" filter="url(#Path_27361)">
        <path id="Path_27361-2" data-name="Path 27361" d="M4.331,0H67.223L63.578,18.74H4.331Z" transform="translate(9.96 6)" fill="#6f4caf"/>
      </g>
      <g id="Group_19880-2" data-name="Group 19880" transform="translate(0 0)">
        <g id="icons8-lamborghini">
          <path id="Path_27357" data-name="Path 27357" d="M23.305,3.564a27.006,27.006,0,0,0-7.6-1,27.006,27.006,0,0,0-7.6,1C5.535,4.37,5,4.721,5,6.477c0,9.231,3.636,14.363,6.851,17.44,1.7,1.618,3.257,2.794,3.853,2.794s2.158-1.174,3.853-2.794c3.215-3.078,6.851-8.209,6.851-17.44C26.4,4.721,25.868,4.37,23.305,3.564Z" transform="translate(-5 -2.56)" fill="url(#linear-gradient)"/>
          <path id="Path_27358" data-name="Path 27358" d="M16.143,26.585c-.253-.02-1.433-.694-3.468-2.638C8.184,19.646,6,14.075,6,6.914c0-1.335.167-1.579,2.7-2.377a26.537,26.537,0,0,1,7.435-.979Z" transform="translate(-5.437 -2.996)" fill="#ffd54f"/>
          <g transform="matrix(1, 0, 0, 1, -4.87, -3.42)" filter="url(#Path_27359)">
            <path id="Path_27359-2" data-name="Path 27359" d="M19.646,23.978a15,15,0,0,1-3.072,2.45,15,15,0,0,1-3.071-2.45C9.128,19.79,7,14.351,7,7.351,7,6.322,7,6.239,9.312,5.516a25.953,25.953,0,0,1,7.266-.953,25.953,25.953,0,0,1,7.263.953c2.312.727,2.312.811,2.312,1.839C26.15,14.351,24.023,19.79,19.646,23.978Z" transform="translate(-1 -0.02)" fill="#6f4caf"/>
          </g>
          <path id="Path_27360" data-name="Path 27360" d="M16.575,26.428a15,15,0,0,1-3.072-2.45C9.128,19.79,7,14.351,7,7.351,7,6.322,7,6.239,9.312,5.516a25.953,25.953,0,0,1,7.266-.953S17,26.235,16.575,26.428Z" transform="translate(-5.873 -3.434)" fill="#6f4caf"/>
        </g>
        <path id="icons8-account" d="M5.262,3,6.275,4.013,3,7.289l.8.8L7.074,4.811,8.086,5.827V3Zm6.215,0V13.177h1.7V3ZM8.655,7.523v5.655h1.7V7.523ZM5.827,9.781v3.391h1.7V9.781ZM3,10.915v2.262H4.7V10.915Z" transform="translate(2.613 2.226)" fill="url(#linear-gradient)"/>
      </g>
      <g id="Group" transform="translate(30.542 5.579)">
        <text id="NBEstimate" transform="translate(3 5)" fill="#fff" font-size="6" font-family="Source Sans Pro" font-weight="600"><tspan x="0" y="0">NBEstimate</tspan></text>
        <text id="Price_Trends" data-name="Price Trends" transform="translate(3 11.994)" fill="#fff" font-size="6" font-family="Source Sans Pro"><tspan x="0" y="0">Price Trends</tspan></text>
      </g>
      <text id="TM" transform="translate(63.744 6.545)" fill="#fff" font-size="3" font-family="Helvetica"><tspan x="0" y="0">TM</tspan></text>
    </g>
    <g id="Group_1" data-name="Group 1" transform="translate(96.683 174.743)">
      <path id="Fill-1" d="M.434,4.359A3.666,3.666,0,1,1,4.1,8.025,3.666,3.666,0,0,1,.434,4.359" transform="translate(-0.434 -0.693)" fill="#fd3753" fill-rule="evenodd"/>
      <path id="Fill-6" d="M11.041,11.8a.616.616,0,0,0,.118-.639.605.605,0,0,0-.118-.186.588.588,0,0,0-.174-.129.489.489,0,0,0-.217-.048.51.51,0,0,0-.208.045.541.541,0,0,0-.179.127.64.64,0,0,0-.121.188.576.576,0,0,0-.045.225.607.607,0,0,0,.042.225.559.559,0,0,0,.118.186.607.607,0,0,0,.174.126.488.488,0,0,0,.217.048A.519.519,0,0,0,11.041,11.8Zm-.718.332a.845.845,0,0,1-.267-.172.79.79,0,0,1-.245-.577.772.772,0,0,1,.065-.315.792.792,0,0,1,.179-.256.849.849,0,0,1,.267-.172.893.893,0,0,1,.653,0,.849.849,0,0,1,.267.172.786.786,0,0,1,.179.256.769.769,0,0,1,.065.315.789.789,0,0,1-.065.318.78.78,0,0,1-.179.259.845.845,0,0,1-.267.172.893.893,0,0,1-.653,0Zm2.43-2.7a.548.548,0,0,0,.174-.127.631.631,0,0,0,.121-.189.572.572,0,0,0,.045-.225.585.585,0,0,0-.042-.222.6.6,0,0,0-.118-.186.576.576,0,0,0-.179-.129.5.5,0,0,0-.214-.048.508.508,0,0,0-.208.045.6.6,0,0,0-.179.124.578.578,0,0,0-.124.186.61.61,0,0,0,0,.453.6.6,0,0,0,.118.186.575.575,0,0,0,.179.129.507.507,0,0,0,.219.048.5.5,0,0,0,.21-.045Zm.3,2.725L11.512,10.2,9.947,8.287l.2-.169,1.525,1.953,1.575,1.913Zm-.836-2.522a.809.809,0,0,1-.267-.172.855.855,0,0,1-.179-.256.769.769,0,0,1,0-.631.837.837,0,0,1,.446-.431.846.846,0,0,1,.329-.065.825.825,0,0,1,.327.065.9.9,0,0,1,.267.174.791.791,0,0,1,0,1.143.854.854,0,0,1-.594.234A.877.877,0,0,1,12.212,9.638Z" transform="translate(-7.845 -6.534)" fill="#fff" fill-rule="evenodd"/>
    </g>
  </g>
</svg>
