<svg xmlns="http://www.w3.org/2000/svg" width="70" height="16" viewBox="0 0 70 16">
  <g id="Group_182689" data-name="Group 182689" transform="translate(7095 -20889)">
    <g id="Group_179126" data-name="Group 179126" transform="translate(-7120 18339)">
      <g id="Group_178729" data-name="Group 178729" transform="translate(25 2550)">
        <g id="Rectangle_53013" data-name="Rectangle 53013" fill="#fff" stroke="#ce2b44" stroke-linecap="round" stroke-width="0.3" stroke-dasharray="0 1">
          <rect width="70" height="16" rx="2" stroke="none"/>
          <rect x="0.15" y="0.15" width="69.7" height="15.7" rx="1.85" fill="none"/>
        </g>
      </g>
      <path id="noun-offer-4487561" d="M154.223,81.849l-2.363,2.363a.3.3,0,0,1-.423-.423l2.363-2.363a.3.3,0,0,1,.423.423Zm-2.217.146a.466.466,0,1,0-.33.137A.467.467,0,0,0,152.006,81.995Zm1.647,1.647a.466.466,0,1,0,.33-.137A.466.466,0,0,0,153.654,83.642Zm3.474-.144h0a.888.888,0,0,1-.574.7l-.585.217.168.6a.9.9,0,0,1-1.106,1.106l-.6-.168-.217.585a.888.888,0,0,1-.7.574.946.946,0,0,1-.145.011.887.887,0,0,1-.7-.341l-.387-.489-.518.345h0a.9.9,0,0,1-1.395-.71l-.026-.623-.622-.025h0a.9.9,0,0,1-.711-1.4l.345-.518-.489-.387a.9.9,0,0,1,.244-1.546l.585-.217-.168-.6a.9.9,0,0,1,1.106-1.106l.6.168.218-.585a.9.9,0,0,1,1.546-.244l.387.489L153.9,79a.9.9,0,0,1,1.395.71l.026.623.622.025a.9.9,0,0,1,.711,1.4l-.345.518.489.387a.887.887,0,0,1,.33.844Zm-.7-.375-.705-.558a.3.3,0,0,1-.063-.4l.5-.748h0a.3.3,0,0,0-.237-.465l-.9-.037a.3.3,0,0,1-.287-.287l-.037-.9h0a.3.3,0,0,0-.465-.236l-.747.5h0a.3.3,0,0,1-.4-.063l-.558-.705a.3.3,0,0,0-.515.081l-.313.843a.3.3,0,0,1-.361.184l-.866-.242a.3.3,0,0,0-.369.369l.242.866a.3.3,0,0,1-.184.361l-.843.313a.3.3,0,0,0-.082.515l.705.558a.3.3,0,0,1,.063.4l-.5.748h0a.3.3,0,0,0,.237.465l.9.037a.3.3,0,0,1,.287.287l.037.9h0a.3.3,0,0,0,.465.236l.747-.5h0a.3.3,0,0,1,.4.063l.558.705a.3.3,0,0,0,.515-.081l.313-.843a.3.3,0,0,1,.361-.184l.866.242h0a.3.3,0,0,0,.292-.077.294.294,0,0,0,.077-.292l-.242-.866h0a.3.3,0,0,1,.184-.361l.842-.313a.3.3,0,0,0,.082-.515Z" transform="translate(-117.623 2475.182)" fill="#ce263e"/>
    </g>
    <path id="Path_154217" data-name="Path 154217" d="M.9,0h.79V-3.43c0-.69-.06-1.39-.11-2.05h.04l.71,1.35L4.71,0h.86V-6.56H4.78v3.39c0,.69.06,1.43.1,2.09H4.84L4.13-2.44,1.76-6.56H.9ZM9.26.12a2.894,2.894,0,0,0,1.6-.5l-.29-.54a2.2,2.2,0,0,1-1.21.38A1.612,1.612,0,0,1,7.74-2.23h3.28a3.18,3.18,0,0,0,.03-.47c0-1.39-.7-2.28-1.94-2.28A2.344,2.344,0,0,0,6.93-2.42,2.324,2.324,0,0,0,9.26.12ZM7.73-2.82a1.5,1.5,0,0,1,1.4-1.51c.76,0,1.2.53,1.2,1.51ZM13.07,0h.96l.68-2.6c.13-.46.23-.92.34-1.41h.04c.12.49.21.94.33,1.4L16.12,0h1l1.3-4.86h-.78l-.71,2.81c-.1.46-.19.9-.3,1.35h-.04c-.11-.45-.22-.89-.34-1.35l-.76-2.81h-.8l-.75,2.81c-.12.45-.22.9-.33,1.35h-.04c-.09-.45-.18-.89-.29-1.35l-.72-2.81h-.84Zm10.3.12a2.316,2.316,0,0,0,2.25-2.54,2.322,2.322,0,0,0-2.25-2.56,2.322,2.322,0,0,0-2.25,2.56A2.316,2.316,0,0,0,23.37.12Zm0-.68c-.83,0-1.4-.75-1.4-1.86s.57-1.88,1.4-1.88,1.4.76,1.4,1.88S24.21-.56,23.37-.56ZM29.89,0h.82V-4.19h1.03v-.67H30.71v-.77c0-.62.22-.94.68-.94a1.365,1.365,0,0,1,.55.12l.18-.63a2.2,2.2,0,0,0-.81-.16c-.97,0-1.42.62-1.42,1.61v.77H27.86v-.62c0-.64.28-.99.76-.99a1.573,1.573,0,0,1,.65.13l.17-.62a2.241,2.241,0,0,0-.89-.18c-1.01,0-1.51.63-1.51,1.64v.64l-.66.05v.62h.66V0h.82V-4.19h2.03Zm4.65.12a2.894,2.894,0,0,0,1.6-.5l-.29-.54a2.2,2.2,0,0,1-1.21.38,1.612,1.612,0,0,1-1.62-1.69H36.3a3.18,3.18,0,0,0,.03-.47c0-1.39-.7-2.28-1.94-2.28a2.344,2.344,0,0,0-2.18,2.56A2.324,2.324,0,0,0,34.54.12ZM33.01-2.82a1.5,1.5,0,0,1,1.4-1.51c.76,0,1.2.53,1.2,1.51ZM37.53,0h.82V-3.12c.33-.82.82-1.12,1.23-1.12a1.36,1.36,0,0,1,.47.08l.16-.72a1.207,1.207,0,0,0-.52-.1,1.662,1.662,0,0,0-1.38,1h-.03l-.07-.88h-.68Zm4.7.12c1.15,0,1.78-.66,1.78-1.45,0-.92-.78-1.21-1.48-1.47-.55-.21-1.08-.38-1.08-.84,0-.37.28-.7.89-.7a1.8,1.8,0,0,1,1.11.43l.39-.52a2.426,2.426,0,0,0-1.51-.55c-1.05,0-1.67.6-1.67,1.38,0,.82.76,1.15,1.45,1.4.53.2,1.11.42,1.11.92,0,.42-.32.76-.96.76a2.186,2.186,0,0,1-1.43-.58l-.41.55A2.925,2.925,0,0,0,42.23.12Z" transform="translate(-7076 20900)" fill="#ce263e"/>
  </g>
</svg>
