<svg id="Page-1" xmlns="http://www.w3.org/2000/svg" width="34.138" height="13.061" viewBox="0 0 34.138 13.061">
  <g id="Group_18" data-name="Group 18" transform="translate(0 0)">
    <g id="Group_15" data-name="Group 15" transform="translate(22.425 6.656)">
      <path id="Path_6" data-name="Path 6" d="M415.882,332.657l.341.1a.58.58,0,0,1-.108.239.443.443,0,0,1-.182.142.66.66,0,0,1-.279.051.828.828,0,0,1-.336-.057.521.521,0,0,1-.222-.21.7.7,0,0,1-.1-.381.667.667,0,0,1,.165-.478.616.616,0,0,1,.466-.165.635.635,0,0,1,.37.1.52.52,0,0,1,.2.3l-.341.074a.2.2,0,0,0-.04-.085.231.231,0,0,0-.08-.068.223.223,0,0,0-.1-.023.219.219,0,0,0-.2.108.461.461,0,0,0-.051.245.487.487,0,0,0,.063.284.217.217,0,0,0,.176.08.21.21,0,0,0,.165-.063A.388.388,0,0,0,415.882,332.657Z" transform="translate(-415 -331.894)" fill="#1c2021"/>
      <path id="Path_7" data-name="Path 7" d="M438.9,332.449a.593.593,0,0,1,.649-.648.672.672,0,0,1,.484.165.632.632,0,0,1,.171.472.73.73,0,0,1-.074.358.527.527,0,0,1-.216.216.711.711,0,0,1-.347.08.812.812,0,0,1-.353-.068.55.55,0,0,1-.228-.216A.645.645,0,0,1,438.9,332.449Zm.387,0a.437.437,0,0,0,.068.273.231.231,0,0,0,.193.085.244.244,0,0,0,.193-.08.472.472,0,0,0,.068-.29.353.353,0,0,0-.074-.256.234.234,0,0,0-.193-.08.227.227,0,0,0-.188.085A.38.38,0,0,0,439.287,332.449Z" transform="translate(-437.54 -331.8)" fill="#1c2021"/>
      <path id="Path_8" data-name="Path 8" d="M465.111,332.2h.506l.193.762L466,332.2h.506v1.252h-.319V332.5l-.245.956h-.284l-.245-.956v.956H465.1V332.2Z" transform="translate(-462.25 -332.177)" fill="#1c2021"/>
      <path id="Path_9" data-name="Path 9" d="M494.3,332.2h.643a.423.423,0,0,1,.313.1.379.379,0,0,1,.1.284.39.39,0,0,1-.114.3.48.48,0,0,1-.347.108h-.211v.466H494.3Zm.387.535h.1a.244.244,0,0,0,.159-.04.13.13,0,0,0,.046-.1.137.137,0,0,0-.04-.1.2.2,0,0,0-.148-.04h-.108v.279Z" transform="translate(-489.789 -332.177)" fill="#1c2021"/>
      <path id="Path_10" data-name="Path 10" d="M516.5,332.2h.387v.944h.6v.307h-.99Z" transform="translate(-510.726 -332.177)" fill="#1c2021"/>
      <path id="Path_11" data-name="Path 11" d="M537.3,332.2h.387v1.252H537.3Z" transform="translate(-530.343 -332.177)" fill="#1c2021"/>
      <path id="Path_12" data-name="Path 12" d="M547.693,333.147h-.438l-.063.2H546.8l.472-1.252h.421l.472,1.252h-.4Zm-.08-.267-.137-.449-.137.449Z" transform="translate(-539.302 -332.083)" fill="#1c2021"/>
      <path id="Path_13" data-name="Path 13" d="M572.9,332.2h.358l.472.694V332.2h.364v1.252h-.364l-.466-.688v.688H572.9Z" transform="translate(-563.917 -332.177)" fill="#1c2021"/>
      <path id="Path_14" data-name="Path 14" d="M596.9,332.2h1.178v.307h-.393v.944H597.3v-.944h-.392V332.2Z" transform="translate(-586.552 -332.177)" fill="#1c2021"/>
    </g>
    <g id="Rectangle-3-_x2B_-Letters">
      <path id="Rectangle-3" d="M39.453,214.884l1.121-.353-.364-.808A9.257,9.257,0,0,0,39.453,214.884Zm-.381-3.692-2.2-4.892-16.076.91,4.454,12.151,8.573-2.7c-.546-.785-.745-1.718-.114-2.173.705-.512,1.769.08,2.446.916C36.814,214.31,38.651,211.767,39.072,211.192Z" transform="translate(-20.8 -206.3)" fill="#1c2021"/>
      <g id="Letters" transform="translate(3.072 1.237)">
        <path id="Oval-1" d="M172.417,189a1.151,1.151,0,1,0-1.217-1.149A1.184,1.184,0,0,0,172.417,189Zm-1,.495h1.991V194.7h-1.991Z" transform="translate(-159.914 -186.7)" fill="#fefefe"/>
        <path id="Path-3" d="M74.995,235.679c.017.006.028,0,.028-.017v-1.32a.058.058,0,0,0-.028-.046,2.408,2.408,0,0,0-1.058-.216,5.528,5.528,0,0,0-.927,0c-2.9.233-3.009,2.332-3.009,2.423v.512c0,.063,0,2.207,3.009,2.395.3.023.87,0,.927,0a3.172,3.172,0,0,0,1.172-.21.043.043,0,0,0,.028-.04v-1.234c0-.017-.011-.023-.023-.011a2.647,2.647,0,0,1-1.161.267,1.684,1.684,0,0,1-.495,0c-1.343-.228-1.405-1.206-1.405-1.206,0-.017-.006-.046-.006-.057v-.375a.175.175,0,0,1,.006-.057,1.387,1.387,0,0,1,1.405-1.166h.495A2.965,2.965,0,0,1,74.995,235.679Z" transform="translate(-64.471 -231.367)" fill="#fefefe"/>
        <path id="Path-1" d="M-27.2,240.944a.027.027,0,0,0,.028.028h1.94a.027.027,0,0,0,.028-.028v-1.513a.027.027,0,0,1,.028-.028s3.1.222,3.1-1.855c0-1.644-1.946-1.82-2.583-1.792h-2.514a.027.027,0,0,0-.028.028Zm1.963-2.7v-1.36h.478s.688.028.745.5a1.138,1.138,0,0,1,0,.279.736.736,0,0,1-.688.58Z" transform="translate(27.2 -232.963)" fill="#fefefe"/>
      </g>
      <path id="Path-7" d="M253.725,275.473a1.024,1.024,0,0,0,.489-.091c.705-.37,3.089-6.189,5.6-7.981a.173.173,0,0,0,.046-.046.083.083,0,0,0,.017-.045s0-.12-.37-.12c-2.236-.063-4.562,4.631-5.785,6.485-.017.023-.1,0-.1,0a6.71,6.71,0,0,0-1.53-1.337.488.488,0,0,0-.182-.028,1.032,1.032,0,0,0-.54.228.6.6,0,0,0-.176.535.394.394,0,0,0,.034.137,11.7,11.7,0,0,0,1.621,2A1.1,1.1,0,0,0,253.725,275.473Z" transform="translate(-238.093 -263.725)" fill="#2bbc5d"/>
    </g>
    <g id="Group_16" data-name="Group 16" transform="translate(22.385 1.843)">
      <path id="Path_15" data-name="Path 15" d="M414.3,248.5h1.86a2.25,2.25,0,0,1,.887.148,1.448,1.448,0,0,1,.557.427,1.73,1.73,0,0,1,.319.649,2.909,2.909,0,0,1,.1.785,2.765,2.765,0,0,1-.148,1.007,1.668,1.668,0,0,1-.41.6,1.423,1.423,0,0,1-.563.324,2.872,2.872,0,0,1-.745.108H414.3Zm1.251.916v2.213h.307a1.3,1.3,0,0,0,.558-.085.6.6,0,0,0,.262-.3,1.9,1.9,0,0,0,.1-.705,1.348,1.348,0,0,0-.21-.882.889.889,0,0,0-.7-.239Z" transform="translate(-414.3 -248.426)" fill="#1c2021"/>
      <path id="Path_16" data-name="Path 16" d="M485.9,249.987l1.195-.074a.943.943,0,0,0,.159.444.66.66,0,0,0,.552.245.614.614,0,0,0,.415-.125.361.361,0,0,0,.011-.575,1.574,1.574,0,0,0-.643-.233,2.768,2.768,0,0,1-1.178-.495.983.983,0,0,1-.353-.785,1.079,1.079,0,0,1,.182-.592,1.186,1.186,0,0,1,.546-.438,2.509,2.509,0,0,1,1-.159,2.017,2.017,0,0,1,1.183.29,1.246,1.246,0,0,1,.484.922l-1.183.068a.648.648,0,0,0-.2-.4.624.624,0,0,0-.415-.125.5.5,0,0,0-.33.091.282.282,0,0,0-.108.228.226.226,0,0,0,.091.176,1.044,1.044,0,0,0,.421.148,5.484,5.484,0,0,1,1.178.358,1.236,1.236,0,0,1,.518.449,1.138,1.138,0,0,1,.159.6,1.279,1.279,0,0,1-.216.717,1.343,1.343,0,0,1-.6.5,2.434,2.434,0,0,1-.978.171,2.01,2.01,0,0,1-1.434-.4A1.618,1.618,0,0,1,485.9,249.987Z" transform="translate(-481.827 -247.2)" fill="#1c2021"/>
    </g>
    <g id="Group_17" data-name="Group 17" transform="translate(30.457 1.843)">
      <path id="Path_17" data-name="Path 17" d="M556.2,249.987l1.195-.074a.942.942,0,0,0,.159.444.66.66,0,0,0,.552.245.614.614,0,0,0,.415-.125.361.361,0,0,0,.011-.575,1.574,1.574,0,0,0-.643-.233,2.768,2.768,0,0,1-1.178-.495,1,1,0,0,1-.353-.785,1.079,1.079,0,0,1,.182-.592,1.186,1.186,0,0,1,.546-.438,2.509,2.509,0,0,1,1-.159,2.018,2.018,0,0,1,1.183.29,1.246,1.246,0,0,1,.484.922l-1.183.068a.648.648,0,0,0-.2-.4.625.625,0,0,0-.415-.125.5.5,0,0,0-.33.091.282.282,0,0,0-.108.228.226.226,0,0,0,.091.176,1.044,1.044,0,0,0,.421.148,5.483,5.483,0,0,1,1.178.358,1.236,1.236,0,0,1,.518.449,1.138,1.138,0,0,1,.159.6,1.279,1.279,0,0,1-.216.717,1.342,1.342,0,0,1-.6.5,2.434,2.434,0,0,1-.978.171,2.01,2.01,0,0,1-1.434-.4A1.56,1.56,0,0,1,556.2,249.987Z" transform="translate(-556.2 -247.2)" fill="#1c2021"/>
    </g>
  </g>
</svg>
