<svg width="89" height="78" viewBox="0 0 89 78" fill="none" xmlns="http://www.w3.org/2000/svg">
<path d="M9.91384 31.225L4.63484 33.157C4.25512 33.2959 3.92726 33.5482 3.69564 33.8796C3.46402 34.2111 3.33981 34.6057 3.33984 35.01V70.835C3.3399 71.1284 3.40537 71.418 3.53148 71.6828C3.65759 71.9476 3.84116 72.1811 4.06884 72.366L9.97684 77.166L9.91384 31.225Z" fill="#BEA12D"/>
<path d="M66.9371 32.5249L10.1041 31.186C10.0466 31.1843 9.98942 31.1943 9.9359 31.2153C9.88238 31.2363 9.83362 31.2678 9.79256 31.308C9.75149 31.3483 9.71896 31.3963 9.69689 31.4494C9.67481 31.5025 9.66365 31.5594 9.66408 31.6169V76.7569C9.66356 76.8139 9.67476 76.8703 9.69698 76.9227C9.7192 76.9751 9.75196 77.0224 9.79323 77.0616C9.8345 77.1008 9.8834 77.1311 9.93688 77.1506C9.99035 77.1701 10.0473 77.1784 10.1041 77.175L66.9371 74.2879C67.0391 74.2769 67.1333 74.2277 67.2006 74.1502C67.2679 74.0727 67.3034 73.9726 67.3001 73.87V32.9339C67.304 32.8322 67.2684 32.7329 67.2007 32.6568C67.1331 32.5808 67.0386 32.5329 66.9371 32.5249Z" fill="#F6D046"/>
<path d="M50.7313 72.0081L11.5312 73.7881V34.458L50.7313 35.176V72.0081Z" fill="#B4931D"/>
<g style="mix-blend-mode:overlay" opacity="0.3">
<mask id="mask0_153_2907" style="mask-type:luminance" maskUnits="userSpaceOnUse" x="52" y="49" width="14" height="23">
<path d="M65.7493 49.728H52.9062V71.905H65.7493V49.728Z" fill="white"/>
</mask>
<g mask="url(#mask0_153_2907)">
<path d="M64.9078 49.728L53.7859 49.806C53.5434 49.8172 53.3151 49.9235 53.1505 50.1019C52.986 50.2803 52.8984 50.5165 52.9069 50.759V53.525C52.9025 53.6442 52.9218 53.7631 52.9637 53.8748C53.0057 53.9864 53.0693 54.0886 53.1511 54.1754C53.2329 54.2622 53.3311 54.332 53.4401 54.3805C53.549 54.429 53.6667 54.4553 53.7859 54.458L64.9078 54.29C65.1432 54.2753 65.3635 54.1688 65.5211 53.9934C65.6788 53.818 65.7613 53.5877 65.7509 53.3521V50.6521C65.7562 50.5363 65.7386 50.4206 65.6991 50.3116C65.6596 50.2027 65.5989 50.1026 65.5205 50.0172C65.4422 49.9318 65.3477 49.8627 65.2426 49.814C65.1374 49.7652 65.0237 49.7377 64.9078 49.733" fill="white"/>
<path d="M64.908 55.4312L53.7861 55.6221C53.5433 55.6363 53.3156 55.7447 53.1514 55.9242C52.9873 56.1037 52.8996 56.34 52.907 56.5831V59.3491C52.9021 59.468 52.9211 59.5867 52.9629 59.6981C53.0048 59.8095 53.0685 59.9113 53.1506 59.9976C53.2326 60.0838 53.3311 60.1526 53.4402 60.2C53.5494 60.2473 53.6671 60.2721 53.7861 60.2731L64.908 59.9921C65.1437 59.9739 65.3632 59.8652 65.5204 59.6886C65.6776 59.512 65.7603 59.2814 65.751 59.0452V56.3451C65.7567 56.2296 65.7391 56.1142 65.6996 56.0056C65.6601 55.897 65.5993 55.7974 65.5208 55.7125C65.4423 55.6277 65.3477 55.5594 65.2425 55.5116C65.1372 55.4638 65.0235 55.4374 64.908 55.4341" fill="white"/>
<path d="M64.9082 61.134L53.7862 61.4341C53.5427 61.4513 53.3153 61.5618 53.1515 61.7428C52.9876 61.9238 52.9001 62.161 52.9072 62.405V65.171C52.9021 65.2895 52.921 65.4078 52.9629 65.5188C53.0048 65.6298 53.0687 65.7311 53.1508 65.8167C53.233 65.9022 53.3317 65.9702 53.4409 66.0165C53.5501 66.0628 53.6676 66.0864 53.7862 66.0861L64.9082 65.6931C65.1443 65.6723 65.3634 65.5615 65.5202 65.3838C65.6771 65.2061 65.7598 64.9749 65.7512 64.738V62.0341C65.7568 61.9192 65.7393 61.8043 65.6997 61.6963C65.66 61.5883 65.599 61.4894 65.5204 61.4054C65.4417 61.3214 65.3471 61.2541 65.2419 61.2075C65.1367 61.1609 65.0232 61.1359 64.9082 61.134Z" fill="white"/>
<path d="M64.9082 66.836L53.7862 67.252C53.5423 67.2719 53.3152 67.3845 53.1517 67.5666C52.9882 67.7487 52.9007 67.9864 52.9072 68.231V70.997C52.9017 71.1152 52.9205 71.2332 52.9624 71.3438C53.0042 71.4544 53.0684 71.5553 53.1507 71.6402C53.2331 71.7251 53.3319 71.7921 53.4412 71.8373C53.5505 71.8826 53.6679 71.9049 53.7862 71.903L64.9082 71.397C65.1446 71.3733 65.3632 71.2606 65.5197 71.0818C65.6762 70.9031 65.759 70.6715 65.7512 70.434V67.7341C65.7574 67.6193 65.7403 67.5045 65.7008 67.3965C65.6613 67.2886 65.6002 67.1899 65.5213 67.1063C65.4425 67.0227 65.3476 66.956 65.2421 66.9102C65.1367 66.8645 65.0231 66.8405 64.9082 66.84" fill="white"/>
</g>
</g>
<path opacity="0.613" d="M45.9654 53.6809C45.9654 62.3349 39.2964 69.6199 30.8564 69.9619C22.1704 70.3139 14.9414 63.2179 14.9414 54.1029C14.9414 44.9879 22.1704 37.6949 30.8564 37.8109C39.2964 37.9239 45.9654 45.0279 45.9654 53.6809Z" fill="#3C320E"/>
<path d="M12.2339 32.9479C12.2344 33.0395 12.2166 33.1302 12.1815 33.2147C12.1463 33.2992 12.0946 33.3758 12.0293 33.4399C11.9641 33.5041 11.8866 33.5545 11.8015 33.5882C11.7164 33.6219 11.6254 33.6381 11.5339 33.6359C11.3468 33.631 11.1691 33.5534 11.0384 33.4195C10.9077 33.2856 10.8343 33.106 10.8339 32.919C10.8333 32.8274 10.8511 32.7367 10.8862 32.6522C10.9214 32.5677 10.9731 32.4911 11.0384 32.4269C11.1037 32.3628 11.1811 32.3124 11.2662 32.2787C11.3514 32.245 11.4424 32.2288 11.5339 32.231C11.7209 32.2359 11.8986 32.3136 12.0293 32.4475C12.16 32.5813 12.2334 32.7608 12.2339 32.9479Z" fill="#6A5713"/>
<path d="M66.0748 34.07C66.0787 34.1497 66.0667 34.2294 66.0394 34.3044C66.0121 34.3794 65.9701 34.4481 65.9159 34.5067C65.8617 34.5653 65.7964 34.6125 65.7237 34.6455C65.6511 34.6785 65.5725 34.6967 65.4928 34.699C65.3296 34.6874 65.1775 34.6128 65.0685 34.4909C64.9594 34.369 64.9021 34.2094 64.9088 34.046C64.9049 33.9662 64.917 33.8863 64.9444 33.8112C64.9718 33.736 65.0139 33.6672 65.0683 33.6086C65.1227 33.55 65.1883 33.5028 65.2612 33.4699C65.3341 33.437 65.4128 33.419 65.4928 33.417C65.6555 33.4293 65.8071 33.5042 65.9156 33.626C66.0242 33.7478 66.0812 33.907 66.0748 34.07Z" fill="#D8DEE8"/>
<path d="M12.2338 75.352C12.2323 75.5406 12.1592 75.7217 12.0292 75.8583C11.8992 75.995 11.7221 76.0772 11.5338 76.0881C11.4431 76.0933 11.3523 76.0799 11.2671 76.0485C11.1819 76.0172 11.104 75.9684 11.0383 75.9057C10.9727 75.8429 10.9206 75.7675 10.8855 75.6838C10.8503 75.6 10.8327 75.5099 10.8338 75.4191C10.8355 75.2306 10.9087 75.0496 11.0387 74.913C11.1686 74.7764 11.3455 74.6942 11.5338 74.683C11.6244 74.6778 11.7151 74.6913 11.8002 74.7226C11.8854 74.7539 11.9632 74.8025 12.0289 74.8652C12.0945 74.9278 12.1466 75.0032 12.1818 75.0868C12.2171 75.1705 12.2348 75.2613 12.2338 75.352Z" fill="#6A5713"/>
<path d="M66.0752 72.7681C66.0806 72.9325 66.0236 73.0927 65.9156 73.2168C65.8076 73.3409 65.6567 73.4197 65.4931 73.437C65.4138 73.4377 65.3351 73.4221 65.262 73.3911C65.189 73.3602 65.1231 73.3145 65.0683 73.2571C65.0136 73.1996 64.9712 73.1316 64.9438 73.0571C64.9164 72.9826 64.9046 72.9032 64.9091 72.824C64.9035 72.6592 64.9606 72.4985 65.0691 72.3743C65.1775 72.2501 65.3291 72.1717 65.4931 72.155C65.5723 72.1546 65.6508 72.1704 65.7236 72.2014C65.7964 72.2325 65.8622 72.2783 65.9167 72.3357C65.9712 72.3931 66.0135 72.461 66.0407 72.5354C66.068 72.6098 66.0797 72.689 66.0752 72.7681Z" fill="#D8DEE8"/>
<g style="mix-blend-mode:soft-light">
<mask id="mask1_153_2907" style="mask-type:luminance" maskUnits="userSpaceOnUse" x="26" y="38" width="11" height="17">
<path d="M36.9841 38.7161H26.5781V54.7911H36.9841V38.7161Z" fill="white"/>
</mask>
<g mask="url(#mask1_153_2907)">
<path d="M36.9827 44.1271C36.9827 47.0811 34.6827 54.7482 31.8247 54.7912C28.9377 54.8352 26.5767 47.1042 26.5767 44.0982C26.555 43.4 26.674 42.7046 26.9267 42.0534C27.1794 41.4022 27.5605 40.8085 28.0474 40.3076C28.5342 39.8068 29.117 39.4092 29.7607 39.1382C30.4045 38.8672 31.0963 38.7285 31.7947 38.7305C32.4932 38.7324 33.1842 38.875 33.8264 39.1496C34.4687 39.4241 35.0491 39.825 35.5332 40.3285C36.0173 40.8321 36.3951 41.4279 36.6441 42.0805C36.8931 42.7331 37.0083 43.4291 36.9827 44.1271Z" fill="#F6D046"/>
</g>
</g>
<g style="mix-blend-mode:soft-light">
<mask id="mask2_153_2907" style="mask-type:luminance" maskUnits="userSpaceOnUse" x="17" y="53" width="27" height="13">
<path d="M43.47 53.0171H17.793V65.5061H43.47V53.0171Z" fill="white"/>
</mask>
<g mask="url(#mask2_153_2907)">
<path d="M35.7775 64.3002C33.3585 62.8232 28.2505 56.8551 29.7635 54.2831C31.2765 51.7111 38.7105 53.5931 41.0855 55.0951C42.2322 55.8656 43.0413 57.0449 43.3476 58.3921C43.654 59.7392 43.4343 61.1525 42.7335 62.3431C42.4157 62.9388 41.9806 63.464 41.4546 63.8872C40.9285 64.3104 40.3223 64.6227 39.6724 64.8055C39.0225 64.9884 38.3423 65.0378 37.6728 64.9509C37.0033 64.8641 36.3582 64.6428 35.7765 64.3002" fill="#D1AE30"/>
<path d="M25.9627 64.6072C28.4417 62.9632 33.5466 56.7571 32.0526 54.2501C30.5586 51.7431 22.9006 53.8032 20.3756 55.4242C19.1503 56.2121 18.2797 57.4458 17.9481 58.8642C17.6164 60.2827 17.8497 61.7747 18.5986 63.0241C18.9664 63.6248 19.4524 64.1444 20.0271 64.5516C20.6018 64.9588 21.2532 65.245 21.9418 65.3928C22.6304 65.5406 23.3419 65.5471 24.0331 65.4117C24.7243 65.2763 25.3807 65.0018 25.9627 64.6051" fill="#D1AE30"/>
</g>
</g>
<path d="M36.1109 53.8259C36.1275 55.0044 35.684 56.1428 34.8745 56.9994C34.065 57.8559 32.9533 58.3631 31.7758 58.413C31.1913 58.4164 30.612 58.3028 30.0722 58.0786C29.5323 57.8544 29.0428 57.5243 28.6326 57.1078C28.2225 56.6913 27.9 56.1968 27.6841 55.6536C27.4682 55.1103 27.3634 54.5294 27.3759 53.9449C27.3578 52.755 27.8097 51.606 28.6334 50.7471C29.4571 49.8882 30.5862 49.3886 31.7758 49.3569C32.3548 49.3629 32.9267 49.4836 33.4588 49.7119C33.9908 49.9403 34.4723 50.2718 34.8754 50.6874C35.2785 51.1029 35.5952 51.5943 35.8073 52.1331C36.0193 52.6718 36.1225 53.2471 36.1109 53.8259Z" fill="#D0CEC6"/>
<path d="M50.2231 37.1539L11.5352 36.554V35.542L50.2231 36.209V37.1539Z" fill="#79671F"/>
<path d="M50.2231 39.571L11.5352 39.139V38.123L50.2231 38.623V39.571Z" fill="#79671F"/>
<path d="M51.1388 42.11L11.5388 41.8199V40.705L51.1388 41.067V42.11Z" fill="#79671F"/>
<path d="M50.2231 44.4L11.5352 44.3051V43.29L50.2231 43.451V44.4Z" fill="#79671F"/>
<path d="M50.2231 46.8148L11.5352 46.8889V45.8679L50.2231 45.8608V46.8148Z" fill="#79671F"/>
<path d="M50.2231 49.23L11.5352 49.472V48.4561L50.2231 48.28V49.23Z" fill="#79671F"/>
<path d="M50.2231 51.646L11.5352 52.057V51.041L50.2231 50.697V51.646Z" fill="#79671F"/>
<path d="M50.2231 54.061L11.5352 54.641V53.6261L50.2231 53.113V54.061Z" fill="#79671F"/>
<path d="M50.2231 56.4749L11.5352 57.2229V56.2079L50.2231 55.5259V56.4749Z" fill="#79671F"/>
<path d="M50.2231 58.89L11.5352 59.807V58.791L50.2231 57.9409V58.89Z" fill="#79671F"/>
<path d="M50.2231 61.3051L11.5352 62.39V61.374L50.2231 60.355V61.3051Z" fill="#79671F"/>
<path d="M50.2231 63.7209L11.5352 64.974V63.959L50.2231 62.772V63.7209Z" fill="#79671F"/>
<path d="M50.2231 66.136L11.5352 67.558V66.542L50.2231 65.186V66.136Z" fill="#79671F"/>
<path d="M50.2231 68.5511L11.5352 70.1421V69.1271L50.2231 67.6021V68.5511Z" fill="#79671F"/>
<path d="M50.2231 70.967L11.5352 72.7261V71.7109L50.2231 70.0181V70.967Z" fill="#79671F"/>
<g style="mix-blend-mode:soft-light" opacity="0.3">
<mask id="mask3_153_2907" style="mask-type:luminance" maskUnits="userSpaceOnUse" x="9" y="31" width="53" height="47">
<path d="M61.2841 31.186H9.66211V77.177H61.2841V31.186Z" fill="white"/>
</mask>
<g mask="url(#mask3_153_2907)">
<path d="M-0.0326214 82.2249C-3.03262 77.2979 0.567381 73.152 -1.99362 67.62C-3.57462 64.204 -6.81461 61.712 -11.3936 59.971L-26.5816 59.6129C-26.6382 59.6115 -26.6945 59.6214 -26.7471 59.642C-26.7998 59.6627 -26.8478 59.6937 -26.8882 59.7332C-26.9287 59.7728 -26.9608 59.82 -26.9827 59.8722C-27.0046 59.9244 -27.0158 59.9804 -27.0156 60.0369V105.195C-27.0157 105.249 -27.0046 105.303 -26.9831 105.354C-26.9616 105.404 -26.9301 105.449 -26.8905 105.486C-26.8509 105.524 -26.804 105.553 -26.7528 105.571C-26.7016 105.59 -26.6471 105.598 -26.5926 105.595L24.6074 102.995C24.5144 96.826 22.7854 93.472 20.9424 91.495C14.9704 85.073 4.38036 89.479 -0.0306377 82.223" fill="white"/>
</g>
</g>
<path fill-rule="evenodd" clip-rule="evenodd" d="M73.7462 77.5961H68.9282C64.8872 77.5961 59.6562 74.7961 59.6562 71.6111V59.5181H87.8362V71.6111C87.8362 74.7981 82.6052 77.5961 78.5652 77.5961H73.7462Z" fill="#EA9C9C"/>
<path fill-rule="evenodd" clip-rule="evenodd" d="M71.8503 77.5961H68.9283C64.8873 77.5961 59.6562 74.7961 59.6562 71.6111V59.5181H65.7563V71.5701C65.7563 74.9571 69.9503 77.1481 71.8563 77.5961" fill="#956161"/>
<path opacity="0.381" fill-rule="evenodd" clip-rule="evenodd" d="M85.9399 59.5139H87.8398V71.6069C87.8398 74.7939 82.6098 77.5919 78.5678 77.5919H78.551C81.985 77.2029 85.9428 74.2289 85.9428 71.5659L85.9399 59.5139Z" fill="#956161"/>
<path fill-rule="evenodd" clip-rule="evenodd" d="M87.8352 59.4739V47.3809C87.8352 43.9879 84.2772 42.1499 80.5022 41.2259C76.0409 40.3935 71.4643 40.3915 67.0022 41.2199C63.2262 42.1509 59.6562 43.9889 59.6562 47.3809V59.4739H87.8352Z" fill="#EA9C9C"/>
<path opacity="0.381" fill-rule="evenodd" clip-rule="evenodd" d="M87.8381 59.4729V47.3799C87.8381 43.9869 84.2801 42.1489 80.5051 41.2249H78.4492C80.1877 41.408 81.8679 41.9559 83.3801 42.8329C84.1557 43.3136 84.7972 43.9824 85.2451 44.7773C85.693 45.5723 85.9328 46.4675 85.9421 47.3799V59.4729H87.8381Z" fill="#956161"/>
<path fill-rule="evenodd" clip-rule="evenodd" d="M65.7538 59.473V47.3799C65.7538 43.9929 68.7169 42.1489 71.8539 41.2249H66.9949C63.2249 42.1499 59.6619 43.9929 59.6619 47.3799V59.473H65.7538Z" fill="#956161"/>
<path d="M74.5179 31.712H72.9749V33.62H74.5179V31.712Z" fill="#163D64"/>
<path d="M74.8136 32.3721H72.6816V35.2581H74.8136V32.3721Z" fill="#808080"/>
<path d="M74.4845 32.3721H73.3945V35.2581H74.4845V32.3721Z" fill="#C7C7C7"/>
<path d="M74.8124 32.3721H74.4824V35.2581H74.8124V32.3721Z" fill="#ECECEC"/>
<path fill-rule="evenodd" clip-rule="evenodd" d="M72.6619 37.791H74.835V40.0121C74.835 40.1309 74.882 40.2448 74.9661 40.3289C75.0501 40.4129 75.1641 40.4601 75.283 40.4601H72.2148C72.3332 40.459 72.4466 40.4115 72.5303 40.3276C72.6139 40.2438 72.6611 40.1305 72.6619 40.0121V37.791Z" fill="#956161"/>
<path d="M87.8353 59.4729H59.6562V60.2209H87.8353V59.4729Z" fill="#163D64"/>
<path fill-rule="evenodd" clip-rule="evenodd" d="M59.6593 59.002H87.8384C87.8953 59.0017 87.95 59.0237 87.9907 59.0634C88.0315 59.103 88.055 59.1571 88.0563 59.214V59.726C88.0555 59.7835 88.0323 59.8386 87.9916 59.8793C87.9509 59.92 87.896 59.9432 87.8384 59.944H59.6593C59.6024 59.9427 59.5484 59.9191 59.5088 59.8783C59.4691 59.8375 59.447 59.7828 59.4473 59.726V59.214C59.4473 59.1578 59.4696 59.1038 59.5094 59.0641C59.5492 59.0243 59.6031 59.002 59.6593 59.002Z" fill="#6C4949"/>
<path fill-rule="evenodd" clip-rule="evenodd" d="M83.4724 30.157H79.2485C76.5575 30.157 76.4685 32.012 76.4985 33.844C76.688 36.3363 76.3981 38.8418 75.6445 41.225H80.5034L81.6104 37.102H78.8303C78.7457 37.1062 78.6615 37.0893 78.585 37.053C78.5084 37.0166 78.4421 36.9619 78.3918 36.8937C78.3416 36.8254 78.3091 36.7458 78.2971 36.6619C78.2852 36.5781 78.2943 36.4925 78.3235 36.413L79.0715 33.613C79.1287 33.4215 79.2437 33.2524 79.4009 33.129C79.5581 33.0056 79.7499 32.934 79.9495 32.924H82.7305L83.4724 30.157Z" fill="#402E2E"/>
<path d="M80.5042 40.394H66.9922V41.225H80.5042V40.394Z" fill="#956161"/>
<path d="M80.5042 40.813H66.9922V41.225H80.5042V40.813Z" fill="#163D64"/>
<path fill-rule="evenodd" clip-rule="evenodd" d="M83.4712 30.157H82.0571C79.3651 30.157 79.2712 32.012 79.3062 33.844C79.4942 36.3366 79.2027 38.8422 78.4473 41.225H80.5032L81.6101 37.102C81.5278 37.1019 81.4467 37.0818 81.3738 37.0436C81.3009 37.0053 81.2383 36.95 81.1914 36.8823C81.1445 36.8146 81.1149 36.7365 81.1047 36.6548C81.0946 36.5731 81.1044 36.4901 81.1333 36.413L81.8811 33.613C81.9368 33.4262 82.0474 33.2605 82.1987 33.1376C82.35 33.0147 82.535 32.9402 82.7292 32.924L83.4712 30.157Z" fill="#EA9C9C"/>
<path fill-rule="evenodd" clip-rule="evenodd" d="M64.0273 30.157H65.4353C68.1353 30.157 68.2213 32.012 68.1923 33.844C67.9999 36.3363 68.2899 38.8424 69.0463 41.225H66.9902L65.8903 37.102C65.9724 37.1012 66.0531 37.0807 66.1256 37.0423C66.1982 37.0038 66.2605 36.9485 66.3073 36.881C66.354 36.8135 66.3838 36.7357 66.3943 36.6543C66.4047 36.5729 66.3955 36.4901 66.3673 36.413L65.6133 33.613C65.5596 33.4261 65.4502 33.2601 65.2998 33.137C65.1494 33.0139 64.965 32.9396 64.7712 32.924L64.0273 30.157Z" fill="#402E2E"/>
<path fill-rule="evenodd" clip-rule="evenodd" d="M64.0273 30.157H68.2452C70.9452 30.157 71.0313 32.012 71.0023 33.844C70.8098 36.3364 71.0998 38.8424 71.8563 41.225H66.9913L65.8912 37.102H68.6713C68.7557 37.1057 68.8399 37.0885 68.9161 37.052C68.9924 37.0155 69.0584 36.9608 69.1085 36.8927C69.1586 36.8246 69.1912 36.7452 69.2034 36.6616C69.2155 36.5779 69.207 36.4925 69.1783 36.413L68.4243 33.613C68.3684 33.4219 68.2544 33.2529 68.0981 33.1295C67.9419 33.006 67.7511 32.9342 67.5522 32.924H64.7723L64.0273 30.157Z" fill="#EA9C9C"/>
<path fill-rule="evenodd" clip-rule="evenodd" d="M72.6816 34.6922H74.8147C74.8388 34.6916 74.8621 34.7005 74.8796 34.7169C74.8972 34.7334 74.9077 34.756 74.9087 34.7801V37.572H72.5938V34.7801C72.5943 34.7569 72.6035 34.7348 72.6199 34.7184C72.6363 34.702 72.6585 34.6927 72.6816 34.6922Z" fill="#808080"/>
<path d="M74.7488 37.573H72.7518V37.791H74.7488V37.573Z" fill="#163D64"/>
<path d="M74.5474 34.6929H73.3574V37.5729H74.5474V34.6929Z" fill="#C7C7C7"/>
<path fill-rule="evenodd" clip-rule="evenodd" d="M74.813 34.6922H74.5469V37.572H74.906V34.7801C74.905 34.756 74.8945 34.7334 74.877 34.7169C74.8594 34.7005 74.8371 34.6916 74.813 34.6922Z" fill="#ECECEC"/>
<path fill-rule="evenodd" clip-rule="evenodd" d="M73.0234 34.6922H73.7014C73.6568 34.6915 73.6124 34.6996 73.571 34.7162C73.5296 34.7328 73.492 34.7575 73.4602 34.7887C73.4284 34.82 73.403 34.8573 73.3857 34.8984C73.3684 34.9395 73.3595 34.9835 73.3594 35.0281C73.3599 34.9838 73.3517 34.94 73.335 34.899C73.3183 34.858 73.2935 34.8207 73.2622 34.7893C73.2309 34.758 73.1936 34.7333 73.1526 34.7166C73.1116 34.6999 73.0677 34.6916 73.0234 34.6922Z" fill="white"/>
<path fill-rule="evenodd" clip-rule="evenodd" d="M74.2129 34.6922H74.8127C74.8187 34.6922 74.8418 34.6921 74.8188 34.6981C74.7432 34.7147 74.6754 34.7563 74.6262 34.8162C74.5771 34.876 74.5494 34.9506 74.5479 35.0281C74.5484 34.9839 74.5401 34.94 74.5234 34.8991C74.5068 34.8581 74.4821 34.821 74.4509 34.7897C74.4197 34.7584 74.3827 34.7337 74.3418 34.7169C74.3009 34.7002 74.2571 34.6917 74.2129 34.6922Z" fill="white"/>
<path fill-rule="evenodd" clip-rule="evenodd" d="M74.1182 35.676H74.572C74.7142 35.676 74.8507 35.7325 74.9512 35.833C75.0517 35.9335 75.1082 36.0699 75.1082 36.212C75.1082 36.3542 75.0517 36.4905 74.9512 36.5911C74.8507 36.6916 74.7142 36.748 74.572 36.748H74.1182C73.976 36.748 73.8395 36.6916 73.739 36.5911C73.6385 36.4905 73.582 36.3542 73.582 36.212C73.582 36.0699 73.6385 35.9335 73.739 35.833C73.8395 35.7325 73.976 35.676 74.1182 35.676Z" fill="#808080"/>
<path fill-rule="evenodd" clip-rule="evenodd" d="M74.5769 36.742C74.6826 36.7426 74.7862 36.7118 74.8743 36.6534C74.9624 36.5951 75.0311 36.5119 75.0718 36.4144C75.1125 36.3169 75.1233 36.2095 75.1028 36.1058C75.0823 36.0021 75.0315 35.9069 74.9568 35.8321C74.8821 35.7574 74.7868 35.7066 74.6831 35.6861C74.5794 35.6657 74.472 35.6764 74.3745 35.7171C74.277 35.7579 74.1938 35.8267 74.1355 35.9148C74.0772 36.0029 74.0463 36.1063 74.0469 36.212C74.0474 36.3524 74.1036 36.487 74.2029 36.5863C74.3022 36.6856 74.4365 36.7415 74.5769 36.742Z" fill="white"/>
<path fill-rule="evenodd" clip-rule="evenodd" d="M74.5779 36.536C74.6636 36.5352 74.7453 36.5008 74.8059 36.4402C74.8665 36.3796 74.9011 36.2977 74.9019 36.212C74.9019 36.1261 74.8676 36.0437 74.8069 35.9829C74.7461 35.9221 74.6638 35.8879 74.5779 35.8879C74.492 35.8879 74.4094 35.9221 74.3486 35.9829C74.2879 36.0437 74.2539 36.1261 74.2539 36.212C74.2547 36.2977 74.289 36.3796 74.3496 36.4402C74.4102 36.5008 74.4922 36.5352 74.5779 36.536Z" fill="#5D5D5D"/>
<path fill-rule="evenodd" clip-rule="evenodd" d="M71.7571 31.03H75.7451C75.7688 31.0303 75.7922 31.0352 75.814 31.0446C75.8357 31.0539 75.8554 31.0675 75.8718 31.0845C75.8883 31.1016 75.9013 31.1217 75.9099 31.1437C75.9185 31.1658 75.9226 31.1893 75.9221 31.213V31.602C75.9226 31.6257 75.9185 31.6492 75.9099 31.6713C75.9013 31.6933 75.8883 31.7134 75.8718 31.7305C75.8554 31.7475 75.8357 31.7611 75.814 31.7704C75.7922 31.7798 75.7688 31.7848 75.7451 31.785H71.7571C71.7086 31.7848 71.6624 31.7654 71.6282 31.7311C71.5939 31.6969 71.5745 31.6504 71.5742 31.602V31.213C71.5745 31.1646 71.5939 31.1182 71.6282 31.0839C71.6624 31.0497 71.7086 31.0303 71.7571 31.03Z" fill="#2C6192"/>
<path fill-rule="evenodd" clip-rule="evenodd" d="M71.8833 31.03H75.6123C75.6622 31.0306 75.7099 31.0506 75.7451 31.086C75.7803 31.1214 75.8 31.1691 75.8003 31.219C75.8006 31.2438 75.796 31.2683 75.7866 31.2913C75.7773 31.3142 75.7634 31.335 75.7458 31.3525C75.7283 31.3701 75.7075 31.3839 75.6846 31.3932C75.6616 31.4026 75.6371 31.4073 75.6123 31.407H71.8833C71.8336 31.4065 71.7861 31.3865 71.751 31.3514C71.7158 31.3162 71.6958 31.2687 71.6953 31.219C71.6966 31.1694 71.7167 31.1222 71.7517 31.0871C71.7867 31.0519 71.8337 31.0315 71.8833 31.03Z" fill="#956161"/>
<path fill-rule="evenodd" clip-rule="evenodd" d="M65.8906 37.0969L66.9906 41.22H68.8577L68.7576 40.849L68.6337 40.39L67.7496 37.0969H65.8906Z" fill="#956161"/>
<path fill-rule="evenodd" clip-rule="evenodd" d="M64.0273 30.157L64.7712 32.928H66.6323L65.8962 30.177C65.7549 30.165 65.6016 30.159 65.4363 30.159L64.0273 30.157Z" fill="#956161"/>
<path fill-rule="evenodd" clip-rule="evenodd" d="M72.6633 37.791V40.0121C72.6635 40.0894 72.6435 40.1654 72.6052 40.2325C72.567 40.2997 72.5118 40.3557 72.4453 40.395H73.2583C73.3481 40.2882 73.3943 40.1515 73.3875 40.0121V37.791H72.6633Z" fill="#2C6192"/>
<mask id="mask4_153_2907" style="mask-type:luminance" maskUnits="userSpaceOnUse" x="55" y="74" width="4" height="4">
<path d="M56.8301 74.2871C56.7957 74.8158 56.7222 75.3413 56.6102 75.8591C56.4762 76.2701 56.2321 76.314 55.8511 76.593C55.4701 76.872 55.6352 77.103 55.6352 77.103C55.6352 77.103 57.4701 76.9171 57.6061 76.6121C57.7061 76.3881 57.9341 75.5291 58.0491 75.0891C58.0708 75.0057 58.0752 74.9189 58.0619 74.8337C58.0487 74.7486 58.0181 74.6669 57.9721 74.594L57.6412 74.0652L56.8301 74.2871Z" fill="white"/>
</mask>
<g mask="url(#mask4_153_2907)">
<path d="M58.0752 73.8535L55.2266 74.0842L55.488 77.3127L58.3367 77.082L58.0752 73.8535Z" fill="url(#paint0_linear_153_2907)"/>
</g>
<mask id="mask5_153_2907" style="mask-type:luminance" maskUnits="userSpaceOnUse" x="56" y="72" width="2" height="3">
<path d="M57.6907 74.3229L57.7447 74.268L57.6907 74.321M56.2597 72.7211C56.5344 73.3343 56.7728 73.9628 56.9737 74.6039C56.9737 74.6039 57.1647 74.848 57.5267 74.487L57.6907 74.3229L57.6187 72.5661L56.2597 72.7211Z" fill="white"/>
</mask>
<g mask="url(#mask5_153_2907)">
<path d="M57.7503 72.5424L56.2285 72.5671L56.2658 74.8728L57.7876 74.8481L57.7503 72.5424Z" fill="url(#paint1_linear_153_2907)"/>
</g>
<mask id="mask6_153_2907" style="mask-type:luminance" maskUnits="userSpaceOnUse" x="43" y="74" width="5" height="2">
<path d="M46.1958 74.413C46.1958 74.413 45.0958 74.813 44.7268 74.965C44.3578 75.117 43.8359 75.4901 43.8839 75.6971C43.9319 75.9041 47.0219 75.5121 47.0159 75.2311C46.9725 74.8751 46.9058 74.5224 46.816 74.1752L46.1958 74.413Z" fill="white"/>
</mask>
<g mask="url(#mask6_153_2907)">
<path d="M46.7946 73.3548L43.3909 74.298L44.0628 76.7227L47.4665 75.7794L46.7946 73.3548Z" fill="url(#paint2_linear_153_2907)"/>
</g>
<mask id="mask7_153_2907" style="mask-type:luminance" maskUnits="userSpaceOnUse" x="46" y="73" width="1" height="2">
<path d="M46.0037 73.4481L46.1807 74.4171C46.2851 74.4745 46.4024 74.5045 46.5216 74.5045C46.6408 74.5045 46.7582 74.4745 46.8627 74.4171L46.9357 73.3421L46.0037 73.4481Z" fill="white"/>
</mask>
<g mask="url(#mask7_153_2907)">
<path d="M46.0035 73.334L45.988 74.6299L46.936 74.6412L46.9514 73.3453L46.0035 73.334Z" fill="url(#paint3_linear_153_2907)"/>
</g>
<mask id="mask8_153_2907" style="mask-type:luminance" maskUnits="userSpaceOnUse" x="45" y="47" width="4" height="27">
<path d="M46.3395 47.578C45.4188 49.3393 45.0776 51.3463 45.3645 53.313C45.8025 54.751 46.6874 55.152 46.7594 56.625C46.8294 58.083 46.0034 58.525 45.5974 60.286C45.3164 61.503 45.5024 62.586 45.8874 64.703C46.6624 68.966 47.8064 70.198 47.0494 71.677C46.7208 72.2781 46.207 72.7571 45.5845 73.043C45.6265 73.305 45.6694 73.5679 45.7124 73.8259L47.1654 73.642C47.9922 71.6673 48.3742 69.5349 48.2844 67.396C48.1454 64.668 47.2925 64.3729 47.1355 61.7639C46.9355 58.3819 48.2764 57.364 48.7054 53.245C48.9105 51.2227 48.832 49.1815 48.4724 47.1809L46.3385 47.5809" fill="white"/>
</mask>
<g mask="url(#mask8_153_2907)">
<path d="M48.9017 47.1809H45.0547V73.8259H48.9017V47.1809Z" fill="url(#paint4_linear_153_2907)"/>
</g>
<mask id="mask9_153_2907" style="mask-type:luminance" maskUnits="userSpaceOnUse" x="44" y="46" width="15" height="28">
<path d="M44.463 48.3489C49.7266 56.0082 53.7068 64.4742 56.2471 73.4139C56.5084 73.5346 56.7985 73.5789 57.084 73.5419C57.4507 73.4885 57.7864 73.3063 58.031 73.028C58.348 71.0196 58.4153 68.9798 58.2311 66.955C58.113 65.4066 57.8228 63.8761 57.366 62.392C56.666 60.168 56.1961 60.0429 55.2891 57.6919C54.3491 55.2489 54.574 54.6389 53.671 51.5809C53.1281 49.7489 52.4558 47.9577 51.6591 46.2209L44.459 48.3519" fill="white"/>
</mask>
<g mask="url(#mask9_153_2907)">
<path d="M58.4214 46.185L44.3984 46.2188L44.4645 73.6287L58.4874 73.595L58.4214 46.185Z" fill="url(#paint5_linear_153_2907)"/>
</g>
<mask id="mask10_153_2907" style="mask-type:luminance" maskUnits="userSpaceOnUse" x="36" y="32" width="9" height="15">
<path d="M43.3936 32.243C41.7846 32.337 36.5525 36.402 36.5795 40.943C36.5026 42.6818 36.5809 44.4241 36.8135 46.149L37.8926 46.763C38.0339 45.6021 38.3814 44.4757 38.9187 43.437C39.4877 41.849 40.1546 39.992 41.7506 39.47C42.2693 39.3098 42.8208 39.2881 43.3505 39.407C43.3505 39.407 44.9776 32.241 43.4206 32.242H43.3896" fill="white"/>
</mask>
<g mask="url(#mask10_153_2907)">
<path d="M44.9688 31.9548L36.0607 32.258L36.5639 47.0432L45.472 46.74L44.9688 31.9548Z" fill="url(#paint6_linear_153_2907)"/>
</g>
<mask id="mask11_153_2907" style="mask-type:luminance" maskUnits="userSpaceOnUse" x="43" y="47" width="6" height="27">
<path d="M44.525 47.916L43.625 50.182C43.669 54.353 43.887 58.8739 44.366 63.6899C44.722 67.2729 45.186 70.657 45.717 73.825L47.1699 73.641C47.9965 71.6663 48.3786 69.5339 48.2889 67.395C48.1509 64.667 47.297 64.3719 47.14 61.7629C46.94 58.3809 48.281 57.363 48.71 53.244C48.9155 51.2217 48.8375 49.1806 48.478 47.1799L44.526 47.9149" fill="white"/>
</mask>
<g mask="url(#mask11_153_2907)">
<path d="M43.6278 47.03L42.8594 73.804L48.8999 73.9774L49.6683 47.2034L43.6278 47.03Z" fill="url(#paint7_linear_153_2907)"/>
</g>
<mask id="mask12_153_2907" style="mask-type:luminance" maskUnits="userSpaceOnUse" x="40" y="31" width="16" height="22">
<path d="M46.6064 31.8649C44.4914 31.9229 43.4185 31.9649 42.6715 32.4829C41.2245 33.4899 40.9425 35.3579 40.7715 36.4599C40.5591 38.5531 40.858 40.6666 41.6424 42.6189C42.5784 45.5819 43.3044 45.8289 43.2844 47.6629C43.2674 49.2819 42.6904 50.1509 43.2694 50.9629C43.7014 51.5629 44.4694 51.7039 46.2364 51.8129C50.7364 52.0919 52.9925 52.2319 53.6305 51.0579C53.8955 50.5709 53.7304 50.1899 53.4154 48.6759C52.9672 46.8343 52.703 44.9527 52.6264 43.0589C52.7264 39.4719 55.6045 38.8809 55.1834 36.2309C54.7704 33.6309 51.6834 32.2569 51.5384 32.1929C50.6672 31.8882 49.7434 31.7627 48.8225 31.8239C48.2035 31.8239 47.4754 31.8439 46.6024 31.8679" fill="white"/>
</mask>
<g mask="url(#mask12_153_2907)">
<path d="M55.5922 31.3059L39.7363 31.8449L40.4468 52.7438L56.3026 52.2048L55.5922 31.3059Z" fill="url(#paint8_linear_153_2907)"/>
</g>
<mask id="mask13_153_2907" style="mask-type:luminance" maskUnits="userSpaceOnUse" x="43" y="34" width="13" height="18">
<path d="M49.4347 42.734C50.0307 43.6207 50.5553 44.5532 51.0037 45.5229C51.1347 45.8789 52.0666 48.4129 51.1776 49.1229C50.8626 49.3759 50.5357 49.223 50.0247 49.074C49.627 48.9494 49.2124 48.8873 48.7957 48.89C46.4957 48.915 45.5646 50.922 44.0306 50.517C43.6397 50.4027 43.2916 50.1746 43.0306 49.8619C42.9699 50.2436 43.0576 50.634 43.2756 50.953C43.7076 51.553 44.4757 51.694 46.2427 51.803C50.7427 52.082 52.9986 52.222 53.6366 51.048C53.9016 50.561 53.7366 50.18 53.4216 48.667C52.9733 46.8254 52.7091 44.9438 52.6327 43.0499C52.7327 39.4629 55.6097 38.8719 55.1897 36.2219C55.0725 35.548 54.7904 34.9136 54.3687 34.375C50.8047 36.161 48.6687 40.599 49.4367 42.73" fill="white"/>
</mask>
<g mask="url(#mask13_153_2907)">
<path d="M51.4885 28.4658L34.6251 40.2119L47.116 58.1445L63.9793 46.3984L51.4885 28.4658Z" fill="url(#paint9_linear_153_2907)"/>
</g>
<mask id="mask14_153_2907" style="mask-type:luminance" maskUnits="userSpaceOnUse" x="50" y="31" width="10" height="15">
<path d="M50.8121 35.7031C50.9212 36.544 51.1725 37.3603 51.5552 38.1171C52.8292 40.6171 54.9351 40.9631 54.9851 42.5281C54.9732 43.1651 54.7092 43.7713 54.2511 44.2141L52.9021 45.9811C55.7771 46.1531 58.3161 44.9081 59.2021 42.8811C60.2681 40.4321 58.4951 37.8321 57.5431 36.5121C55.9167 34.3313 53.6223 32.7416 51.0091 31.9851C50.7369 33.2045 50.6723 34.4612 50.8181 35.7021" fill="white"/>
</mask>
<g mask="url(#mask14_153_2907)">
<path d="M60.2505 31.6601L50.1953 32.002L50.6874 46.4776L60.7426 46.1358L60.2505 31.6601Z" fill="url(#paint10_linear_153_2907)"/>
</g>
<mask id="mask15_153_2907" style="mask-type:luminance" maskUnits="userSpaceOnUse" x="44" y="29" width="5" height="4">
<path d="M45.6077 30.336C45.7327 30.775 45.5207 31.78 45.0327 32.005C44.5447 32.23 43.8897 32.262 44.2737 32.5C45.2919 32.7242 46.3423 32.7612 47.3737 32.609C48.0737 32.482 48.7438 32.066 48.4898 31.962C48.2358 31.858 47.0057 31.608 46.7327 31.074C46.5319 30.6293 46.3973 30.1577 46.3328 29.674C46.3328 29.674 45.4837 29.899 45.6077 30.338" fill="white"/>
</mask>
<g mask="url(#mask15_153_2907)">
<path d="M48.617 28.8864L43.3944 29.753L44.0197 33.5215L49.2423 32.6549L48.617 28.8864Z" fill="url(#paint11_linear_153_2907)"/>
</g>
<mask id="mask16_153_2907" style="mask-type:luminance" maskUnits="userSpaceOnUse" x="44" y="27" width="4" height="4">
<path d="M45.5985 27.5511C45.3439 27.6758 45.1412 27.8861 45.026 28.1452C44.9108 28.4042 44.8905 28.6955 44.9685 28.9681C45.0185 29.0901 45.0685 29.1281 45.4685 29.4601C46.3685 30.2111 46.4194 30.2941 46.5904 30.2871C46.847 30.235 47.0751 30.0891 47.2298 29.878C47.3846 29.6668 47.4551 29.4055 47.4275 29.1451C47.3675 28.9341 47.1674 28.7961 46.8464 28.5741C46.4564 28.3051 46.2585 28.3041 46.1675 28.0821C46.0675 27.8451 46.2195 27.6581 46.0985 27.5401C46.0467 27.4965 45.98 27.4746 45.9125 27.4791C45.8038 27.4841 45.6968 27.5081 45.5964 27.5501" fill="white"/>
</mask>
<g mask="url(#mask16_153_2907)">
<path d="M47.1788 26.5316L43.8085 27.858L45.1407 31.2432L48.511 29.9168L47.1788 26.5316Z" fill="url(#paint12_linear_153_2907)"/>
</g>
<mask id="mask17_153_2907" style="mask-type:luminance" maskUnits="userSpaceOnUse" x="45" y="29" width="2" height="2">
<path d="M45.4597 29.1839C45.0847 29.4109 45.0467 30.6469 45.5907 30.7349C45.7702 30.7609 45.9532 30.74 46.1222 30.6741C46.2911 30.6082 46.4402 30.4996 46.5547 30.3589C46.8547 30.2829 47.0016 30.1159 46.9386 29.9689C46.9242 29.9374 46.9014 29.9104 46.8727 29.8909C46.8167 29.8689 46.7554 29.8641 46.6968 29.8773C46.6381 29.8905 46.5848 29.921 46.5437 29.9649C46.6857 29.6159 46.6506 29.4789 46.5926 29.4189C46.5346 29.3589 46.4927 29.3849 46.3297 29.3249C46.1667 29.2649 46.1167 29.2089 46.0067 29.1669C45.9219 29.1353 45.8321 29.1194 45.7417 29.1199C45.6436 29.1168 45.5465 29.1392 45.4597 29.1849" fill="white"/>
</mask>
<g mask="url(#mask17_153_2907)">
<path d="M45.2918 28.4721L44.4805 30.619L46.7582 31.4797L47.5695 29.3329L45.2918 28.4721Z" fill="url(#paint13_linear_153_2907)"/>
</g>
<mask id="mask18_153_2907" style="mask-type:luminance" maskUnits="userSpaceOnUse" x="40" y="36" width="14" height="17">
<path d="M40.7635 39.1279C40.4855 41.1079 43.0235 46.0369 43.0185 47.4189C43.0135 48.8009 42.6825 49.29 43.0185 50.931C43.3545 52.572 50.8865 52.145 50.8865 52.145C53.1865 52.539 54.2665 51.226 53.9385 50.209C53.6105 49.192 52.8885 42.136 52.8885 42.136C52.1335 41.545 50.3445 38.31 49.8365 37.542C49.5425 37.098 47.7145 37.142 45.8815 37.192C44.7382 37.2678 43.5903 37.2383 42.4524 37.104C42.1667 37.0351 41.8751 36.9939 41.5815 36.981C40.8055 36.981 40.9825 37.5709 40.7635 39.1279Z" fill="white"/>
</mask>
<g mask="url(#mask18_153_2907)">
<path d="M40.4956 36.5845L40.0371 52.5579L54.2553 52.966L54.7137 36.9926L40.4956 36.5845Z" fill="url(#paint14_linear_153_2907)"/>
</g>
<mask id="mask19_153_2907" style="mask-type:luminance" maskUnits="userSpaceOnUse" x="47" y="31" width="4" height="7">
<path d="M49.5951 31.8211C48.6205 33.5899 48.0592 35.5564 47.9531 37.5731C48.9851 37.7731 49.0181 37.8461 49.1821 37.1031C49.3461 36.3601 50.1001 32.0821 50.7351 31.9511C50.5164 31.8269 50.2675 31.7659 50.0161 31.7751C49.8745 31.7755 49.7334 31.7909 49.5951 31.8211Z" fill="white"/>
</mask>
<g mask="url(#mask19_153_2907)">
<path d="M47.9555 31.6956L47.7791 37.8421L50.7328 37.9269L50.9092 31.7804L47.9555 31.6956Z" fill="url(#paint15_linear_153_2907)"/>
</g>
<mask id="mask20_153_2907" style="mask-type:luminance" maskUnits="userSpaceOnUse" x="41" y="31" width="4" height="7">
<path d="M43.2864 32.1039C43.2864 32.1039 42.0063 33.7669 41.6523 37.5739C42.6843 37.7739 42.7173 37.847 42.8813 37.103C43.0453 36.359 43.8003 32.0819 44.4343 31.9509C44.0479 31.9647 43.6629 32.016 43.2864 32.1039Z" fill="white"/>
</mask>
<g mask="url(#mask20_153_2907)">
<path d="M41.6537 31.8714L41.4823 37.8419L44.4311 37.9266L44.6024 31.956L41.6537 31.8714Z" fill="url(#paint16_linear_153_2907)"/>
</g>
<mask id="mask21_153_2907" style="mask-type:luminance" maskUnits="userSpaceOnUse" x="42" y="38" width="6" height="3">
<path d="M43.019 38.689C43.019 38.689 41.9831 40.7459 44.8931 40.7019C47.8031 40.6579 47.37 38.4019 47.37 38.4019L43.019 38.689Z" fill="white"/>
</mask>
<g mask="url(#mask21_153_2907)">
<path d="M47.8016 38.2827L41.9336 38.4059L41.9854 40.8709L47.8534 40.7477L47.8016 38.2827Z" fill="url(#paint17_linear_153_2907)"/>
</g>
<mask id="mask22_153_2907" style="mask-type:luminance" maskUnits="userSpaceOnUse" x="52" y="44" width="3" height="2">
<path d="M52.8227 44.643C52.797 44.6929 52.7822 44.7478 52.7796 44.8039C52.7771 44.8599 52.7867 44.916 52.8077 44.968C52.9077 45.153 53.2008 45.068 53.5458 45.19C54.1048 45.379 54.3357 45.968 54.4227 45.853C54.4494 45.6351 54.4406 45.4142 54.3967 45.199C54.3967 45.199 54.2107 44.708 53.8617 44.622C53.7433 44.5976 53.6225 44.5866 53.5017 44.589C53.2744 44.5922 53.0477 44.6102 52.8227 44.643Z" fill="white"/>
</mask>
<g mask="url(#mask22_153_2907)">
<path d="M54.4739 44.4275L52.623 44.6011L52.7662 46.1284L54.6171 45.9549L54.4739 44.4275Z" fill="url(#paint18_linear_153_2907)"/>
</g>
<mask id="mask23_153_2907" style="mask-type:luminance" maskUnits="userSpaceOnUse" x="36" y="45" width="3" height="2">
<path d="M36.2042 45.4051C36.2042 45.4051 36.4042 46.43 36.8702 46.723C37.3449 46.8832 37.8574 46.8936 38.3383 46.753C38.5383 46.304 37.4012 46.183 37.0602 45.734C36.9793 45.6251 36.8736 45.537 36.7518 45.4772C36.6301 45.4174 36.4959 45.3875 36.3602 45.39C36.3069 45.3896 36.2535 45.3946 36.2012 45.4051" fill="white"/>
</mask>
<g mask="url(#mask23_153_2907)">
<path d="M38.5244 45.1902L36.0645 45.4019L36.2206 47.2162L38.6805 47.0045L38.5244 45.1902Z" fill="url(#paint19_linear_153_2907)"/>
</g>
<mask id="mask24_153_2907" style="mask-type:luminance" maskUnits="userSpaceOnUse" x="7" y="18" width="68" height="37">
<path d="M7.89465 18.287C8.42225 20.4613 9.09032 22.5992 9.89465 24.687C10.9305 27.5641 12.1797 30.3599 13.6317 33.051C15.443 36.3601 17.9183 39.2594 20.9025 41.5671C23.8866 43.8749 27.3153 45.5413 30.9736 46.462C33.3983 47.1821 35.9488 47.3764 38.4547 47.032C39.9591 46.7077 41.4414 46.2882 42.8926 45.776C43.1076 45.694 43.3056 45.615 43.4926 45.538C44.1257 45.2702 44.7774 45.049 45.4427 44.876C46.3762 44.6473 47.3289 44.5057 48.2886 44.453C50.4706 44.388 52.9886 46.03 54.6996 47.271C56.075 48.245 57.3351 49.3722 58.4557 50.631C59.2895 51.6499 60.3386 52.4716 61.5276 53.037C63.007 53.8383 64.6473 54.2972 66.3276 54.38C67.1556 54.3866 67.976 54.2226 68.7376 53.898C70.2901 53.1651 71.5276 51.8989 72.2246 50.33C72.7204 49.3086 73.0914 48.2312 73.3297 47.121C73.4881 46.4229 73.5656 45.7088 73.5606 44.993C73.5766 44.416 73.5966 43.698 73.6986 42.548C73.8681 40.6313 74.16 38.7274 74.5727 36.848L73.6617 36.648C73.2404 38.5673 72.9425 40.5116 72.7697 42.469C72.6697 43.647 72.6447 44.381 72.6287 44.969C72.6349 45.6231 72.5654 46.2758 72.4217 46.914C72.1995 47.9516 71.8537 48.9588 71.3917 49.914C70.7905 51.2845 69.7184 52.3945 68.3697 53.043C67.2094 53.5068 65.93 53.5815 64.7236 53.256C63.7585 53.0094 62.8243 52.6549 61.9387 52.199C60.8562 51.6825 59.9027 50.9309 59.1476 49.999C57.984 48.6935 56.6756 47.5247 55.2477 46.515C51.4537 43.757 49.4477 43.484 48.2607 43.515C47.2323 43.5682 46.2113 43.7192 45.2116 43.966C44.507 44.1492 43.8166 44.3832 43.1457 44.666C42.9577 44.741 42.7627 44.819 42.5547 44.899C41.1432 45.3939 39.7024 45.801 38.2407 46.118C35.8798 46.4176 33.4825 46.2253 31.1996 45.553C27.663 44.6634 24.3483 43.0523 21.4638 40.8209C18.5793 38.5894 16.1872 35.7858 14.4377 32.586C13.0087 29.9344 11.779 27.1801 10.7587 24.346C9.96865 22.2947 9.3126 20.1943 8.79465 18.058L7.89465 18.287Z" fill="white"/>
</mask>
<g mask="url(#mask24_153_2907)">
<path d="M74.5747 18.067H7.89465V54.383H74.5747V18.067Z" fill="#2F3166"/>
</g>
<mask id="mask25_153_2907" style="mask-type:luminance" maskUnits="userSpaceOnUse" x="0" y="0" width="7" height="20">
<path d="M4.07169 0L0.837687 2.373C0.595094 2.55079 0.397788 2.78322 0.261754 3.05147C0.12572 3.31972 0.0547823 3.61623 0.0546875 3.917L0.0546875 19.364L6.07769 13.641L4.07169 0Z" fill="white"/>
</mask>
<g mask="url(#mask25_153_2907)">
<path d="M0.080589 -0.36769L-1.14062 19.2899L6.05296 19.7368L7.27417 0.079206L0.080589 -0.36769Z" fill="#4049BE"/>
</g>
<mask id="mask26_153_2907" style="mask-type:luminance" maskUnits="userSpaceOnUse" x="2" y="2" width="71" height="18">
<path d="M2.28711 16.5201L72.8191 19.813V6.80205L2.28711 2.44604V16.5201Z" fill="white"/>
</mask>
<g mask="url(#mask26_153_2907)">
<path d="M41.2296 -32.6157L-6.34766 10.223L33.8613 54.8796L81.4385 12.0408L41.2296 -32.6157Z" fill="#666BB1"/>
</g>
<mask id="mask27_153_2907" style="mask-type:luminance" maskUnits="userSpaceOnUse" x="4" y="11" width="68" height="5">
<path d="M4.32912 12.147C4.33337 12.2362 4.37119 12.3205 4.43498 12.383C4.49878 12.4455 4.58384 12.4816 4.67311 12.484L70.7671 15.864C70.8057 15.8669 70.8444 15.8618 70.8808 15.849C70.9173 15.8361 70.9507 15.8158 70.9789 15.7894C71.0071 15.763 71.0295 15.731 71.0447 15.6955C71.0599 15.66 71.0675 15.6217 71.0671 15.583C71.0662 15.5026 71.0347 15.4255 70.9789 15.3676C70.9232 15.3096 70.8474 15.2751 70.7671 15.271L4.67311 11.846H4.65312C4.61203 11.8442 4.57096 11.8504 4.53232 11.8645C4.49367 11.8786 4.45822 11.9003 4.42799 11.9282C4.39777 11.9561 4.37337 11.9897 4.35623 12.0271C4.33909 12.0645 4.32954 12.1049 4.32812 12.146" fill="white"/>
</mask>
<g mask="url(#mask27_153_2907)">
<path d="M4.95975 5.39548L3.94141 15.8339L70.4377 22.3211L71.4561 11.8827L4.95975 5.39548Z" fill="url(#paint20_linear_153_2907)"/>
</g>
<mask id="mask28_153_2907" style="mask-type:luminance" maskUnits="userSpaceOnUse" x="0" y="0" width="89" height="78">
<path d="M88.0557 0.00201416H0.0546875V77.592H88.0557V0.00201416Z" fill="white"/>
</mask>
<g mask="url(#mask28_153_2907)">
<g style="mix-blend-mode:soft-light" opacity="0.6">
<mask id="mask29_153_2907" style="mask-type:luminance" maskUnits="userSpaceOnUse" x="28" y="14" width="22" height="4">
<path d="M49.4591 14.3069H28.1641V17.8879H49.4591V14.3069Z" fill="white"/>
</mask>
<g mask="url(#mask29_153_2907)">
<path d="M28.1641 14.3069C28.1887 15.049 28.4942 15.754 29.0189 16.2793C29.5435 16.8047 30.248 17.1112 30.9901 17.1369L46.7471 17.8849C47.092 17.9107 47.4385 17.8653 47.7651 17.7516C48.0918 17.6378 48.3916 17.4582 48.6459 17.2238C48.9002 16.9893 49.1036 16.7051 49.2435 16.3888C49.3834 16.0725 49.4567 15.7308 49.459 15.3849L28.1641 14.3069Z" fill="white"/>
</g>
</g>
</g>
<mask id="mask30_153_2907" style="mask-type:luminance" maskUnits="userSpaceOnUse" x="2" y="0" width="71" height="7">
<path d="M4.07513 0L2.73812 1.35C2.59421 1.49462 2.48029 1.66624 2.4029 1.85501C2.3255 2.04378 2.28616 2.24598 2.28713 2.45L72.8191 6.8C72.8167 6.41148 72.6804 6.03567 72.4331 5.736L71.2891 4.336L4.07513 0Z" fill="white"/>
</mask>
<g mask="url(#mask30_153_2907)">
<path d="M72.8191 0.00201416H2.28711V6.80201H72.8191V0.00201416Z" fill="url(#paint21_linear_153_2907)"/>
</g>
<mask id="mask31_153_2907" style="mask-type:luminance" maskUnits="userSpaceOnUse" x="4" y="1" width="14" height="2">
<path d="M4.53125 1.87198C4.53519 1.95264 4.56921 2.0289 4.62659 2.08573C4.68397 2.14255 4.76055 2.17582 4.84125 2.17898L17.5892 2.97197C17.6266 2.97585 17.6643 2.97196 17.7001 2.96054C17.7358 2.94912 17.7688 2.93042 17.797 2.90563C17.8252 2.88083 17.8479 2.85046 17.8638 2.81645C17.8797 2.78243 17.8883 2.7455 17.8893 2.70797C17.8854 2.62966 17.8525 2.55559 17.7971 2.50015C17.7416 2.4447 17.6676 2.41185 17.5892 2.40798L4.84125 1.60798H4.82025C4.78351 1.60623 4.74679 1.61185 4.71225 1.6245C4.67771 1.63715 4.64605 1.65658 4.61913 1.68164C4.5922 1.7067 4.57056 1.73689 4.55547 1.77044C4.54038 1.80398 4.53214 1.8402 4.53125 1.87698" fill="white"/>
</mask>
<g mask="url(#mask31_153_2907)">
<path d="M7.69345 -4.07579L3.94531 2.65497L14.729 8.66006L18.4772 1.92931L7.69345 -4.07579Z" fill="url(#paint22_linear_153_2907)"/>
</g>
<mask id="mask32_153_2907" style="mask-type:luminance" maskUnits="userSpaceOnUse" x="4" y="0" width="14" height="3">
<path d="M4.53125 0.956961C4.53519 1.03762 4.56921 1.11388 4.62659 1.17071C4.68397 1.22754 4.76055 1.26081 4.84125 1.26396L17.5892 2.06996C17.6266 2.07384 17.6643 2.06994 17.7001 2.05852C17.7358 2.0471 17.7688 2.0284 17.797 2.00361C17.8252 1.97881 17.8479 1.94845 17.8638 1.91443C17.8797 1.88042 17.8883 1.84349 17.8893 1.80596C17.8854 1.72765 17.8525 1.65357 17.7971 1.59813C17.7416 1.54269 17.6676 1.50984 17.5892 1.50596L4.84125 0.691962H4.81926C4.78265 0.690218 4.74606 0.695809 4.71164 0.708409C4.67722 0.721009 4.64567 0.740361 4.61884 0.76533C4.592 0.790298 4.57043 0.820378 4.55539 0.853802C4.54035 0.887226 4.53214 0.92332 4.53125 0.959961" fill="white"/>
</mask>
<g mask="url(#mask32_153_2907)">
<path d="M7.69294 -4.98951L3.93945 1.75085L14.7284 7.75887L18.4819 1.0185L7.69294 -4.98951Z" fill="url(#paint23_linear_153_2907)"/>
</g>
<mask id="mask33_153_2907" style="mask-type:luminance" maskUnits="userSpaceOnUse" x="18" y="2" width="14" height="2">
<path d="M18.7852 2.7619C18.7888 2.84029 18.8216 2.91449 18.8771 2.96998C18.9326 3.02547 19.0068 3.05825 19.0851 3.0619L31.4492 3.8309C31.4858 3.83466 31.5229 3.83073 31.5579 3.81936C31.593 3.80798 31.6253 3.78942 31.6528 3.76486C31.6803 3.7403 31.7023 3.71027 31.7175 3.6767C31.7327 3.64313 31.7408 3.60676 31.7411 3.56991C31.739 3.49238 31.7078 3.4185 31.6537 3.36292C31.5996 3.30734 31.5266 3.27414 31.4492 3.2699L19.0851 2.4929H19.0651C19.0292 2.49143 18.9934 2.49716 18.9597 2.50977C18.9261 2.52238 18.8953 2.5416 18.8692 2.5663C18.8431 2.59101 18.8222 2.62068 18.8078 2.65359C18.7934 2.6865 18.7857 2.72197 18.7852 2.7579" fill="white"/>
</mask>
<g mask="url(#mask33_153_2907)">
<path d="M21.8516 -3.00928L18.2129 3.5249L28.6742 9.35047L32.3129 2.81629L21.8516 -3.00928Z" fill="url(#paint24_linear_153_2907)"/>
</g>
<mask id="mask34_153_2907" style="mask-type:luminance" maskUnits="userSpaceOnUse" x="18" y="1" width="14" height="2">
<path d="M18.7852 1.86198C18.789 1.94029 18.8219 2.01437 18.8773 2.06981C18.9328 2.12525 19.0068 2.1581 19.0851 2.16198L31.4492 2.94298C31.4857 2.94673 31.5227 2.94282 31.5577 2.93151C31.5927 2.9202 31.6249 2.90173 31.6524 2.87728C31.6799 2.85282 31.7019 2.82291 31.7172 2.78946C31.7325 2.75601 31.7406 2.71975 31.7411 2.68298C31.739 2.60545 31.7078 2.53157 31.6537 2.47599C31.5996 2.42042 31.5266 2.38722 31.4492 2.38298L19.0851 1.59398H19.0651C19.0293 1.5925 18.9935 1.59821 18.96 1.61076C18.9264 1.6233 18.8957 1.64243 18.8696 1.66703C18.8435 1.69162 18.8225 1.72119 18.808 1.75398C18.7935 1.78677 18.7858 1.82213 18.7852 1.85798" fill="white"/>
</mask>
<g mask="url(#mask34_153_2907)">
<path d="M21.853 -3.90896L18.209 2.63483L28.6756 8.46332L32.3196 1.91953L21.853 -3.90896Z" fill="url(#paint25_linear_153_2907)"/>
</g>
<mask id="mask35_153_2907" style="mask-type:luminance" maskUnits="userSpaceOnUse" x="32" y="3" width="14" height="2">
<path d="M32.6094 3.62702C32.6113 3.70462 32.6425 3.77863 32.6967 3.83426C32.7508 3.88988 32.8239 3.92301 32.9014 3.92702L44.9014 4.67302C44.9373 4.6765 44.9735 4.67245 45.0078 4.66112C45.042 4.6498 45.0735 4.63146 45.1002 4.60727C45.127 4.58308 45.1484 4.55357 45.163 4.52064C45.1777 4.4877 45.1853 4.45207 45.1854 4.41602C45.1838 4.34036 45.1536 4.26813 45.101 4.2138C45.0483 4.15946 44.977 4.12703 44.9014 4.12302L32.9014 3.36902H32.8774C32.8424 3.36795 32.8074 3.3739 32.7747 3.3865C32.7419 3.3991 32.712 3.4181 32.6866 3.44241C32.6613 3.46671 32.6411 3.49582 32.6271 3.52804C32.6132 3.56025 32.6059 3.59492 32.6055 3.63002" fill="white"/>
</mask>
<g mask="url(#mask35_153_2907)">
<path d="M35.5883 -1.97972L32.0508 4.36902L42.2093 10.0294L45.7469 3.68068L35.5883 -1.97972Z" fill="url(#paint26_linear_153_2907)"/>
</g>
<mask id="mask36_153_2907" style="mask-type:luminance" maskUnits="userSpaceOnUse" x="32" y="2" width="14" height="2">
<path d="M32.6094 2.74107C32.6113 2.81867 32.6425 2.89268 32.6966 2.9483C32.7507 3.00393 32.8238 3.03705 32.9014 3.04106L44.9014 3.79907C44.9373 3.80255 44.9735 3.79849 45.0077 3.78717C45.0419 3.77585 45.0734 3.75751 45.1002 3.73332C45.1269 3.70912 45.1483 3.67962 45.163 3.64668C45.1776 3.61375 45.1853 3.57812 45.1854 3.54206C45.1837 3.46641 45.1536 3.39418 45.1009 3.33985C45.0482 3.28551 44.9769 3.25308 44.9014 3.24906L32.9014 2.48306H32.8814C32.8463 2.48186 32.8113 2.48771 32.7784 2.50026C32.7456 2.51281 32.7157 2.53182 32.6903 2.55615C32.665 2.58048 32.6447 2.60964 32.6308 2.64192C32.6169 2.67419 32.6096 2.70893 32.6094 2.74407" fill="white"/>
</mask>
<g mask="url(#mask36_153_2907)">
<path d="M35.5878 -2.86622L32.0449 3.49213L42.2078 9.15496L45.7507 2.79661L35.5878 -2.86622Z" fill="url(#paint27_linear_153_2907)"/>
</g>
<mask id="mask37_153_2907" style="mask-type:luminance" maskUnits="userSpaceOnUse" x="46" y="4" width="13" height="2">
<path d="M46.0217 4.46599C46.0236 4.5413 46.0538 4.61315 46.1062 4.66725C46.1586 4.72135 46.2296 4.75374 46.3048 4.75799L57.9498 5.48299C57.985 5.48604 58.0203 5.48174 58.0537 5.47035C58.0871 5.45896 58.1178 5.44074 58.1438 5.41684C58.1698 5.39294 58.1905 5.3639 58.2046 5.33155C58.2187 5.29921 58.226 5.26428 58.2258 5.22899C58.2231 5.1555 58.1935 5.08557 58.1426 5.03247C58.0917 4.97938 58.0231 4.94682 57.9498 4.94099L46.3048 4.20899H46.2858C46.2515 4.2082 46.2174 4.21424 46.1854 4.22678C46.1535 4.23933 46.1244 4.25812 46.0999 4.28205C46.0753 4.30598 46.0556 4.33458 46.0422 4.36616C46.0288 4.39774 46.0219 4.43168 46.0217 4.46599Z" fill="white"/>
</mask>
<g mask="url(#mask37_153_2907)">
<path d="M48.9087 -0.977278L45.4749 5.18909L55.3351 10.6799L58.7689 4.51357L48.9087 -0.977278Z" fill="url(#paint28_linear_153_2907)"/>
</g>
<mask id="mask38_153_2907" style="mask-type:luminance" maskUnits="userSpaceOnUse" x="46" y="3" width="13" height="2">
<path d="M46.0216 3.59203C46.0235 3.66734 46.0536 3.73919 46.1061 3.79329C46.1585 3.84739 46.2295 3.87978 46.3047 3.88403L57.9497 4.62003C57.9848 4.62323 58.0202 4.61907 58.0536 4.6078C58.087 4.59653 58.1176 4.5784 58.1436 4.55458C58.1695 4.53076 58.1903 4.50177 58.2045 4.46947C58.2186 4.43717 58.2259 4.40228 58.2257 4.36703C58.223 4.29354 58.1933 4.22361 58.1425 4.17051C58.0916 4.11742 58.023 4.08486 57.9497 4.07903L46.3047 3.33603H46.2856C46.2513 3.3351 46.2172 3.34105 46.1852 3.35355C46.1532 3.36605 46.124 3.38483 46.0994 3.40879C46.0748 3.43275 46.0552 3.46139 46.0419 3.49304C46.0285 3.52468 46.0216 3.55768 46.0216 3.59203Z" fill="white"/>
</mask>
<g mask="url(#mask38_153_2907)">
<path d="M48.9133 -1.85427L45.4707 4.32404L55.3399 9.82324L58.7825 3.64493L48.9133 -1.85427Z" fill="url(#paint29_linear_153_2907)"/>
</g>
<mask id="mask39_153_2907" style="mask-type:luminance" maskUnits="userSpaceOnUse" x="59" y="5" width="12" height="2">
<path d="M59.043 5.28C59.0443 5.35375 59.0733 5.4243 59.1243 5.47765C59.1752 5.531 59.2443 5.56324 59.3179 5.568L70.626 6.26799C70.6604 6.27078 70.6949 6.26636 70.7274 6.25502C70.76 6.24369 70.7899 6.22568 70.8151 6.20215C70.8403 6.17862 70.8603 6.15009 70.8739 6.11838C70.8875 6.08667 70.8943 6.05248 70.8939 6.01799C70.8929 5.94572 70.8648 5.87646 70.8152 5.82389C70.7656 5.77131 70.6981 5.73924 70.626 5.734L59.3179 5.023H59.2999C59.2663 5.02233 59.2328 5.02842 59.2015 5.04091C59.1703 5.0534 59.1418 5.07203 59.1178 5.09571C59.0938 5.11939 59.0749 5.14764 59.062 5.17878C59.0492 5.20991 59.0427 5.24331 59.043 5.277" fill="white"/>
</mask>
<g mask="url(#mask39_153_2907)">
<path d="M61.8484 -0.0121547L58.5099 5.98297L68.0889 11.3172L71.4274 5.32203L61.8484 -0.0121547Z" fill="url(#paint30_linear_153_2907)"/>
</g>
<mask id="mask40_153_2907" style="mask-type:luminance" maskUnits="userSpaceOnUse" x="59" y="4" width="12" height="2">
<path d="M59.043 4.42002C59.0457 4.49335 59.0751 4.56315 59.1257 4.61622C59.1764 4.66929 59.2448 4.70195 59.3179 4.70802L70.626 5.42302C70.6604 5.4258 70.6949 5.42138 70.7274 5.41005C70.76 5.39871 70.7899 5.3807 70.8151 5.35717C70.8403 5.33365 70.8603 5.30512 70.8739 5.27341C70.8875 5.2417 70.8943 5.2075 70.8939 5.17302C70.8929 5.10074 70.8648 5.03148 70.8152 4.97891C70.7656 4.92634 70.6981 4.89426 70.626 4.88902L59.3179 4.16802H59.2999C59.2663 4.16735 59.2328 4.17344 59.2015 4.18593C59.1703 4.19842 59.1418 4.21705 59.1178 4.24073C59.0938 4.26441 59.0749 4.29266 59.062 4.3238C59.0492 4.35493 59.0427 4.38833 59.043 4.42202" fill="white"/>
</mask>
<g mask="url(#mask40_153_2907)">
<path d="M61.8487 -0.870848L58.5059 5.13214L68.09 10.4692L71.4329 4.46626L61.8487 -0.870848Z" fill="url(#paint31_linear_153_2907)"/>
</g>
<g style="mix-blend-mode:soft-light" opacity="0.3">
<mask id="mask41_153_2907" style="mask-type:luminance" maskUnits="userSpaceOnUse" x="12" y="3" width="61" height="17">
<path d="M72.8178 3.09009H12.7148V19.8131H72.8178V3.09009Z" fill="white"/>
</mask>
<g mask="url(#mask41_153_2907)">
<path d="M72.8188 6.80209L12.7188 3.09009C12.8973 4.51479 13.5282 5.84462 14.5187 6.88409C19.0757 11.4591 28.4838 5.82609 39.4388 8.42609C44.2308 9.56309 49.8268 12.4021 55.5818 19.0081L72.8207 19.8081L72.8188 6.80209Z" fill="white"/>
</g>
</g>
<mask id="mask42_153_2907" style="mask-type:luminance" maskUnits="userSpaceOnUse" x="0" y="16" width="73" height="7">
<path d="M0.0546875 19.364L12.0257 19.842L70.1137 22.159L72.8187 19.813L2.28669 16.52L0.0546875 19.364Z" fill="white"/>
</mask>
<g mask="url(#mask42_153_2907)">
<path d="M67.912 -1.72725L-1.35925 16.9L4.96159 40.406L74.2328 21.7787L67.912 -1.72725Z" fill="#242A77"/>
</g>
<defs>
<linearGradient id="paint0_linear_153_2907" x1="0.400402" y1="82.1639" x2="0.431738" y2="82.1614" gradientUnits="userSpaceOnUse">
<stop stop-color="#311944"/>
<stop offset="1" stop-color="#A03976"/>
</linearGradient>
<linearGradient id="paint1_linear_153_2907" x1="0.131279" y1="78.515" x2="0.164758" y2="78.5145" gradientUnits="userSpaceOnUse">
<stop stop-color="#FFC444"/>
<stop offset="0.996" stop-color="#F36F56"/>
<stop offset="1" stop-color="#F36F56"/>
</linearGradient>
<linearGradient id="paint2_linear_153_2907" x1="2.37962" y1="89.6184" x2="2.41366" y2="89.6089" gradientUnits="userSpaceOnUse">
<stop stop-color="#311944"/>
<stop offset="1" stop-color="#893976"/>
</linearGradient>
<linearGradient id="paint3_linear_153_2907" x1="49.5212" y1="120.451" x2="49.5216" y2="120.419" gradientUnits="userSpaceOnUse">
<stop stop-color="#FFC444"/>
<stop offset="0.996" stop-color="#F36F56"/>
<stop offset="1" stop-color="#F36F56"/>
</linearGradient>
<linearGradient id="paint4_linear_153_2907" x1="0.0486359" y1="77.5829" x2="0.0794119" y2="77.5829" gradientUnits="userSpaceOnUse">
<stop stop-color="#26264F"/>
<stop offset="0.004" stop-color="#26264F"/>
<stop offset="1" stop-color="#444B8C"/>
</linearGradient>
<linearGradient id="paint5_linear_153_2907" x1="0.105387" y1="77.71" x2="0.133433" y2="77.71" gradientUnits="userSpaceOnUse">
<stop stop-color="#26264F"/>
<stop offset="0.004" stop-color="#26264F"/>
<stop offset="1" stop-color="#444B8C"/>
</linearGradient>
<linearGradient id="paint6_linear_153_2907" x1="1.38724" y1="78.9404" x2="1.42287" y2="78.9392" gradientUnits="userSpaceOnUse">
<stop stop-color="#FFC444"/>
<stop offset="0.996" stop-color="#F36F56"/>
<stop offset="1" stop-color="#F36F56"/>
</linearGradient>
<linearGradient id="paint7_linear_153_2907" x1="62.0209" y1="107.179" x2="62.0216" y2="107.152" gradientUnits="userSpaceOnUse">
<stop stop-color="#26264F"/>
<stop offset="0.004" stop-color="#26264F"/>
<stop offset="1" stop-color="#444B8C"/>
</linearGradient>
<linearGradient id="paint8_linear_153_2907" x1="1.29575" y1="79.2034" x2="1.32746" y2="79.2023" gradientUnits="userSpaceOnUse">
<stop stop-color="#FFC444"/>
<stop offset="0.996" stop-color="#F36F56"/>
<stop offset="1" stop-color="#F36F56"/>
</linearGradient>
<linearGradient id="paint9_linear_153_2907" x1="28.4958" y1="99.585" x2="28.5126" y2="99.5732" gradientUnits="userSpaceOnUse">
<stop stop-color="#FFC444"/>
<stop offset="0.996" stop-color="#F36F56"/>
<stop offset="1" stop-color="#F36F56"/>
</linearGradient>
<linearGradient id="paint10_linear_153_2907" x1="1.39393" y1="79.4568" x2="1.4241" y2="79.4558" gradientUnits="userSpaceOnUse">
<stop stop-color="#FFC444"/>
<stop offset="0.996" stop-color="#F36F56"/>
<stop offset="1" stop-color="#F36F56"/>
</linearGradient>
<linearGradient id="paint11_linear_153_2907" x1="8.27219" y1="84.545" x2="8.30353" y2="84.5398" gradientUnits="userSpaceOnUse">
<stop stop-color="#FFC444"/>
<stop offset="0.996" stop-color="#F36F56"/>
<stop offset="1" stop-color="#F36F56"/>
</linearGradient>
<linearGradient id="paint12_linear_153_2907" x1="21.1038" y1="91.0651" x2="21.1342" y2="91.0532" gradientUnits="userSpaceOnUse">
<stop stop-color="#444B8C"/>
<stop offset="0.996" stop-color="#3E4177"/>
<stop offset="1" stop-color="#3E4177"/>
</linearGradient>
<linearGradient id="paint13_linear_153_2907" x1="74.3203" y1="89.8133" x2="74.3325" y2="89.7811" gradientUnits="userSpaceOnUse">
<stop stop-color="#FFC444"/>
<stop offset="0.996" stop-color="#F36F56"/>
<stop offset="1" stop-color="#F36F56"/>
</linearGradient>
<linearGradient id="paint14_linear_153_2907" x1="78.8192" y1="93.014" x2="78.8201" y2="92.982" gradientUnits="userSpaceOnUse">
<stop stop-color="#26264F"/>
<stop offset="0.004" stop-color="#26264F"/>
<stop offset="1" stop-color="#444B8C"/>
</linearGradient>
<linearGradient id="paint15_linear_153_2907" x1="90.6921" y1="85.3025" x2="90.693" y2="85.2718" gradientUnits="userSpaceOnUse">
<stop stop-color="#26264F"/>
<stop offset="0.004" stop-color="#26264F"/>
<stop offset="1" stop-color="#444B8C"/>
</linearGradient>
<linearGradient id="paint16_linear_153_2907" x1="84.4841" y1="79.0878" x2="84.4849" y2="79.0579" gradientUnits="userSpaceOnUse">
<stop stop-color="#26264F"/>
<stop offset="0.004" stop-color="#26264F"/>
<stop offset="1" stop-color="#444B8C"/>
</linearGradient>
<linearGradient id="paint17_linear_153_2907" x1="0.860328" y1="78.536" x2="0.889668" y2="78.5354" gradientUnits="userSpaceOnUse">
<stop stop-color="#26264F"/>
<stop offset="0.004" stop-color="#26264F"/>
<stop offset="1" stop-color="#444B8C"/>
</linearGradient>
<linearGradient id="paint18_linear_153_2907" x1="3.30822" y1="82.4456" x2="3.34154" y2="82.4425" gradientUnits="userSpaceOnUse">
<stop stop-color="#FFC444"/>
<stop offset="0.996" stop-color="#F36F56"/>
<stop offset="1" stop-color="#F36F56"/>
</linearGradient>
<linearGradient id="paint19_linear_153_2907" x1="2.87772" y1="80.6784" x2="2.91215" y2="80.6754" gradientUnits="userSpaceOnUse">
<stop stop-color="#FFC444"/>
<stop offset="0.473" stop-color="#F99C4D"/>
<stop offset="0.996" stop-color="#F36F56"/>
<stop offset="1" stop-color="#F36F56"/>
</linearGradient>
<linearGradient id="paint20_linear_153_2907" x1="97.4814" y1="57.5107" x2="97.4844" y2="57.4794" gradientUnits="userSpaceOnUse">
<stop stop-color="#444B8C"/>
<stop offset="0.996" stop-color="#26264F"/>
<stop offset="1" stop-color="#26264F"/>
</linearGradient>
<linearGradient id="paint21_linear_153_2907" x1="0.0300854" y1="77.59" x2="0.100617" y2="77.59" gradientUnits="userSpaceOnUse">
<stop stop-color="#E38DDD"/>
<stop offset="0.004" stop-color="#E38DDD"/>
<stop offset="1" stop-color="#9571F6"/>
</linearGradient>
<linearGradient id="paint22_linear_153_2907" x1="71.5754" y1="48.6754" x2="71.5904" y2="48.6484" gradientUnits="userSpaceOnUse">
<stop stop-color="#444B8C"/>
<stop offset="0.996" stop-color="#26264F"/>
<stop offset="1" stop-color="#26264F"/>
</linearGradient>
<linearGradient id="paint23_linear_153_2907" x1="72.3618" y1="48.2067" x2="72.3768" y2="48.1798" gradientUnits="userSpaceOnUse">
<stop stop-color="#444B8C"/>
<stop offset="0.996" stop-color="#26264F"/>
<stop offset="1" stop-color="#26264F"/>
</linearGradient>
<linearGradient id="paint24_linear_153_2907" x1="78.0177" y1="61.3967" x2="78.0323" y2="61.3706" gradientUnits="userSpaceOnUse">
<stop stop-color="#444B8C"/>
<stop offset="0.996" stop-color="#26264F"/>
<stop offset="1" stop-color="#26264F"/>
</linearGradient>
<linearGradient id="paint25_linear_153_2907" x1="78.7914" y1="60.9415" x2="78.8096" y2="60.9087" gradientUnits="userSpaceOnUse">
<stop stop-color="#444B8C"/>
<stop offset="0.996" stop-color="#26264F"/>
<stop offset="1" stop-color="#26264F"/>
</linearGradient>
<linearGradient id="paint26_linear_153_2907" x1="84.2868" y1="73.8019" x2="84.3044" y2="73.7701" gradientUnits="userSpaceOnUse">
<stop stop-color="#444B8C"/>
<stop offset="0.996" stop-color="#26264F"/>
<stop offset="1" stop-color="#26264F"/>
</linearGradient>
<linearGradient id="paint27_linear_153_2907" x1="85.0449" y1="73.3451" x2="85.0626" y2="73.3133" gradientUnits="userSpaceOnUse">
<stop stop-color="#444B8C"/>
<stop offset="0.996" stop-color="#26264F"/>
<stop offset="1" stop-color="#26264F"/>
</linearGradient>
<linearGradient id="paint28_linear_153_2907" x1="90.3397" y1="85.7291" x2="90.3569" y2="85.6983" gradientUnits="userSpaceOnUse">
<stop stop-color="#444B8C"/>
<stop offset="0.996" stop-color="#26264F"/>
<stop offset="1" stop-color="#26264F"/>
</linearGradient>
<linearGradient id="paint29_linear_153_2907" x1="91.1058" y1="85.3432" x2="91.123" y2="85.3123" gradientUnits="userSpaceOnUse">
<stop stop-color="#444B8C"/>
<stop offset="0.996" stop-color="#26264F"/>
<stop offset="1" stop-color="#26264F"/>
</linearGradient>
<linearGradient id="paint30_linear_153_2907" x1="96.2338" y1="97.364" x2="96.2505" y2="97.334" gradientUnits="userSpaceOnUse">
<stop stop-color="#444B8C"/>
<stop offset="0.996" stop-color="#26264F"/>
<stop offset="1" stop-color="#26264F"/>
</linearGradient>
<linearGradient id="paint31_linear_153_2907" x1="96.9898" y1="96.9265" x2="97.0065" y2="96.8965" gradientUnits="userSpaceOnUse">
<stop stop-color="#444B8C"/>
<stop offset="0.996" stop-color="#26264F"/>
<stop offset="1" stop-color="#26264F"/>
</linearGradient>
</defs>
</svg>
