<svg width="97" height="76" viewBox="0 0 97 76" fill="none" xmlns="http://www.w3.org/2000/svg">
<path d="M81.0133 44.9627C80.4863 45.3747 84.6053 70.7746 85.1253 71.3426C85.5803 71.8426 86.6873 71.7197 86.6253 70.9657C86.5823 70.4437 82.0623 44.1427 81.0133 44.9657" fill="#14479C"/>
<path d="M89.045 44.6626C88.553 45.0996 94.8099 70.8356 95.3759 71.3776C95.8759 71.8516 96.9649 71.6776 96.8409 70.9276C96.7549 70.4086 90.023 43.7926 89.041 44.6616" fill="#14479C"/>
<path d="M90.2387 47.4836H81.8867V48.0826H90.2387V47.4836Z" fill="#14479C"/>
<path d="M91.5857 52.3015H82.5957V52.9005H91.5857V52.3015Z" fill="#14479C"/>
<path d="M93.18 57.1206H83.754V57.7196H93.18V57.1206Z" fill="#14479C"/>
<path d="M93.8763 61.9387H84.1562V62.5377H93.8763V61.9387Z" fill="#14479C"/>
<path d="M94.2946 66.7566H84.4766V67.3556H94.2946V66.7566Z" fill="#14479C"/>
<path d="M89.1314 44.6806C89.6584 45.0886 85.5314 70.7806 85.0064 71.3456C84.5514 71.8376 83.4444 71.7176 83.5064 70.9736C83.5494 70.4576 88.0824 43.8726 89.1314 44.6806Z" fill="#3B6BBF"/>
<path d="M81.0831 44.9576C81.5751 45.3906 75.3182 70.8427 74.7522 71.3787C74.2522 71.8477 73.1631 71.6786 73.2871 70.9336C73.3731 70.4206 80.1042 44.0976 81.0872 44.9576" fill="#3B6BBF"/>
<path d="M88.2426 47.7495H79.8906V48.3415H88.2426V47.7495Z" fill="#3B6BBF"/>
<path d="M87.5349 52.5146H78.5449V53.1066H87.5349V52.5146Z" fill="#3B6BBF"/>
<path d="M86.3752 57.2805H76.9492V57.8725H86.3752V57.2805Z" fill="#3B6BBF"/>
<path d="M85.9759 62.0457H76.2559V62.6377H85.9759V62.0457Z" fill="#3B6BBF"/>
<path d="M85.654 66.8107H75.836V67.4027H85.654V66.8107Z" fill="#3B6BBF"/>
<path d="M65.8087 68.0557C65.8087 68.0557 65.2507 71.1707 65.2977 71.4497C65.3447 71.7287 66.3668 71.6827 66.5978 71.4497C66.8288 71.2167 68.5038 68.0557 68.5038 68.0557H65.8087Z" fill="#2D3171"/>
<path d="M44.902 68.0555C44.902 68.0555 45.46 71.1706 45.413 71.4496C45.366 71.7286 44.344 71.6826 44.113 71.4496C43.882 71.2166 42.207 68.0555 42.207 68.0555H44.902Z" fill="#2D3171"/>
<path d="M70.9934 58.0985L70.6074 58.0715C70.7274 56.3375 71.8764 55.5245 72.8894 54.8085C73.7994 54.1645 74.6595 53.5565 74.7245 52.3635C74.8475 50.1135 72.9374 49.2895 71.6744 48.7455C71.0924 48.4945 70.7075 48.3285 70.6165 48.0605L70.9835 47.9365C71.2361 48.1358 71.5218 48.2892 71.8275 48.3895C73.1065 48.9415 75.2485 49.8645 75.1115 52.3895C75.0365 53.7695 74.0585 54.4615 73.1115 55.1295C72.1225 55.8295 71.0994 56.5525 70.9924 58.1035" fill="#EA9C9C"/>
<path d="M70.8108 62.3367L70.4258 62.2967C70.5978 60.6367 71.8517 59.4247 73.0637 58.2527C74.1857 57.1667 75.2458 56.1427 75.1638 54.9377C75.0568 53.4037 73.4578 52.4227 72.1738 51.6377C71.3568 51.1377 70.7118 50.7377 70.6128 50.2837L70.9918 50.2017C71.0558 50.5017 71.6978 50.8907 72.3768 51.3077C73.6648 52.0977 75.4288 53.1797 75.5508 54.9137C75.6508 56.2977 74.5237 57.3837 73.3347 58.5337C72.1727 59.6577 70.9707 60.8197 70.8127 62.3387" fill="#F6D046"/>
<path d="M71.2375 68.5777C70.9375 68.9427 39.9375 69.4457 39.3125 68.5777C39.0635 68.2277 38.9415 62.7967 38.9375 57.2097C38.9375 51.2747 39.0625 45.1607 39.3125 44.7727C39.6945 44.1727 54.3695 44.1257 63.6885 44.3397C67.9555 44.4397 71.1005 44.5897 71.2375 44.7727C72.1675 46.0127 71.6945 68.0187 71.2375 68.5727" fill="#989ABA"/>
<path d="M62.0601 56.2156C62.0601 56.3386 62.0601 56.4606 62.0601 56.5836C62.0601 56.6206 62.0601 56.6597 62.0601 56.6977C62.0601 56.8187 62.0601 56.9406 62.0601 57.0616C62.0471 58.5206 62.024 59.9616 61.994 61.2616C61.994 61.3736 61.988 61.4837 61.985 61.5937C61.985 61.6077 61.985 61.6236 61.985 61.6376L61.9771 61.9516C61.9855 63.3728 61.906 64.7932 61.739 66.2046C61.732 66.2146 61.703 66.2256 61.65 66.2356C61.582 66.2496 61.4721 66.2636 61.3281 66.2776C60.6281 66.3476 59.077 66.4176 57.147 66.4776L56.92 66.4836H56.7711L56.5651 66.4886C55.1781 66.5256 53.6311 66.5546 52.0731 66.5716H52.03H51.696C51.6871 66.571 51.6781 66.571 51.6691 66.5716C50.0821 66.5876 48.501 66.5886 47.087 66.5716H47.0601L46.73 66.5686H46.6931C45.2394 66.5768 43.7864 66.503 42.3411 66.3476C42.2397 66.3317 42.1395 66.3093 42.041 66.2806C41.9868 66.2701 41.9376 66.242 41.9011 66.2007C41.741 64.8083 41.6741 63.4069 41.701 62.0056C41.701 61.8866 41.701 61.7667 41.696 61.6457C41.696 61.6227 41.696 61.6016 41.696 61.5786C41.696 61.4556 41.696 61.3336 41.691 61.2076C41.675 59.9266 41.666 58.5076 41.666 57.0686V56.5736C41.666 56.4526 41.666 56.3306 41.666 56.2096C41.666 54.7696 41.678 53.3426 41.696 52.0616C41.696 51.9366 41.696 51.8137 41.696 51.6927C41.696 51.6737 41.696 51.6546 41.696 51.6356C41.696 51.5146 41.696 51.3936 41.702 51.2756C41.6794 49.8907 41.7429 48.5057 41.892 47.1286C41.909 47.0946 41.9701 47.0636 42.0701 47.0346C42.1688 47.0076 42.269 46.9859 42.3701 46.9696C43.7945 46.81 45.2266 46.7285 46.66 46.7256H46.735L47.035 46.7196H47.093C48.506 46.6946 50.087 46.6876 51.67 46.6966H52.0471C53.6161 46.7066 55.1751 46.7327 56.5701 46.7707L56.735 46.7756L56.924 46.7806L57.111 46.7856C59.033 46.8436 60.5781 46.9257 61.2941 47.0207C61.3983 47.0339 61.5018 47.0525 61.6041 47.0766C61.6731 47.0946 61.712 47.1126 61.723 47.1306C61.97 48.494 62.0706 49.8799 62.0231 51.2646C62.0231 51.3836 62.0231 51.5037 62.0291 51.6247C62.0291 51.6517 62.0291 51.6786 62.0291 51.7076C62.0291 51.8286 62.0291 51.9526 62.0341 52.0786C62.0521 53.3586 62.0551 54.7786 62.0471 56.2156" fill="#CAC3D8"/>
<path d="M59.8304 56.6415C59.8304 58.217 59.3633 59.7572 58.488 61.0672C57.6127 62.3772 56.3685 63.3982 54.9129 64.0012C53.4573 64.6041 51.8556 64.7618 50.3104 64.4545C48.7651 64.1471 47.3457 63.3884 46.2316 62.2743C45.1176 61.1602 44.3589 59.7409 44.0515 58.1956C43.7441 56.6504 43.9019 55.0487 44.5048 53.5931C45.1077 52.1375 46.1288 50.8933 47.4388 50.018C48.7488 49.1427 50.2889 48.6755 51.8644 48.6755C52.9106 48.6754 53.9465 48.8813 54.9131 49.2816C55.8796 49.6819 56.7578 50.2687 57.4976 51.0084C58.2373 51.7482 58.8241 52.6264 59.2244 53.5929C59.6246 54.5594 59.8306 55.5953 59.8304 56.6415Z" fill="#212364"/>
<path d="M57.2967 58.2437C54.8877 59.8847 52.9967 58.0167 53.0197 57.1797C53.0247 56.9847 53.3467 56.8077 53.7467 56.5447C54.3498 56.2028 54.828 55.6773 55.1117 55.0447C55.6467 53.6747 55.0187 52.2097 56.6687 52.3957C56.9915 52.4717 57.2934 52.6184 57.5528 52.825C57.8121 53.0316 58.0225 53.2931 58.1687 53.5907C58.6604 54.3277 58.8439 55.2279 58.68 56.0985C58.516 56.9691 58.0177 57.741 57.2917 58.2487" fill="#E3E3E3"/>
<path d="M52.1032 63.8387C51.9729 63.9358 51.8258 64.008 51.6693 64.0517C50.0933 64.5227 46.9893 62.9346 47.6233 60.0196C48.2433 57.1706 50.9023 57.2277 51.4613 57.8517C51.6113 58.0187 51.4383 58.4577 51.3203 59.0337C51.1683 59.6319 51.2006 60.2621 51.4132 60.8417C51.9672 62.2036 53.4303 62.8356 52.1043 63.8366" fill="#E3E3E3"/>
<path d="M51.039 55.7536C50.794 55.8106 50.445 55.3536 49.902 54.9236C49.4855 54.5734 48.9788 54.3475 48.44 54.2716C46.978 54.0996 45.72 55.0776 45.483 53.4336C45.4754 53.0917 45.5447 52.7525 45.6857 52.4409C45.8268 52.1294 46.036 51.8535 46.298 51.6336C46.8898 50.9876 47.7092 50.5965 48.5836 50.5425C49.4581 50.4886 50.3193 50.7762 50.986 51.3446C53.186 53.2596 51.854 55.5636 51.038 55.7526" fill="#E3E3E3"/>
<path d="M53.4656 56.6415C53.4656 56.958 53.3718 57.2673 53.196 57.5305C53.0202 57.7936 52.7702 57.9987 52.4779 58.1198C52.1855 58.2409 51.8638 58.2725 51.5534 58.2108C51.2431 58.149 50.958 57.9967 50.7342 57.7729C50.5105 57.5491 50.3581 57.264 50.2964 56.9537C50.2346 56.6433 50.2663 56.3216 50.3874 56.0292C50.5085 55.7369 50.7136 55.487 50.9767 55.3112C51.2398 55.1353 51.5491 55.0415 51.8656 55.0415C52.2899 55.0415 52.6969 55.2101 52.997 55.5101C53.297 55.8102 53.4656 56.2172 53.4656 56.6415Z" fill="#666BB1"/>
<path d="M47.0431 46.7206L46.8901 46.8727L44.5851 49.1777L44.4031 49.3607L42.0981 51.6606L41.9151 51.8436L41.6991 52.0596C41.6991 51.9346 41.6991 51.8116 41.6991 51.6896L41.7291 51.6597L41.9111 51.4777L44.2161 49.1727L44.3981 48.9907L46.6661 46.7227H46.7411L47.0411 46.7167" fill="#664379"/>
<path d="M52.0419 46.6946L47.0739 51.6626L46.892 51.8466L45.473 53.2646L44.5869 54.1506L44.4039 54.3336L44.1749 54.5626L42.0999 56.6396L41.918 56.8216L41.6699 57.0696V56.7026L41.7349 56.6396L41.9169 56.4566L44.2219 54.1566L44.3369 54.0426L44.405 53.9726L45.5339 52.8426L46.7089 51.6676L46.8729 51.5036L46.892 51.4856L47.585 50.7926L49.197 49.1806L49.2639 49.1136L51.684 46.6936H51.689L52.0419 46.6946Z" fill="#664379"/>
<path d="M56.9321 46.7816L56.8401 46.8737L54.5671 49.1467L54.3531 49.3607L52.0482 51.6656L51.8661 51.8477L49.6661 54.0477L49.5582 54.1556L49.3762 54.3386L49.2172 54.4976L47.0712 56.6436L46.8892 56.8256L44.5842 59.1306L44.4022 59.3126L44.3682 59.3466L42.0961 61.6187L41.9131 61.8007L41.7021 62.0126C41.7021 61.8936 41.7021 61.7736 41.6971 61.6526L41.7302 61.6207L41.9121 61.4376L44.2741 59.0756L44.3991 58.9506L46.7042 56.6506L46.8871 56.4677L48.9542 54.3997L49.1912 54.1616L49.3741 53.9796L51.4841 51.8696L51.6841 51.6696L51.8661 51.4877L56.5792 46.7747L56.7441 46.7797L56.9332 46.7847" fill="#664379"/>
<path d="M61.6122 47.0787L59.5122 49.1787L59.3302 49.3617L57.0252 51.6617L49.3792 59.3067L47.0742 61.6117L46.8922 61.7937L44.5812 64.1047L44.3992 64.2877L42.3332 66.3527C42.2319 66.3368 42.1317 66.3144 42.0332 66.2857L44.2132 64.1047L44.3962 63.9227L46.7012 61.6177L46.8832 61.4357L49.1882 59.1307L49.3702 58.9487L51.6752 56.6437L51.8572 56.4607L54.1622 54.1557L54.3442 53.9737L56.6492 51.6687L56.8312 51.4867L59.1362 49.1817L59.3192 48.9997L61.2922 47.0247C61.3964 47.0379 61.4999 47.0566 61.6022 47.0807" fill="#664379"/>
<path d="M62.043 51.6257L62.002 51.6658L61.82 51.8488L59.458 54.2108L59.333 54.3358L58.6851 54.9838L57.028 56.6407L56.845 56.8228L54.832 58.8358L51.871 61.7968L50.471 63.1968L49.571 64.0967L49.446 64.2217L49.389 64.2787L47.098 66.5707L47.084 66.5837L47.071 66.5707L46.738 66.5657L46.902 66.4017L49.553 63.7507L50.361 62.9427L51.694 61.6097L54.363 58.9407L54.55 58.7537L56.668 56.6357L56.85 56.4528L61.643 51.6597L61.826 51.4777L62.043 51.2598C62.043 51.3788 62.043 51.4988 62.05 51.6198" fill="#664379"/>
<path d="M62.058 56.2156C62.058 56.3386 62.058 56.4606 62.058 56.5836L62.0001 56.6416L61.8171 56.8236L59.5171 59.1237L59.4031 59.2377L59.3331 59.3076L57.0281 61.6127L56.8461 61.7947L54.5411 64.0996L54.4711 64.1697L54.3591 64.2816L52.0721 66.5686L52.0541 66.5867L52.037 66.5696H51.7031L53.9481 64.3257L54.178 64.0956L54.36 63.9136L56.665 61.6086L56.847 61.4266L59.152 59.1216L59.3351 58.9376L59.5641 58.7086L62.058 56.2156Z" fill="#664379"/>
<path d="M61.9977 61.6166L59.5106 64.1036L59.3286 64.2866L57.1396 66.4746L56.9127 66.4806H56.7637L59.3276 63.9176L61.6327 61.6125L61.8167 61.4296L61.9867 61.2585C61.9867 61.3705 61.9807 61.4806 61.9777 61.5906L61.9977 61.6166Z" fill="#664379"/>
<path d="M62.0471 52.0797L61.8171 51.8497L61.6341 51.6667L59.334 49.3668L56.7481 46.7808L56.9361 46.7858L57.1231 46.7907L62.0451 51.7127C62.0451 51.8337 62.0451 51.9577 62.0501 52.0837" fill="#664379"/>
<path d="M62.0554 56.6937C62.0554 56.8157 62.0554 56.9367 62.0554 57.0577L61.6354 56.6377L59.5604 54.5607L59.1484 54.1487L56.8434 51.8487L56.6614 51.6657L54.3564 49.3607L54.1744 49.1787L53.9454 48.9497L51.6914 46.6957H52.0374L52.0434 46.6897L52.0494 46.6957L54.3494 48.9957L54.4644 49.1107L56.8364 51.4827L57.0194 51.6647L59.3194 53.9697L59.3894 54.0397L59.5034 54.1537L61.8084 56.4537L61.9904 56.6377L62.0554 56.6937Z" fill="#664379"/>
<path d="M61.9962 61.6166L61.9741 61.6386C61.9741 61.7446 61.9715 61.8493 61.9661 61.9526L61.8141 61.7986L61.6312 61.6166L59.1442 59.1296L57.8231 57.8087L56.8392 56.8246L56.2521 56.2366L55.0952 55.0797L54.3522 54.3376L54.1702 54.1547L46.7441 46.7286L47.0441 46.7227H47.1022L49.4371 49.0576L49.5612 49.1816L51.8661 51.4866L54.3531 53.9736L54.5361 54.1556L55.1912 54.8106L56.4752 56.0956L56.8401 56.4606L57.0231 56.6436L57.9982 57.6187L59.3281 58.9476L61.9772 61.5966L61.9962 61.6166Z" fill="#664379"/>
<path d="M61.6411 66.2357C61.5731 66.2497 61.4632 66.2636 61.3192 66.2776L59.3281 64.2867L59.1451 64.1036L56.8401 61.7986L56.6581 61.6166L54.3531 59.3116L54.1711 59.1296L51.8661 56.8246L51.6841 56.6426L49.3792 54.3376L49.1961 54.1547L46.8961 51.8547L46.7131 51.6716L44.4131 49.3716L42.0881 47.0466C42.1869 47.0197 42.2871 46.9981 42.3881 46.9817L44.4111 49.0057L44.5941 49.1877L46.8991 51.4927L47.0811 51.6747L49.3861 53.9797L51.8731 56.4667L52.0551 56.6497L54.3601 58.9547L54.5421 59.1367L59.3341 63.9297L59.5181 64.1116L61.6411 66.2357Z" fill="#664379"/>
<path d="M56.9121 66.4807H56.7631L56.5561 66.4857L51.8641 61.7937L51.6821 61.6117L50.4591 60.3887L46.8891 56.8187L46.7061 56.6367L41.9131 51.8437L41.7311 51.6597L41.7031 51.6327C41.7031 51.5117 41.7031 51.3907 41.7101 51.2727L41.9101 51.4777L42.0931 51.6597L44.3651 53.9317L44.3991 53.9657L44.5811 54.1477L46.8861 56.4527L47.0681 56.6357L49.3731 58.9407L49.5551 59.1227L50.5621 60.1297L51.5251 61.0937L51.8591 61.4287L52.0411 61.6107L54.3461 63.9157L54.5621 64.1317L56.8341 66.4037L56.9121 66.4807Z" fill="#664379"/>
<path d="M52.0281 66.5737H51.6941L51.6811 66.5867L51.6671 66.5737L49.3761 64.2817L49.2641 64.1687L49.1941 64.0986L46.8891 61.7937L41.9141 56.8187L41.7281 56.6447L41.6641 56.5797C41.6641 56.4587 41.6641 56.3367 41.6641 56.2157L52.0281 66.5737Z" fill="#664379"/>
<path d="M47.0604 66.5778L46.7274 66.5728L46.7084 66.5907L46.6904 66.5728L44.4044 64.2867L44.2204 64.1038L41.9154 61.7987L41.7334 61.6167L41.6984 61.5818C41.6984 61.4588 41.6984 61.3367 41.6934 61.2107L41.9154 61.4327L42.0984 61.6157L44.4034 63.9208L44.5854 64.1028L46.8904 66.4077L47.0604 66.5778Z" fill="#664379"/>
<path d="M64.4096 47.0206C65.79 46.926 67.1766 46.9722 68.5476 47.1586C68.617 47.7533 68.617 48.354 68.5476 48.9486C67.1703 49.0532 65.7869 49.0532 64.4096 48.9486C64.3166 48.3093 64.3166 47.66 64.4096 47.0206Z" fill="#FEFEF1"/>
<path d="M65.5398 50.5416C65.5398 50.6603 65.5047 50.7763 65.4388 50.8749C65.3728 50.9736 65.2791 51.0505 65.1695 51.0959C65.0598 51.1414 64.9392 51.1533 64.8228 51.1301C64.7064 51.107 64.5996 51.0498 64.5157 50.9659C64.4318 50.882 64.3745 50.7751 64.3514 50.6587C64.3282 50.5423 64.3401 50.4216 64.3855 50.312C64.431 50.2024 64.5078 50.1087 64.6065 50.0427C64.7052 49.9768 64.8212 49.9417 64.9399 49.9417C65.099 49.9417 65.2517 50.0048 65.3642 50.1174C65.4767 50.2299 65.5398 50.3825 65.5398 50.5416Z" fill="#2D3171"/>
<path d="M65.5398 52.6576C65.5398 52.7763 65.5047 52.8922 65.4388 52.9909C65.3728 53.0896 65.2791 53.1665 65.1695 53.2119C65.0598 53.2573 64.9392 53.2692 64.8228 53.2461C64.7064 53.2229 64.5996 53.1658 64.5157 53.0818C64.4318 52.9979 64.3745 52.891 64.3514 52.7747C64.3282 52.6583 64.3401 52.5376 64.3855 52.428C64.431 52.3183 64.5078 52.2246 64.6065 52.1587C64.7052 52.0928 64.8212 52.0576 64.9399 52.0576C65.099 52.0576 65.2517 52.1208 65.3642 52.2333C65.4767 52.3459 65.5398 52.4985 65.5398 52.6576Z" fill="#2D3171"/>
<path d="M44.0363 75.7206L37.8813 75.7106C37.8251 75.4689 37.7916 75.2225 37.7813 74.9746C37.7282 74.3237 37.8555 73.6709 38.1493 73.0876H40.9963C41.9081 73.1809 42.7749 73.5303 43.4963 74.0956C43.6979 74.2467 43.8744 74.4286 44.0193 74.6346C44.1487 74.7839 44.222 74.9736 44.2266 75.1711C44.2311 75.3686 44.1667 75.5615 44.0443 75.7166" fill="#1A6185"/>
<path d="M44.0363 75.7217L37.8812 75.7117C37.8249 75.47 37.7915 75.2236 37.7812 74.9757C39.3503 74.8627 42.3243 74.6636 44.0153 74.6396C44.1447 74.7889 44.2179 74.9786 44.2225 75.1761C44.227 75.3736 44.1626 75.5666 44.0402 75.7217" fill="#0B4063"/>
<path d="M28.3273 53.3177C28.0439 53.3242 27.7632 53.2607 27.5101 53.133C27.257 53.0052 27.0393 52.817 26.8762 52.585C26.7132 52.3531 26.6099 52.0845 26.5753 51.8031C26.5408 51.5217 26.5762 51.2361 26.6783 50.9716C27.0413 49.6236 30.7723 48.9066 31.0143 49.3786C31.1155 49.5522 31.1681 49.7498 31.1667 49.9507C31.1653 50.1516 31.1099 50.3485 31.0063 50.5207C30.8443 50.7357 28.3273 53.3206 28.3273 53.3206" fill="#40312A"/>
<path d="M30.6227 53.4587C30.4822 53.5307 30.3285 53.5732 30.1709 53.5836C30.0134 53.5939 29.8554 53.5718 29.7067 53.5187L29.6857 53.5107C29.7178 53.7024 29.7771 53.8887 29.8617 54.0637C29.9747 54.311 30.1616 54.5172 30.3967 54.6537C30.9967 54.9767 30.4407 55.7367 29.5347 55.7537C28.7897 55.6313 28.1018 55.2784 27.5677 54.7447C27.8597 54.469 28.065 54.1142 28.1587 53.7237C28.2154 53.3152 28.2197 52.9013 28.1717 52.4917C28.1717 52.4917 27.5837 52.4107 27.4177 52.0317C27.2517 51.6527 27.3907 51.2557 27.6507 51.2737C27.9107 51.2917 27.8507 51.5867 28.1367 51.5737C28.3787 51.5607 28.4827 51.0807 28.5107 50.9227C28.6983 50.9466 28.8889 50.9302 29.0697 50.8747C29.2781 50.8395 29.473 50.7483 29.6337 50.6109C29.7943 50.4735 29.9146 50.2951 29.9817 50.0947C30.0712 50.283 30.2227 50.4347 30.4107 50.5247C30.5021 50.5767 30.6055 50.604 30.7107 50.604C30.8159 50.604 30.9193 50.5767 31.0107 50.5247C31.3327 52.5317 31.0947 53.2087 30.6227 53.4617" fill="#FEC6AB"/>
<path d="M29.863 54.0626C29.5679 54.0369 29.291 53.9091 29.08 53.7012C28.8689 53.4933 28.7371 53.2183 28.707 52.9236C28.9636 53.2175 29.3067 53.4227 29.687 53.5096C29.7191 53.7013 29.7783 53.8875 29.863 54.0626Z" fill="#FD9B73"/>
<path d="M30.257 50.9595C30.4649 51.2695 30.6031 51.6209 30.6621 51.9895C30.595 52.0276 30.52 52.0497 30.443 52.0541C30.366 52.0584 30.289 52.0449 30.218 52.0145C30.195 51.6624 30.2081 51.3089 30.257 50.9595Z" fill="#FD9B73"/>
<path d="M26.6862 50.9025C26.6862 50.9025 32.5062 50.3445 32.4792 49.5155C32.4522 48.7095 30.9792 49.0225 30.9012 49.0405C30.9012 49.0405 30.6792 47.5835 28.7522 47.6185C26.8252 47.6535 26.3732 49.6265 26.6902 50.9015" fill="#EF8F7A"/>
<path d="M26.6836 50.9015C26.6836 50.9015 32.5046 50.3435 32.4766 49.5145C32.4496 48.7085 30.9766 49.0215 30.8976 49.0395C31.2386 49.9075 26.6866 50.9005 26.6866 50.9005" fill="#F36F56"/>
<path d="M39.7714 55.9157C39.7714 55.9157 40.4714 53.4427 40.8604 53.5327C41.2494 53.6227 40.8604 54.4847 40.8604 54.4847C40.8604 54.4847 42.4385 52.4187 42.9265 52.9237C43.4145 53.4287 42.7474 55.8837 40.7634 56.5347C38.7794 57.1857 39.7714 55.9167 39.7714 55.9167" fill="#FEC6AB"/>
<path d="M24.3845 56.8127C24.8545 56.089 25.49 55.4874 26.2384 55.0577C26.6293 54.8295 27.0454 54.6476 27.4784 54.5157C27.6003 54.4772 27.7241 54.4455 27.8494 54.4207C27.8494 54.4207 29.9704 55.8537 30.1024 54.4207C30.3679 54.3874 30.6363 54.3847 30.9024 54.4127C31.2918 54.4462 31.6742 54.5365 32.0374 54.6807C32.2427 54.7603 32.4402 54.8588 32.6274 54.9747C33.8634 55.7387 35.9274 58.6997 36.1894 58.7357C36.4514 58.7717 39.3124 55.5437 39.6054 55.5107C40.2092 55.7277 40.7394 56.1112 41.1345 56.6168C41.1345 56.8168 38.2064 61.7237 36.6124 61.9167C35.0184 62.1097 32.8715 59.9167 32.8715 59.9167L32.7454 59.9067L26.5914 59.4138C26.0767 60.1682 25.6211 60.9611 25.2284 61.7857C25.287 61.8371 25.3549 61.8768 25.4284 61.9027C24.5674 62.7027 23.9464 63.5727 23.0284 64.2927C22.6525 64.1936 22.3184 63.9763 22.0754 63.6727C21.5224 62.5667 23.0834 58.8257 24.3854 56.8087" fill="#F36F56"/>
<path d="M16.7196 74.3105L22.1366 71.3896C22.3028 71.5753 22.4511 71.7761 22.5796 71.9896C22.936 72.5369 23.1346 73.1718 23.1536 73.8246L20.6476 75.1757C19.802 75.5256 18.8747 75.6295 17.9726 75.4756C17.7236 75.4385 17.482 75.3626 17.2566 75.2506C17.0717 75.1811 16.9169 75.0492 16.8189 74.8778C16.7209 74.7064 16.6857 74.5062 16.7196 74.3116" fill="#1A6185"/>
<path d="M16.7196 74.3105L22.1366 71.3896C22.3028 71.5753 22.4511 71.7761 22.5796 71.9896C21.2536 72.8356 18.7326 74.4256 17.2566 75.2526C17.0717 75.1831 16.9169 75.0513 16.8189 74.8799C16.7209 74.7085 16.6857 74.5082 16.7196 74.3136" fill="#0B4063"/>
<path d="M18.924 75.5417C20.4611 75.451 21.9833 75.1884 23.4619 74.7587C23.4619 74.7587 23.6209 73.2977 22.8759 73.3207C22.1309 73.3437 18.924 75.5417 18.924 75.5417Z" fill="#1A6185"/>
<path d="M22.688 75.3196C22.737 75.4906 34.521 75.5876 35.375 74.9296C36.229 74.2716 36.741 73.2216 35.717 71.7086C34.693 70.1956 33.009 68.1706 33.009 68.1706L37.888 67.3286C37.888 67.3286 37.988 72.9766 38.108 73.1476C39.0638 73.2889 40.0364 73.2723 40.987 73.0986C41.231 72.9526 42.443 65.9746 41.142 64.3646C39.841 62.7546 31.814 64.0956 31.814 64.0956C32.4409 62.7879 32.7621 61.3548 32.753 59.9046C32.765 59.6239 32.769 59.3292 32.765 59.0206C32.7803 57.5417 32.5366 56.0715 32.045 54.6766C31.6821 54.5324 31.3 54.4421 30.911 54.4086L31.399 57.8666L28.547 58.0996L27.483 54.5116C27.05 54.6434 26.6338 54.8253 26.243 55.0536C26.8262 55.7579 27.153 56.6393 27.17 57.5536C27.2206 58.2215 27.0166 58.8839 26.599 59.4076C26.579 59.4736 26.213 60.6436 25.872 62.0926C25.6485 63.0201 25.4782 63.9597 25.362 64.9066C25.324 65.2466 25.301 65.5746 25.294 65.8816C25.2808 66.2378 25.3073 66.5943 25.373 66.9446C25.4295 67.1921 25.5264 67.4286 25.66 67.6446C26.846 69.6506 30.935 71.7056 30.935 71.7056C28.2242 71.5968 25.5137 71.9263 22.908 72.6816C22.7379 73.5491 22.6641 74.4328 22.688 75.3166" fill="#BAD4AE"/>
<path d="M25.3714 66.9517C25.4279 67.1992 25.5249 67.4357 25.6583 67.6517C27.5453 67.6877 27.6153 65.5037 27.6153 65.5037C26.8583 65.7212 26.0789 65.8518 25.2923 65.8927C25.2792 66.2489 25.3057 66.6054 25.3714 66.9557" fill="#6FA257"/>
<path d="M31.6018 59.6077C30.6018 59.5977 29.6025 59.6645 28.6127 59.8076C28.5027 59.9296 28.7468 61.8446 30.2838 61.6736C30.5116 61.6362 30.7289 61.5513 30.9218 61.4243C31.1146 61.2973 31.2785 61.1313 31.4028 60.9368C31.5272 60.7422 31.6092 60.5237 31.6434 60.2954C31.6777 60.0671 31.6635 59.834 31.6018 59.6116" fill="#0B4063"/>
<path d="M36.0941 63.2797C36.0941 63.2797 29.0581 73.5797 25.3051 70.3937C21.7051 67.3357 32.5771 60.3236 32.5771 60.3236L36.0941 63.2797Z" fill="#666BB1"/>
<path d="M32.5794 60.3225C32.1994 60.7745 32.6794 61.8016 33.6504 62.6226C34.6214 63.4436 35.7164 63.7346 36.0964 63.2826C36.4764 62.8306 35.9964 61.8035 35.0254 60.9825C34.0544 60.1615 32.9594 59.8705 32.5794 60.3225Z" fill="#6C6C6C"/>
<path d="M35.0481 61.8796C35.0481 61.8796 43.7791 51.4676 43.2951 51.0146C43.0311 50.7676 34.221 60.6206 34.02 61.0806C33.715 61.7806 34.458 62.2476 35.049 61.8806" fill="#6F3A3A"/>
<g style="mix-blend-mode:screen">
<mask id="mask0_153_2483" style="mask-type:luminance" maskUnits="userSpaceOnUse" x="25" y="63" width="6" height="6">
<path d="M30.5959 63.7576H25.8669V68.8466H30.5959V63.7576Z" fill="white"/>
</mask>
<g mask="url(#mask0_153_2483)">
<path d="M27.8857 65.9826C26.5937 67.3766 25.7017 68.6496 25.8927 68.8266C26.0837 69.0036 27.2857 68.0165 28.5767 66.6265C29.8677 65.2365 30.7607 63.9595 30.5697 63.7825C30.3787 63.6055 29.1767 64.5926 27.8857 65.9826Z" fill="#333333"/>
</g>
</g>
<path d="M41.6656 52.3385C41.6656 52.4225 41.6656 52.4985 41.6656 52.5615C41.6656 52.6865 41.6786 52.7615 41.6786 52.7615L42.0956 53.1045C43.4106 53.1395 44.0496 53.0625 44.5866 52.3705C45.23 51.521 45.7479 50.5834 46.1246 49.5865C46.0492 49.4644 45.9486 49.3598 45.8296 49.2795C45.4719 48.9596 45.0397 48.7344 44.5726 48.6245C43.5714 49.3249 42.6753 50.1647 41.9116 51.1185C41.7322 51.4984 41.6459 51.9156 41.6596 52.3355" fill="#6F3A3A"/>
<path d="M29.0906 63.9276C29.0906 63.9276 31.5446 63.1636 31.6826 63.5396C31.8206 63.9156 30.8827 64.0596 30.8827 64.0596C30.8827 64.0596 33.4746 64.2537 33.3186 64.9377C33.1626 65.6217 30.7406 66.4036 29.1126 65.0956C27.4846 63.7876 29.0887 63.9267 29.0887 63.9267" fill="#FEC6AB"/>
<path d="M25.4265 61.9045C25.5365 61.9575 25.6874 62.0245 25.8674 62.1045C27.0394 62.6045 29.4284 63.5045 29.5364 63.6785C29.6056 64.2683 29.5076 64.8657 29.2534 65.4025C27.9411 65.364 26.6353 65.2019 25.3534 64.9185C24.5613 64.7749 23.7821 64.5675 23.0234 64.2985C23.9394 63.5785 24.5604 62.7054 25.4234 61.9084" fill="#F36F56"/>
<path d="M81.124 30.3206C81.011 30.4606 77.705 31.4326 72.634 32.8436C60.634 36.1796 38.739 41.9796 25.818 45.0886C19.929 46.5066 15.903 47.3656 15.526 47.1776C14.912 46.8696 12.962 40.3136 11.16 33.3776L11.036 32.8996C9.08498 25.3446 7.34998 17.4906 7.73598 16.8656C8.22998 16.0656 29.306 10.4866 47.436 5.96562C51.027 5.06562 54.502 4.21462 57.68 3.44762C66.48 1.31762 72.99 -0.152383 73.333 0.0126167C75.649 1.09962 81.879 29.3716 81.123 30.3256" fill="#666BB1"/>
<path d="M35.4309 27.1745C35.6829 26.7335 52.2509 22.8745 52.5819 22.9285C52.9129 22.9825 53.575 25.5206 53.464 25.6856C53.353 25.8506 36.534 30.0976 36.313 29.9316C36.092 29.7656 35.2129 27.5605 35.4309 27.1745Z" fill="#EA9C9C"/>
<path d="M72.6334 32.8425C60.6334 36.1785 38.7384 41.9785 25.8174 45.0875C25.6634 44.6235 25.4844 44.0745 25.2914 43.4815C25.2224 43.2675 25.1494 43.0475 25.0774 42.8245C24.9254 42.3555 24.7694 41.8705 24.6154 41.3885C24.5444 41.1675 24.4754 40.9495 24.4064 40.7335C24.2454 40.2275 24.0914 39.7335 23.9494 39.2695C23.8784 39.0395 23.8114 38.8195 23.7494 38.6075C23.5218 37.9565 23.3496 37.2875 23.2344 36.6075C23.3174 36.1075 69.4754 24.4475 69.8894 24.4475C70.2178 24.933 70.4525 25.4757 70.5814 26.0475C70.6524 26.2475 70.7234 26.4725 70.7994 26.7025C70.9464 27.1555 71.0994 27.6515 71.2614 28.1635C71.3284 28.3815 71.3944 28.6025 71.4614 28.8225C71.6084 29.3055 71.7534 29.7945 71.8934 30.2675C71.9604 30.4925 72.0244 30.7155 72.0864 30.9315C72.2974 31.6575 72.4864 32.3215 72.6354 32.8405" fill="#404596"/>
<path d="M70.796 26.6987L23.948 39.2657C23.877 39.0357 23.81 38.8157 23.748 38.6037L70.58 26.0437C70.651 26.2437 70.723 26.4687 70.798 26.6987" fill="white"/>
<path d="M71.4583 28.8235L24.6153 41.3885C24.5443 41.1676 24.4752 40.9496 24.4062 40.7336L71.2582 28.1646C71.3252 28.3826 71.3913 28.6035 71.4583 28.8235Z" fill="white"/>
<path d="M72.0832 30.9326L25.2902 43.4805C25.2212 43.2665 25.1482 43.0465 25.0762 42.8235L71.8892 30.2686C71.9562 30.4936 72.0202 30.7166 72.0822 30.9326" fill="white"/>
<g style="mix-blend-mode:screen" opacity="0.195">
<mask id="mask1_153_2483" style="mask-type:luminance" maskUnits="userSpaceOnUse" x="7" y="5" width="41" height="29">
<path d="M47.4916 5.96167H7.68164V33.3767H47.4916V5.96167Z" fill="white"/>
</mask>
<g mask="url(#mask1_153_2483)">
<path d="M11.1596 33.3767L11.0356 32.8987C9.0846 25.3437 7.34961 17.4897 7.73561 16.8647C8.22961 16.0647 29.3056 10.4857 47.4356 5.96472C48.5066 12.1137 33.7456 29.5647 11.1576 33.3797" fill="#333333"/>
</g>
</g>
<path d="M69.3866 4.27463C69.4259 4.45241 69.4118 4.63785 69.3457 4.80753C69.2797 4.97721 69.1648 5.1235 69.0157 5.22793C68.8665 5.33237 68.6898 5.39025 68.5077 5.39426C68.3257 5.39828 68.1466 5.34825 67.993 5.2505C67.8393 5.15275 67.7181 5.01166 67.6447 4.84506C67.5712 4.67846 67.5488 4.49383 67.5802 4.31449C67.6117 4.13515 67.6956 3.96915 67.8213 3.83746C67.9471 3.70578 68.109 3.61431 68.2867 3.57463C68.4049 3.54823 68.5271 3.54541 68.6464 3.56632C68.7657 3.58723 68.8797 3.63146 68.9818 3.69648C69.084 3.7615 69.1724 3.84603 69.2419 3.94523C69.3113 4.04444 69.3605 4.15637 69.3866 4.27463Z" fill="#318FB5"/>
<path d="M66.2266 4.98166C66.2659 5.15944 66.2516 5.34488 66.1856 5.51456C66.1195 5.68424 66.0047 5.83054 65.8555 5.93497C65.7064 6.0394 65.5296 6.09728 65.3476 6.1013C65.1655 6.10532 64.9864 6.05528 64.8328 5.95753C64.6792 5.85978 64.558 5.71869 64.4845 5.55209C64.4111 5.38549 64.3886 5.20086 64.4201 5.02152C64.4515 4.84218 64.5354 4.67618 64.6612 4.54449C64.7869 4.41281 64.9488 4.32134 65.1265 4.28166C65.2447 4.25527 65.367 4.25244 65.4862 4.27335C65.6055 4.29426 65.7195 4.33849 65.8217 4.40351C65.9239 4.46853 66.0122 4.55307 66.0817 4.65227C66.1512 4.75148 66.2004 4.86341 66.2266 4.98166Z" fill="#FB503A"/>
<path d="M63.0683 5.6887C63.1076 5.86648 63.0934 6.05192 63.0274 6.22159C62.9613 6.39127 62.8465 6.53757 62.6973 6.642C62.5482 6.74644 62.3714 6.80432 62.1894 6.80833C62.0073 6.81235 61.8282 6.76232 61.6746 6.66456C61.521 6.56681 61.3998 6.42572 61.3263 6.25912C61.2529 6.09252 61.2304 5.90789 61.2619 5.72855C61.2933 5.54921 61.3772 5.38321 61.503 5.25152C61.6287 5.11984 61.7906 5.02837 61.9683 4.98869C62.0865 4.9623 62.2087 4.95947 62.328 4.98038C62.4473 5.00129 62.5613 5.04552 62.6635 5.11054C62.7657 5.17556 62.854 5.2601 62.9235 5.3593C62.993 5.45851 63.0421 5.57044 63.0683 5.6887Z" fill="#F8EA42"/>
<path d="M11.4956 37.7017C10.3956 37.6597 9.72464 37.1117 9.89564 36.3247C10.0666 35.5377 10.9076 34.1327 11.9476 34.8347C12.9876 35.5367 11.4976 37.7017 11.4976 37.7017" fill="#40312A"/>
<path d="M13.0912 38.8305C13.0912 39.4925 13.1412 40.0625 13.1412 40.0625C13.1412 40.0625 11.0332 40.0205 10.9492 39.7815C11.056 38.8252 11.225 37.8768 11.4552 36.9425C11.4627 36.8671 11.4908 36.7952 11.5365 36.7347C11.5823 36.6743 11.6438 36.6277 11.7144 36.6C11.785 36.5724 11.8618 36.5649 11.9365 36.5782C12.0111 36.5915 12.0806 36.6252 12.1372 36.6755C12.4175 36.8715 12.6612 37.1152 12.8572 37.3955C12.9595 37.5347 13.0543 37.6792 13.1412 37.8285C13.1057 38.1606 13.089 38.4945 13.0912 38.8285" fill="#FEC6AB"/>
<path d="M13.1393 37.8287C13.1037 38.1609 13.087 38.4947 13.0893 38.8287C12.7003 38.6716 12.3594 38.4152 12.1004 38.0851C11.8414 37.7551 11.6734 37.3629 11.6133 36.9478C11.6133 36.9478 12.0643 37.0838 12.8513 37.3958C12.9535 37.535 13.0483 37.6795 13.1353 37.8287" fill="#FD9B73"/>
<path d="M14.2793 34.0247L14.3543 34.5496C14.6784 34.8881 14.9672 35.2587 15.2163 35.6556C15.2723 35.8806 14.7483 36.0867 14.7483 36.0867C14.7483 36.0867 14.7103 37.6796 14.4863 37.8666C13.8558 38.0898 13.1678 38.0898 12.5373 37.8666C12.326 37.7908 12.1341 37.6692 11.9754 37.5105C11.8167 37.3518 11.6951 37.1599 11.6193 36.9487C11.5761 37.0248 11.5049 37.0811 11.4209 37.1056C11.3368 37.1301 11.2465 37.1207 11.1693 37.0797C10.9513 36.9887 10.4383 36.2176 10.7383 35.8796C10.8346 35.7836 10.9572 35.7181 11.0906 35.6914C11.224 35.6647 11.3624 35.6781 11.4883 35.7297L14.2793 34.0247Z" fill="#FEC6AB"/>
<path d="M11.4883 35.7295C13.7183 35.6355 14.8703 34.0055 14.4213 33.6405C13.9723 33.2755 11.4883 35.7295 11.4883 35.7295Z" fill="#40312A"/>
<path d="M2.994 70.0245L0 65.6025C0.145038 65.4432 0.304742 65.298 0.477 65.1686C0.918217 64.8129 1.44904 64.5859 2.011 64.5126L3.396 66.5576C3.7725 67.2569 3.94375 68.0482 3.89 68.8406C3.87967 69.0588 3.83513 69.2741 3.758 69.4785C3.71418 69.6443 3.61387 69.7896 3.47439 69.8893C3.33491 69.989 3.165 70.0368 2.994 70.0245Z" fill="#1A6185"/>
<path d="M2.994 70.0245L0 65.6036C0.145113 65.4444 0.304809 65.299 0.477 65.1696C1.323 66.2406 2.916 68.2786 3.758 69.4806C3.71418 69.6463 3.61387 69.7916 3.47439 69.8912C3.33491 69.9909 3.165 70.0388 2.994 70.0266" fill="#0B4063"/>
<path d="M13.141 58.2147C12.5778 59.3402 11.9247 60.4183 11.188 61.4387C10.288 62.5627 3.87999 66.3297 3.37399 66.3857C2.86799 66.4417 1.79999 65.2057 1.96899 64.4747C2.13799 63.7437 7.58999 59.8097 8.03999 59.1347C8.48999 58.4597 9.50799 52.8957 9.49899 52.7347C9.48999 52.5737 13.141 58.2187 13.141 58.2187" fill="#F36F56"/>
<path d="M15.6848 71.6417H10.3448C10.2942 71.4321 10.2633 71.2181 10.2528 71.0027C10.2059 70.4379 10.3156 69.8712 10.5698 69.3647H13.0398C13.8298 69.4454 14.581 69.7476 15.2068 70.2367C15.3816 70.3677 15.5348 70.5253 15.6608 70.7037C15.7734 70.8331 15.8373 70.9976 15.8415 71.1691C15.8457 71.3405 15.7899 71.508 15.6838 71.6427" fill="#1A6185"/>
<path d="M15.684 71.6416H10.344C10.2934 71.4319 10.2626 71.218 10.252 71.0026C11.614 70.9026 14.193 70.7265 15.661 70.7025C15.7733 70.8318 15.8371 70.9961 15.8413 71.1674C15.8455 71.3386 15.7899 71.5059 15.684 71.6405" fill="#0B4063"/>
<path d="M17.539 59.9786C17.427 62.6196 13.66 68.9716 13.3791 69.3646C13.0593 69.5763 12.6768 69.6724 12.2951 69.6367C12.1951 69.6367 12.089 69.6367 11.983 69.6367C11.4964 69.6585 11.0116 69.565 10.568 69.3636C10.118 69.0266 13.2381 59.8066 13.1401 59.4136C13.0421 59.0206 9.95005 56.7306 9.55605 53.4346C9.16205 50.1386 10.124 39.2916 10.982 39.2916C13.505 39.2916 14.782 40.6917 15.22 43.2797C15.72 46.2497 14.8971 48.6986 15.4591 51.6386C16.0211 54.5786 17.651 57.3396 17.539 59.9786Z" fill="#EA9C9C"/>
<path d="M16.0064 59.5885C15.5994 60.9999 15.0669 62.3721 14.4154 63.6885C13.4465 65.5687 12.7339 67.5702 12.2964 69.6395C12.1964 69.6395 12.0904 69.6395 11.9844 69.6395C12.1184 68.0625 13.1844 65.6875 14.1304 63.5605C14.7724 62.265 15.2981 60.915 15.7014 59.5265C15.8934 58.5725 15.2864 57.0065 14.5834 55.1915C14.3464 54.5775 14.0944 53.9295 13.8554 53.2555C13.6164 52.5815 13.3774 51.8555 13.1794 51.1305C12.6723 49.4314 12.5098 47.6482 12.7014 45.8855L13.0104 45.9265C12.8349 47.4886 12.9546 49.0697 13.3634 50.5875C13.5847 51.4675 13.8517 52.3353 14.1634 53.1875C14.3994 53.8465 14.6444 54.4805 14.8774 55.0815C15.6274 57.0175 16.2184 58.5465 16.0094 59.5915" fill="#F36F56"/>
<path d="M18.9706 48.1037C17.5406 48.9847 15.9786 49.6187 15.0416 49.1817C14.8576 49.0424 14.6833 48.8987 14.5186 48.7507C14.2849 48.5427 14.0676 48.3171 13.8686 48.0757C12.4066 46.2757 9.28663 41.5687 11.7226 40.3277C13.4836 39.4277 14.6726 41.8277 15.6766 44.0067V44.0177C16.0521 44.974 16.5381 45.8832 17.1246 46.7267C17.6584 47.2847 18.2812 47.75 18.9676 48.1037" fill="#F7CD49"/>
<path d="M14.1597 53.1837C14.113 53.2031 14.0649 53.2188 14.0157 53.2307C13.9627 53.244 13.9084 53.2517 13.8537 53.2537C13.6087 52.5697 13.3757 51.8537 13.1777 51.1287C13.2107 50.8117 13.2527 50.5887 13.2527 50.5887H13.3617C13.8358 50.5467 14.301 50.4341 14.7417 50.2546C14.7417 50.2546 15.2817 52.7076 14.1597 53.1866" fill="#F36F56"/>
<path d="M21.1344 43.9646C21.1344 43.9646 22.9614 41.8146 23.1864 41.8706C23.4114 41.9266 22.9474 42.9156 22.9474 42.9156C22.9474 42.9156 24.8584 41.3766 25.4064 41.8696C25.9544 42.3626 24.6194 44.9346 21.9914 45.1696C19.3634 45.4046 21.1344 43.9606 21.1344 43.9606" fill="#FEC6AB"/>
<path d="M22.2575 45.2567C22.2735 45.5817 20.7195 47.0287 18.9705 48.1067C17.5405 48.9877 15.9785 49.6217 15.0415 49.1837C14.8316 49.0896 14.6509 48.9408 14.5185 48.7527C13.5285 47.3347 15.6775 44.0087 15.6775 44.0087V44.0197C16.3505 45.4567 16.8035 45.6197 17.2235 45.5097C17.6435 45.3997 21.1305 43.3457 21.4115 43.5987C21.8556 44.0521 22.1498 44.6308 22.2545 45.2567" fill="#F7CD49"/>
<path d="M9.83594 36.3786C14.4229 34.8316 16.0719 33.2196 15.8809 32.6786C15.6899 32.1376 12.8069 33.7315 12.8069 33.7315L9.83594 36.3786Z" fill="#F36F56"/>
<path d="M14.211 33.2535C14.3351 33.4985 14.4243 33.7597 14.476 34.0295L9.83195 36.3766C9.647 36.1763 9.49053 35.9515 9.36696 35.7085V35.7015C9.18942 35.3817 9.07827 35.0293 9.04017 34.6655C9.00207 34.3017 9.0378 33.9339 9.14523 33.5842C9.25266 33.2345 9.42956 32.9101 9.66536 32.6305C9.90115 32.3508 10.191 32.1216 10.5175 31.9566C10.844 31.7916 11.2004 31.6942 11.5654 31.6703C11.9304 31.6463 12.2965 31.6963 12.6418 31.8172C12.987 31.9381 13.3043 32.1275 13.5747 32.3739C13.845 32.6204 14.0628 32.9189 14.215 33.2516" fill="#EF8F7A"/>
<path d="M9.83603 36.3786C14.752 34.1706 14.115 33.0726 14.115 33.0726C14.115 33.0726 14.667 33.7116 14.601 33.9726C14.0271 34.5207 13.3604 34.9625 12.632 35.2776C12.092 35.5206 9.83203 36.3776 9.83203 36.3776" fill="#DE331E"/>
<path d="M79.2759 52.3297L84.9289 50.1627C84.8971 49.9205 84.8429 49.6818 84.7669 49.4497C84.5875 48.8329 84.2415 48.2775 83.7669 47.8447L81.1519 48.8447C80.3482 49.2499 79.6754 49.8738 79.2108 50.6447C79.0785 50.8543 78.98 51.0835 78.9188 51.3237C78.853 51.5058 78.8526 51.7052 78.9175 51.8876C78.9824 52.07 79.1087 52.2242 79.2748 52.3237" fill="#1A6185"/>
<path d="M79.275 52.3307L84.928 50.1636C84.8963 49.9214 84.8421 49.6828 84.766 49.4507C83.284 49.8977 80.482 50.7577 78.919 51.3287C78.8532 51.5108 78.8527 51.7101 78.9176 51.8925C78.9826 52.0749 79.109 52.2291 79.275 52.3287" fill="#0B4063"/>
<path d="M81.1329 52.5256H87.1869C87.2429 52.2879 87.2765 52.0455 87.287 51.8016C87.3405 51.1613 87.2162 50.5188 86.928 49.9446H84.1279C83.2322 50.0358 82.3804 50.3783 81.6709 50.9326C81.4725 51.0808 81.2987 51.2593 81.1559 51.4616C81.0285 51.6082 80.9562 51.7947 80.9514 51.989C80.9467 52.1832 81.0098 52.3729 81.1299 52.5256" fill="#1A6185"/>
<path d="M81.1312 52.5247H87.1852C87.2412 52.287 87.2747 52.0446 87.2853 51.8007C85.7423 51.6877 82.8182 51.4877 81.1542 51.4607C81.0266 51.6072 80.9542 51.7937 80.9495 51.988C80.9447 52.1822 81.0079 52.3721 81.1282 52.5247" fill="#0B4063"/>
<path d="M74.5676 23.4706C74.5676 23.4706 73.0176 21.3706 72.8066 21.4106C72.5956 21.4506 72.9617 22.3886 72.9617 22.3886C72.9617 22.3886 71.2957 20.8496 70.7617 21.2696C70.2277 21.6896 71.2956 24.1446 73.7036 24.5306C76.1116 24.9166 74.5707 23.4696 74.5707 23.4696" fill="#FEC6AB"/>
<path d="M84.9357 18.3367C85.9427 18.2977 86.5627 17.7948 86.4077 17.0718C86.2527 16.3488 85.4787 15.0577 84.5227 15.7027C83.5667 16.3477 84.9357 18.3367 84.9357 18.3367Z" fill="#40312A"/>
<path d="M83.47 19.3736C83.47 19.9816 83.4241 20.5056 83.4241 20.5056C83.4241 20.5056 85.361 20.4666 85.438 20.2476C85.3398 19.3691 85.1845 18.4979 84.973 17.6396C84.9663 17.5703 84.9405 17.5042 84.8986 17.4487C84.8566 17.3932 84.8 17.3504 84.7352 17.325C84.6704 17.2996 84.5998 17.2927 84.5312 17.305C84.4627 17.3173 84.399 17.3483 84.347 17.3946C84.0893 17.5744 83.8652 17.7981 83.6851 18.0556C83.5911 18.1842 83.504 18.3177 83.4241 18.4556C83.4569 18.7615 83.4722 19.069 83.47 19.3766" fill="#FEC6AB"/>
<path d="M83.424 18.4516C83.4568 18.7575 83.4722 19.065 83.47 19.3726C83.8268 19.2272 84.1393 18.991 84.3766 18.6876C84.614 18.3841 84.7678 18.0239 84.8229 17.6426C84.8229 17.6426 84.408 17.7676 83.685 18.0546C83.5909 18.1832 83.5038 18.3167 83.424 18.4546" fill="#FD9B73"/>
<path d="M82.3766 14.9546L82.3076 15.4366C82.0098 15.7475 81.7444 16.0879 81.5156 16.4526C81.4636 16.6596 81.9456 16.8526 81.9456 16.8526C81.9456 16.8526 81.9807 18.3156 82.1867 18.4876C82.7657 18.6926 83.3975 18.6926 83.9766 18.4876C84.1707 18.4179 84.347 18.3062 84.4929 18.1605C84.6388 18.0148 84.7507 17.8386 84.8206 17.6446C84.8602 17.7145 84.9255 17.7662 85.0027 17.7886C85.0799 17.8111 85.1628 17.8024 85.2337 17.7646C85.4337 17.6806 85.9046 16.9726 85.6336 16.6646C85.5451 16.5765 85.4328 16.5165 85.3104 16.4919C85.1881 16.4674 85.0611 16.4795 84.9456 16.5266L82.3766 14.9546Z" fill="#FEC6AB"/>
<path d="M84.9424 16.5235C82.8944 16.4375 81.8354 14.9395 82.2484 14.6045C82.6614 14.2695 84.9424 16.5235 84.9424 16.5235Z" fill="#40312A"/>
<path d="M86.46 17.1207C82.246 15.6997 80.731 14.2207 80.906 13.7207C81.081 13.2207 83.731 14.6887 83.731 14.6887L86.46 17.1207Z" fill="#F36F56"/>
<path d="M82.4384 14.2465C82.3244 14.4717 82.2426 14.7117 82.1953 14.9595L86.4613 17.1155C86.6317 16.9316 86.7757 16.725 86.8893 16.5015V16.4945C87.0634 16.1999 87.1751 15.8728 87.2177 15.5333C87.2602 15.1937 87.2325 14.8491 87.1365 14.5207C87.0404 14.1923 86.8779 13.8871 86.6591 13.6241C86.4403 13.361 86.1699 13.1456 85.8645 12.9913C85.5591 12.837 85.2252 12.747 84.8837 12.727C84.5421 12.7069 84.2 12.7572 83.8787 12.8746C83.5573 12.9921 83.2635 13.1743 83.0154 13.4099C82.7673 13.6456 82.5702 13.9296 82.4363 14.2445" fill="#EF8F7A"/>
<path d="M86.4603 17.1205C81.9433 15.0925 82.5293 14.0835 82.5293 14.0835C82.5293 14.0835 82.0222 14.6705 82.0832 14.9085C82.6104 15.4124 83.223 15.8187 83.8923 16.1085C84.3923 16.3315 86.4603 17.1205 86.4603 17.1205Z" fill="#DE331E"/>
<path d="M82.0135 31.6646C82.0135 31.6646 78.4076 39.5136 78.3336 41.5416C78.2596 43.5696 80.8136 48.5846 81.1516 48.8466C81.4896 49.1086 83.6596 49.1646 83.9376 48.4886C84.2156 47.8126 82.0135 31.6646 82.0135 31.6646Z" fill="#E08787"/>
<path d="M87.647 34.9696C87.121 37.2226 85.882 41.0156 86.37 42.6306C86.8888 45.0227 87.1031 47.4707 87.008 49.9166C86.908 50.1006 86.403 50.1956 85.826 50.2166C85.749 50.2166 85.67 50.2166 85.591 50.2166C85.0451 50.2457 84.4994 50.1567 83.991 49.9556C83.465 49.6176 81.642 43.2296 81.342 41.3896C81.042 39.5496 82.018 31.6626 82.018 31.6626C81.2612 29.672 80.8811 27.5581 80.897 25.4286C80.9678 23.4206 81.7512 21.5035 83.107 20.0206C83.774 19.3706 85.1871 19.0336 85.3491 19.2296C86.2181 20.2826 86.544 21.7436 86.435 24.8656C86.308 28.5066 86.029 29.6726 86.465 30.4236C86.9761 31.0522 87.3466 31.783 87.5513 32.5669C87.7561 33.3507 87.7904 34.1693 87.652 34.9676" fill="#EA9C9C"/>
<path d="M85.8307 50.2157C85.7537 50.2157 85.6747 50.2157 85.5957 50.2157C85.4957 49.2277 85.0957 47.5037 84.7407 45.9427C84.4687 44.7537 84.2136 43.6326 84.1046 42.9276C84.0067 41.461 84.0843 39.9879 84.3357 38.5396C84.4957 37.2396 84.6597 35.8917 84.6887 34.5987C84.519 31.3258 84.127 28.0683 83.5156 24.8487L83.7467 24.8066C84.3606 28.0429 84.7539 31.3171 84.9237 34.6067C84.8957 35.9067 84.7297 37.2637 84.5697 38.5717C84.32 39.9982 84.2398 41.4493 84.3307 42.8947C84.4377 43.5947 84.6937 44.7097 84.9647 45.8947C85.3397 47.5347 85.7247 49.2186 85.8257 50.2166" fill="#F6D046"/>
<path d="M84.9434 21.1115C83.0934 20.0385 80.7784 24.1615 79.5954 24.3585C78.4124 24.5555 74.8774 22.8865 74.5114 23.0835C74.1454 23.2805 73.3283 24.4075 73.4973 24.8295C73.6663 25.2515 77.9764 28.1295 80.5114 27.7585C83.0464 27.3875 87.5164 22.6045 84.9434 21.1115Z" fill="#F7CD49"/>
<path d="M84.8035 32.2937C84.0271 32.4306 83.2328 32.4306 82.4564 32.2937C82.4378 32.6276 82.4978 32.9613 82.6315 33.2678C82.7652 33.5744 82.969 33.8452 83.2265 34.0587C83.6766 34.4113 84.2317 34.6032 84.8035 34.6037V32.2937Z" fill="#F6D046"/>
</svg>
