<svg width="30" height="22" viewBox="0 0 30 22" fill="none" xmlns="http://www.w3.org/2000/svg">
<path d="M29.8731 11.535C29.8736 11.4428 29.8545 11.3516 29.8171 11.2674C29.7798 11.1832 29.725 11.1078 29.6563 11.0463C29.6571 10.9808 29.6328 10.9175 29.5884 10.8693L26.1022 5.06422C25.9225 4.76364 25.6682 4.51456 25.3639 4.34109C25.0597 4.16762 24.7158 4.07563 24.3656 4.07405H19.0222V0.684114C19.0222 0.504165 18.9507 0.331583 18.8235 0.20434C18.6963 0.0770963 18.5237 0.00561523 18.3437 0.00561523H0.711702C0.531753 0.00561523 0.359171 0.0770963 0.231928 0.20434C0.104684 0.331583 0.0332031 0.504165 0.0332031 0.684114V18.3161C0.0332031 18.4961 0.104684 18.6687 0.231928 18.7959C0.359171 18.9232 0.531753 18.9946 0.711702 18.9946H4.17475C4.29102 19.802 4.69437 20.5403 5.31086 21.0744C5.92735 21.6085 6.71568 21.9024 7.53133 21.9024C8.34699 21.9024 9.13531 21.6085 9.75181 21.0744C10.3683 20.5403 10.7716 19.802 10.8879 18.9946H20.5101C20.6659 19.7611 21.0818 20.4501 21.6875 20.945C22.2931 21.4399 23.0512 21.7103 23.8333 21.7103C24.6154 21.7103 25.3735 21.4399 25.9791 20.945C26.5848 20.4501 27.0007 19.7611 27.1565 18.9946H27.903C28.4307 18.977 28.9308 18.7549 29.2977 18.3753C29.6646 17.9957 29.8695 17.4884 29.8692 16.9604V11.6851C29.8756 11.6357 29.8756 11.5857 29.8692 11.5363L29.8731 11.535ZM28.0018 10.8565H23.0919V8.14377H26.3741L28.0018 10.8565ZM1.39148 1.36518H17.6665V17.6402H10.8854C10.7295 16.8738 10.3136 16.1847 9.70796 15.6898C9.10233 15.1949 8.34424 14.9246 7.56212 14.9246C6.78 14.9246 6.02191 15.1949 5.41628 15.6898C4.81065 16.1847 4.39469 16.8738 4.23888 17.6402H1.3902L1.39148 1.36518ZM7.49542 20.3478C7.02478 20.3481 6.5686 20.1851 6.20462 19.8868C5.84064 19.5884 5.59137 19.1731 5.4993 18.7115C5.40723 18.25 5.47805 17.7708 5.69969 17.3556C5.92133 16.9404 6.28008 16.6149 6.7148 16.4346C7.14953 16.2543 7.63332 16.2303 8.08377 16.3667C8.53421 16.5031 8.92342 16.7914 9.18508 17.1826C9.44674 17.5738 9.56465 18.0437 9.51873 18.5121C9.4728 18.9805 9.26588 19.4184 8.93323 19.7514C8.74479 19.942 8.52052 20.0935 8.27333 20.1972C8.02614 20.3009 7.76091 20.3547 7.49286 20.3555L7.49542 20.3478ZM23.7704 20.3478C23.2998 20.3481 22.8436 20.1851 22.4796 19.8868C22.1157 19.5884 21.8664 19.1731 21.7743 18.7115C21.6823 18.25 21.7531 17.7708 21.9747 17.3556C22.1963 16.9404 22.5551 16.6149 22.9898 16.4346C23.4245 16.2543 23.9083 16.2303 24.3588 16.3667C24.8092 16.5031 25.1985 16.7914 25.4601 17.1826C25.7218 17.5738 25.8397 18.0437 25.7937 18.5121C25.7478 18.9805 25.5409 19.4184 25.2082 19.7514C25.02 19.9418 24.7959 20.0933 24.5489 20.1969C24.302 20.3006 24.037 20.3545 23.7692 20.3555L23.7704 20.3478ZM27.8389 17.6351H27.1604C27.004 16.8693 26.5878 16.1811 25.9824 15.6868C25.3769 15.1926 24.6194 14.9226 23.8378 14.9226C23.0562 14.9226 22.2986 15.1926 21.6932 15.6868C21.0877 16.1811 20.6716 16.8693 20.5152 17.6351H19.0222V5.43105H24.3656C24.4806 5.43143 24.5935 5.46164 24.6933 5.51874C24.7932 5.57585 24.8764 5.65789 24.9351 5.75683L25.5584 6.78292H22.4122C22.2322 6.78292 22.0596 6.85441 21.9324 6.98165C21.8051 7.10889 21.7337 7.28148 21.7337 7.46142V11.5299C21.7335 11.619 21.7509 11.7073 21.785 11.7897C21.819 11.8721 21.869 11.947 21.932 12.01C21.9951 12.073 22.0699 12.123 22.1523 12.157C22.2347 12.1911 22.323 12.2085 22.4122 12.2084H28.5161V16.954C28.5161 17.134 28.4446 17.3065 28.3174 17.4338C28.1901 17.561 28.0175 17.6325 27.8376 17.6325L27.8389 17.6351Z" fill="#5E43A2"/>
</svg>
