<svg width="26" height="27" viewBox="0 0 26 27" fill="none" xmlns="http://www.w3.org/2000/svg">
<path d="M24.5128 11.9106L23.7348 13.3167L24.5187 14.7228L24.7695 15.1774L24.896 15.4036L24.9593 15.5207C24.978 15.5571 24.9979 15.5899 25.0343 15.6637C25.1629 15.9168 25.2402 16.1929 25.2619 16.476C25.2835 16.7591 25.2489 17.0437 25.1601 17.3134C25.0714 17.5831 24.9302 17.8326 24.7447 18.0476C24.5592 18.2626 24.3331 18.4388 24.0793 18.5661L23.1138 19.016L21.6409 19.6886L21.4276 21.2974L21.3585 21.813L21.3257 22.0696L21.3093 22.1997V22.2629L21.2929 22.359C21.2475 22.632 21.1486 22.8934 21.0018 23.128C20.855 23.3627 20.6633 23.566 20.4377 23.7263C20.212 23.8866 19.9569 24.0007 19.6871 24.0621C19.4172 24.1234 19.1378 24.1308 18.8651 24.0838L17.8281 23.8682L16.1724 23.5167L14.3269 25.4126C14.0642 25.6824 13.729 25.8703 13.3617 25.9535C12.9944 26.0366 12.6109 26.0116 12.2576 25.8813C12.0838 25.8136 11.9211 25.7204 11.7749 25.6047C11.6457 25.5028 11.5279 25.3873 11.4233 25.2602L10.9101 24.6943L9.63761 23.3398L7.90461 23.6913L6.86763 23.901C6.61855 23.9429 6.36367 23.935 6.11764 23.8779C5.87162 23.8208 5.63932 23.7156 5.43412 23.5684C5.22893 23.4211 5.05489 23.2347 4.92204 23.0199C4.7892 22.8051 4.70016 22.5662 4.66007 22.3168L4.51945 21.2623L4.29566 19.5574L2.72318 18.8403L1.75767 18.3985C1.52453 18.2816 1.31676 18.1199 1.14627 17.9225C0.975784 17.7251 0.845935 17.4961 0.76418 17.2484C0.682425 17.0007 0.65037 16.7394 0.669848 16.4793C0.689327 16.2192 0.759962 15.9655 0.877696 15.7328L1.38506 14.7954L2.1877 13.3144L1.52215 12.1286L1.10501 11.3669L0.892929 10.9861C0.784681 10.7959 0.705675 10.5905 0.658575 10.3768C0.601129 10.0731 0.613476 9.76038 0.694674 9.46218C0.775872 9.16398 0.923797 8.88815 1.12727 8.65552C1.22972 8.54026 1.34445 8.43653 1.46942 8.34618C1.53171 8.29786 1.59708 8.25363 1.6651 8.21378C1.73189 8.17745 1.80805 8.13644 1.84438 8.12238L2.39627 7.86811L4.24996 7.02095L4.47376 5.34067L4.62023 4.28611C4.6641 4.03354 4.7574 3.79211 4.89479 3.57568C5.03217 3.35926 5.21093 3.17208 5.42082 3.0249C5.63071 2.87772 5.86759 2.77342 6.11788 2.718C6.36817 2.66257 6.62693 2.65711 6.87934 2.70192L7.91399 2.91752L9.63879 3.28778L9.91532 3.01125C10.3594 2.55076 10.7789 2.13362 11.1656 1.76921L11.4421 1.50674L11.5722 1.37199C11.6272 1.32512 11.6893 1.27005 11.7514 1.22552C11.9791 1.06259 12.2452 0.961643 12.5236 0.932589C12.7145 0.908009 12.9086 0.925364 13.0921 0.983444C13.2757 1.04152 13.4443 1.13893 13.5864 1.26888C13.7762 1.4587 13.8067 1.63329 13.7739 1.71531C13.6883 1.91919 13.3052 1.62743 12.8142 1.77273C12.6901 1.80899 12.5759 1.87311 12.4803 1.9602C12.4558 1.98264 12.4327 2.00651 12.4111 2.03168C12.3889 2.05629 12.3783 2.07621 12.3279 2.13362L12.0772 2.43944C11.7257 2.85658 11.3378 3.30888 10.9242 3.77523L10.3723 4.40445C10.2919 4.49448 10.1899 4.56251 10.0759 4.60208C9.96189 4.64166 9.83967 4.65147 9.72081 4.6306H9.69385L7.65152 4.26619L6.64733 4.07871C6.57844 4.06924 6.50836 4.07359 6.44117 4.09149C6.37397 4.1094 6.31102 4.1405 6.25597 4.18299C6.20028 4.22484 6.15369 4.27759 6.11904 4.33802C6.0844 4.39846 6.06242 4.46531 6.05444 4.53451L5.93727 5.53635L5.70291 7.59978C5.68639 7.73919 5.63471 7.87212 5.55273 7.98607C5.47074 8.10003 5.36114 8.19129 5.23422 8.25127L3.35943 9.13711L2.44079 9.57065C2.38588 9.59867 2.33704 9.63725 2.29706 9.68418C2.25709 9.73111 2.22676 9.78547 2.20782 9.84414C2.18888 9.9028 2.1817 9.96463 2.18669 10.0261C2.19169 10.0875 2.20875 10.1474 2.23691 10.2022L2.72201 11.0822L3.72971 12.9089C3.80042 13.0353 3.83755 13.1777 3.83755 13.3226C3.83755 13.4674 3.80042 13.6098 3.72971 13.7362L2.71733 15.5465L2.22637 16.4265C2.1672 16.5373 2.15414 16.667 2.19004 16.7874C2.22949 16.9064 2.31348 17.0055 2.42439 17.0639L3.33483 17.4975L5.21898 18.3997C5.34107 18.4573 5.44646 18.5452 5.52518 18.6548C5.60391 18.7645 5.65338 18.8925 5.66893 19.0266L5.74393 19.6781L5.97827 21.7497L6.00523 22.0087V22.1001C6.00304 22.1176 6.00304 22.1353 6.00523 22.1528C6.02268 22.2226 6.05373 22.2883 6.09662 22.3461C6.14386 22.4079 6.20328 22.4593 6.27121 22.4972C6.33913 22.5351 6.41411 22.5587 6.4915 22.5664C6.55834 22.5702 6.62537 22.5646 6.69069 22.55L7.11603 22.4621L7.96905 22.291L9.67159 21.9395C9.80049 21.9133 9.93394 21.9203 10.0594 21.9599C10.1848 21.9995 10.2981 22.0703 10.3887 22.1657L11.8124 23.6772L12.5025 24.4107C12.5505 24.4593 12.6076 24.4978 12.6705 24.5241C12.7335 24.5504 12.801 24.5639 12.8693 24.5639C12.9375 24.5639 13.005 24.5504 13.068 24.5241C13.131 24.4978 13.1881 24.4593 13.236 24.4107L13.9262 23.6737L15.344 22.1586C15.436 22.0608 15.5514 21.9879 15.6793 21.947C15.8072 21.906 15.9434 21.8982 16.0752 21.9243L18.1116 22.3332L19.1017 22.5324C19.2446 22.5566 19.3913 22.5232 19.5096 22.4395C19.628 22.3559 19.7084 22.2288 19.7333 22.086L19.8657 21.0842L20.1423 19.0289V19.0149C20.1605 18.8952 20.2085 18.782 20.2818 18.6856C20.3551 18.5892 20.4513 18.5126 20.5617 18.463L22.4623 17.5971L23.3833 17.1776C23.4583 17.1438 23.5258 17.0952 23.5818 17.0348C23.6377 16.9745 23.681 16.9035 23.709 16.8261C23.7372 16.7473 23.7493 16.6637 23.7447 16.5802C23.7401 16.4967 23.7188 16.4149 23.6821 16.3398L23.2017 15.4457L22.2162 13.619C22.1642 13.5253 22.1369 13.4198 22.1369 13.3126C22.1369 13.2054 22.1642 13.0999 22.2162 13.0062L23.5051 10.7494L23.6645 10.4729L23.7395 10.3381C23.7539 10.3123 23.7668 10.2857 23.7782 10.2585C23.8547 10.0873 23.8616 9.89307 23.7973 9.71695C23.7329 9.54084 23.6025 9.39673 23.4337 9.31521L22.0545 8.64146L20.6754 7.95717H20.6508C20.574 7.91933 20.5082 7.86238 20.4598 7.79179C20.4114 7.7212 20.3819 7.63935 20.3743 7.55409L20.1786 5.377L20.1235 4.84385C20.1094 4.67044 20.0989 4.4689 20.079 4.37516C20.0543 4.25278 20.0054 4.13657 19.9352 4.03335C19.8649 3.93012 19.7748 3.84197 19.67 3.77406C19.5634 3.70295 19.4441 3.65321 19.3185 3.62759C19.2547 3.61604 19.19 3.60977 19.1252 3.60884C19.0515 3.61077 18.9779 3.61703 18.9049 3.62759L17.8972 3.75414C17.2332 3.83225 16.5895 3.90295 15.9662 3.96622C15.9568 3.96705 15.9473 3.96544 15.9387 3.96154C15.93 3.95764 15.9226 3.95158 15.917 3.94396C15.5772 3.50807 15.2713 3.10265 14.9796 2.70192C14.3011 1.78093 13.9086 1.10132 14.4581 1.39074C14.981 1.72205 15.4618 2.11549 15.89 2.56248L16.2415 2.96556L17.8117 2.6902L18.8569 2.491C19.4195 2.4012 19.9947 2.53849 20.4562 2.87269C20.9176 3.20689 21.2274 3.71065 21.3175 4.27322L21.4499 5.33598L21.6456 6.94244L23.1103 7.62088L24.0793 8.07317C24.5882 8.33188 24.9734 8.78215 25.1503 9.32492C25.3272 9.86768 25.2812 10.4585 25.0225 10.9674L24.5128 11.9106ZM17.1156 8.67778C17.9133 9.3718 18.5299 10.2498 18.9119 11.2357C19.3806 12.3395 19.4861 13.4011 19.8938 13.3132C20.0649 13.2687 20.2055 13.0038 20.2934 12.5516C20.3197 12.2856 20.3244 12.018 20.3075 11.7513C20.2887 11.6001 20.2606 11.4396 20.2301 11.2744C20.2004 11.0985 20.1541 10.9259 20.0919 10.7588C19.7864 9.79268 19.2836 8.90052 18.6155 8.13878C18.3985 7.88076 18.1636 7.63838 17.9124 7.41348C17.1441 6.73545 16.2482 6.21758 15.2772 5.89022C15.1178 5.8328 14.9491 5.79882 14.7839 5.75195C14.6201 5.70444 14.4533 5.66764 14.2847 5.64181C13.2117 5.4501 12.1103 5.4887 11.0533 5.75507C9.9964 6.02144 9.00818 6.50948 8.15421 7.18683C7.30025 7.86417 6.60005 8.71534 6.10007 9.68388C5.60008 10.6524 5.31173 11.7162 5.25414 12.8047C5.12631 13.7751 5.19484 14.7613 5.45568 15.7047C5.72333 16.667 6.18112 17.5658 6.80201 18.3481C7.4324 19.1411 8.21318 19.8017 9.09953 20.2921C9.98588 20.7826 10.9604 21.0931 11.967 21.206C14.0061 21.4365 16.0552 20.8679 17.6839 19.6195C19.304 18.3708 20.3905 16.5544 20.7246 14.5365C20.7745 14.1619 20.7231 13.7807 20.5758 13.4327C20.3825 13.0929 20.1973 13.5405 20.0239 14.1357C19.6849 15.1677 19.1695 16.1331 18.5007 16.9889C18.1464 17.4287 17.7461 17.8294 17.3066 18.1841C16.8652 18.5464 16.3826 18.8556 15.8689 19.1051C15.2523 19.4084 14.5894 19.6064 13.9074 19.691C13.2316 19.7923 12.5434 19.7757 11.8733 19.6417C10.5361 19.3968 9.31063 18.7352 8.37213 17.7517C7.91119 17.2614 7.52861 16.703 7.23789 16.0961C7.09295 15.7959 6.96847 15.4862 6.86528 15.1692C6.77304 14.8479 6.70296 14.5206 6.65554 14.1896C6.46464 12.8515 6.68789 11.487 7.29531 10.2796C7.6344 9.70955 8.05435 9.19172 8.54204 8.74223C9.31507 8.03223 10.2511 7.52365 11.2675 7.26145C12.2838 6.99924 13.3491 6.99149 14.3691 7.23889L14.7476 7.33263L15.1143 7.46504C15.3583 7.55529 15.5969 7.65936 15.8291 7.77672C16.2923 8.02078 16.725 8.31893 17.118 8.6649L17.1156 8.67778ZM12.2764 17.979C12.448 17.9899 12.6202 17.9805 12.7896 17.9509C13.2255 17.8713 13.4165 17.7775 13.4657 17.6744C13.5644 17.5269 13.6373 17.3636 13.6813 17.1916C14.171 17.0751 14.607 16.7968 14.919 16.4017C15.2309 16.0066 15.4005 15.5179 15.4002 15.0145C15.4046 14.6251 15.2985 14.2424 15.0944 13.9108C14.8952 13.6 14.6269 13.3393 14.3105 13.1491C14.0398 12.9842 13.7487 12.8554 13.4446 12.766C13.3063 12.725 13.147 12.6863 13.031 12.6582C12.915 12.6301 12.8236 12.6113 12.7275 12.5832C12.5481 12.5341 12.3735 12.4686 12.2061 12.3875C12.0998 12.3087 12.0152 12.2043 11.96 12.084C11.9289 12.0099 11.9137 11.9301 11.9155 11.8497C11.9152 11.7559 11.9311 11.6628 11.9623 11.5743C12.0236 11.4008 12.1439 11.2544 12.3022 11.1607C12.4995 11.0463 12.7221 10.9827 12.9501 10.9756C13.1787 10.9707 13.4037 11.0322 13.5981 11.1525C13.715 11.2294 13.8425 11.289 13.9766 11.3294C14.1317 11.3775 14.2994 11.3645 14.4453 11.2931C14.526 11.2532 14.5944 11.1921 14.6431 11.1164C14.6918 11.0406 14.719 10.9531 14.7218 10.8631C14.7221 10.7366 14.6962 10.6115 14.6458 10.4956C14.5954 10.3796 14.5215 10.2753 14.4289 10.1893C14.2143 9.97356 13.9595 9.80198 13.6789 9.68431C13.6779 9.61905 13.6618 9.55491 13.6321 9.49683C13.6495 9.46452 13.6652 9.43127 13.6789 9.39723C13.7256 9.29474 13.7426 9.18119 13.7279 9.06952C13.7132 8.95786 13.6674 8.85257 13.5957 8.76566C13.5465 8.70473 13.3532 8.65552 12.97 8.66021C12.7483 8.63615 12.5241 8.67344 12.3221 8.76801C12.2403 8.86058 12.1898 8.97665 12.1779 9.09961C12.2009 9.24954 12.2426 9.39598 12.3022 9.5355C11.9569 9.59315 11.6295 9.72902 11.3448 9.93272C11.1522 10.0701 10.9812 10.2356 10.8375 10.4237C10.6983 10.6217 10.5912 10.8403 10.5199 11.0716C10.4561 11.2968 10.4253 11.5301 10.4285 11.7641C10.4333 12.0074 10.48 12.2481 10.5668 12.4754C10.6584 12.7038 10.791 12.9135 10.9582 13.0941C11.1142 13.2553 11.2916 13.3945 11.4854 13.5077C11.8302 13.7004 12.2025 13.8391 12.5892 13.919C12.7544 13.994 12.8658 14.0432 12.9864 14.1041C13.0982 14.1601 13.2069 14.2219 13.3122 14.2892C13.4817 14.3881 13.6292 14.5205 13.7457 14.6783C13.8143 14.7822 13.848 14.9054 13.8418 15.0298C13.8416 15.1058 13.8334 15.1816 13.8172 15.2559C13.7994 15.3233 13.7734 15.3882 13.7399 15.4493C13.6533 15.5846 13.5336 15.6957 13.3921 15.772C13.2506 15.8482 13.0921 15.8872 12.9314 15.8852C12.767 15.8981 12.6024 15.8647 12.4561 15.7887C12.3099 15.7127 12.1879 15.5971 12.1041 15.4551C12.0772 15.4106 11.9049 15.4001 11.7948 15.4059C11.7441 15.4083 11.6945 15.4207 11.6487 15.4425C11.6028 15.4642 11.5618 15.4948 11.5279 15.5325C11.494 15.5702 11.4679 15.6143 11.4512 15.6621C11.4344 15.71 11.4274 15.7607 11.4304 15.8113C11.4287 16.0314 11.4813 16.2486 11.5835 16.4435C11.6857 16.6385 11.8343 16.8053 12.0162 16.9292C12.1088 16.9951 12.2077 17.0516 12.3115 17.0979C11.8592 17.3744 12.124 17.6498 12.035 17.9251C12.1103 17.9527 12.1893 17.9693 12.2693 17.9744L12.2764 17.979Z" fill="#5E43A2"/>
</svg>
