<svg width="48" height="48" viewBox="0 0 48 48" fill="none" xmlns="http://www.w3.org/2000/svg">
<path d="M31.7351 8C25.5164 8 20.4766 9.80036 20.4766 12.0212C20.4766 14.2421 25.5176 16.0425 31.7351 16.0425C37.9526 16.0425 42.9936 14.2421 42.9936 12.0212C42.9936 9.80036 37.9538 8 31.7351 8Z" stroke="#C0C1CB" stroke-width="1.2" stroke-miterlimit="10"/>
<path d="M42.9999 12.0212V16.0425C42.9999 18.2621 37.9589 20.0637 31.7401 20.0637C30.545 20.0651 29.3509 19.9956 28.1641 19.8554" stroke="#C0C1CB" stroke-width="1.2" stroke-miterlimit="10" stroke-linecap="round"/>
<path d="M42.0536 17.6506C42.3211 17.8313 42.5445 18.0699 42.7071 18.3487C42.8698 18.6275 42.9676 18.9393 42.9932 19.2611V20.0651C42.9932 22.2848 37.9522 24.0864 31.7347 24.0864C31.2233 24.0864 30.7206 24.0745 30.2266 24.0506" stroke="#C0C1CB" stroke-width="1.2" stroke-miterlimit="10" stroke-linecap="round"/>
<path d="M42.0547 21.6719C42.3222 21.8526 42.5455 22.0912 42.7081 22.37C42.8708 22.6487 42.9686 22.9606 42.9944 23.2824V24.0863C42.9944 26.306 37.9533 28.1076 31.7358 28.1076C31.4423 28.1076 31.1521 28.1035 30.8652 28.0953" stroke="#C0C1CB" stroke-width="1.2" stroke-miterlimit="10" stroke-linecap="round"/>
<path d="M42.0486 25.6919C42.316 25.8726 42.5393 26.1112 42.702 26.39C42.8647 26.6688 42.9625 26.9806 42.9882 27.3024V28.1064C42.9882 30.326 37.9472 32.1276 31.7285 32.1276C31.2631 32.1276 30.8048 32.1178 30.3535 32.098" stroke="#C0C1CB" stroke-width="1.2" stroke-miterlimit="10" stroke-linecap="round"/>
<path d="M42.0515 29.7144C42.3189 29.8951 42.5423 30.1337 42.7049 30.4125C42.8676 30.6913 42.9654 31.0031 42.9911 31.3248V32.1288C42.9911 34.3485 37.9501 36.1501 31.7326 36.1501C30.586 36.1514 29.4402 36.088 28.3008 35.9602" stroke="#C0C1CB" stroke-width="1.2" stroke-miterlimit="10" stroke-linecap="round"/>
<path d="M20.4766 12.0212V14.4345" stroke="#C0C1CB" stroke-width="1.2" stroke-miterlimit="10" stroke-linecap="round"/>
<path d="M28.8198 27.8844C28.8198 30.8703 27.6336 33.734 25.5222 35.8454C23.4109 37.9568 20.5472 39.1429 17.5612 39.1429C14.5753 39.1429 11.7117 37.9568 9.60027 35.8454C7.48888 33.734 6.30273 30.8703 6.30273 27.8844C6.30273 24.8983 7.48884 22.0346 9.60019 19.923C11.7115 17.8114 14.5752 16.625 17.5612 16.6246C20.5473 16.625 23.411 17.8114 25.5223 19.923C27.6337 22.0346 28.8198 24.8983 28.8198 27.8844Z" fill="#666BB1" stroke="#C0C1CB" stroke-width="1.2" stroke-miterlimit="10"/>
<path d="M15.12 29.384V27.896H16.208C16.8373 27.896 17.344 27.7733 17.728 27.528C18.112 27.2827 18.3413 26.9093 18.416 26.408H15.12V25.496L16.272 25.416H18.384C18.2773 25.0107 18.0373 24.7227 17.664 24.552C17.2907 24.3813 16.8053 24.296 16.208 24.296H15.12V22.824H21.328V23.8H19.136C19.4133 23.9707 19.648 24.2 19.84 24.488C20.032 24.7653 20.16 25.0747 20.224 25.416H21.328V26.408H20.256C20.1813 27.1333 19.952 27.72 19.568 28.168C19.184 28.616 18.6933 28.936 18.096 29.128L20.96 33H18.864L16.32 29.384H15.12Z" fill="white"/>
</svg>
