<svg width="48" height="48" viewBox="0 0 48 48" fill="none" xmlns="http://www.w3.org/2000/svg">
<path d="M32.8772 14.7085C32.8772 14.4571 33.0413 20.9482 32.8772 20.7357C19.5772 19.4133 19.2227 9.14429 19.2227 9.14429C19.2227 9.14429 28.5343 4.24904 32.8772 14.7085Z" fill="#C0C1CB"/>
<path d="M30.017 20.8251V22.1823C30.0427 23.213 29.8119 24.234 29.3452 25.1535C28.8786 26.073 28.1909 26.8621 27.3438 27.4499" stroke="#C0C1CB" stroke-width="1.2" stroke-miterlimit="10"/>
<path d="M20.0021 15.4891C19.0603 15.871 18.2466 16.5128 17.6559 17.3397C17.0652 18.1666 16.7219 19.1445 16.666 20.1592V22.1581C16.6807 24.5062 18.4103 26.8523 21.1267 28.0611" stroke="#C0C1CB" stroke-width="1.2" stroke-miterlimit="10"/>
<path d="M26.0087 30.1662C26.0087 30.52 25.8681 30.8593 25.618 31.1095C25.3678 31.3597 25.0285 31.5002 24.6747 31.5002H24.0098C23.656 31.5002 23.3167 31.3597 23.0665 31.1095C22.8163 30.8593 22.6758 30.52 22.6758 30.1662C22.6756 29.9909 22.71 29.8174 22.777 29.6554C22.844 29.4934 22.9422 29.3462 23.0661 29.2223C23.19 29.0983 23.3371 28.9999 23.499 28.9328C23.661 28.8657 23.8345 28.8312 24.0098 28.8312H24.6768C25.0304 28.8317 25.3693 28.9727 25.6191 29.223C25.8688 29.4733 26.009 29.8126 26.0087 30.1662Z" fill="#666BB1" stroke="#666BB1" stroke-width="1.2" stroke-miterlimit="10"/>
<path d="M34.0146 18.1572H32.6816V24.1612H34.0146C34.3684 24.1612 34.7077 24.0207 34.9579 23.7705C35.208 23.5204 35.3486 23.181 35.3486 22.8273V19.4912C35.3486 19.1374 35.208 18.7981 34.9579 18.5479C34.7077 18.2978 34.3684 18.1572 34.0146 18.1572Z" fill="#666BB1" stroke="#666BB1" stroke-width="1.2" stroke-miterlimit="10"/>
<path d="M13.334 18.1572H14.668V24.1612H13.334C13.1588 24.1612 12.9853 24.1267 12.8235 24.0597C12.6617 23.9927 12.5146 23.8944 12.3907 23.7705C12.2668 23.6467 12.1686 23.4996 12.1015 23.3378C12.0345 23.1759 12 23.0024 12 22.8273V19.4912C12 19.316 12.0345 19.1425 12.1015 18.9807C12.1686 18.8188 12.2668 18.6718 12.3907 18.5479C12.5146 18.4241 12.6617 18.3258 12.8235 18.2587C12.9853 18.1917 13.1588 18.1572 13.334 18.1572Z" fill="#666BB1" stroke="#666BB1" stroke-width="1.2" stroke-miterlimit="10"/>
<path d="M19.3398 26.8292V32.1662" stroke="#C0C1CB" stroke-width="1.2" stroke-miterlimit="10"/>
<path d="M19.3387 31.5002L24.0088 36.1703L22.0099 38.1692L17.3398 33.4991L19.3387 31.5002Z" stroke="#C0C1CB" stroke-width="1.2" stroke-miterlimit="10"/>
<path d="M28.6818 31.5002L24.0117 36.1703L26.0106 38.1692L30.6807 33.4991L28.6818 31.5002Z" stroke="#C0C1CB" stroke-width="1.2" stroke-miterlimit="10"/>
<path d="M17.3391 33.5024L13.5517 34.3441C12.8768 34.4936 12.2521 34.8156 11.7388 35.2786C11.2255 35.7416 10.8409 36.3298 10.6228 36.9858L10 38.8395" stroke="#C0C1CB" stroke-width="1.2" stroke-miterlimit="10"/>
<path d="M30.6816 33.5024L34.469 34.3441C35.144 34.4936 35.7686 34.8156 36.2819 35.2786C36.7953 35.7416 37.1798 36.3298 37.3979 36.9858L38.0155 38.8384" stroke="#C0C1CB" stroke-width="1.2" stroke-miterlimit="10"/>
<path d="M32.6811 20.1582V16.3477C32.6811 12.4109 28.7297 8.15013 23.6746 8.15013C18.6195 8.15013 14.668 12.4109 14.668 16.3477V18.1572" stroke="#666BB1" stroke-width="1.2" stroke-miterlimit="10"/>
<path d="M25.3438 30.1652H26.0318C29.7045 30.1652 32.6702 27.613 32.6702 24.1233V19.509" stroke="#666BB1" stroke-width="1.2" stroke-miterlimit="10"/>
</svg>
