<svg xmlns="http://www.w3.org/2000/svg" xmlns:xlink="http://www.w3.org/1999/xlink" width="23.648" height="24.201" viewBox="0 0 23.648 24.201"><defs><clipPath id="a"><rect width="23.648" height="24.201" fill="none"/></clipPath></defs><g clip-path="url(#a)"><path d="M101.295,0c.512.322,1.062.574,1.6.848.7.357,1.409.7,2.1,1.067,2.584,1.372,5.212,2.658,7.81,4,.08.041.217.036.211.183a.706.706,0,0,0-.279.117q-2.083,1.071-4.163,2.145c-.015-.122-.13-.127-.207-.167-.837-.432-1.677-.858-2.516-1.288q-1.689-.866-3.377-1.736c-1.011-.52-2.018-1.048-3.034-1.559-.33-.166-.649-.352-.986-.506a14.913,14.913,0,0,1-1.574-.849c.65-.391,1.353-.68,2.011-1.052C99.636.786,100.443.484,101.153,0Z" transform="translate(-89.419)" fill="#827bd7"/><path d="M11.828,97.246a3.846,3.846,0,0,1-.747-.345c-1.024-.525-2.041-1.066-3.065-1.591-.992-.509-2-.987-2.984-1.512-1.062-.566-2.149-1.081-3.207-1.652-.508-.274-1.03-.524-1.547-.782a.406.406,0,0,1-.268-.425Q.021,85.22.018,79.5c0-.119-.058-.248.033-.36.079.033.161.06.237.1.78.4,1.558.813,2.339,1.215q1.905.98,3.814,1.953,1.436.734,2.874,1.464c.063.032.121.073.183.1l2.328,1.179q0,6.046,0,12.091" transform="translate(0 -73.045)" fill="#6965c2"/><path d="M153.57,97.333q0-6.046,0-12.091c.261-.14.52-.286.785-.421.949-.485,1.9-.964,2.85-1.449.23-.117.453-.249.679-.374l.086.014v2.711c.541-.658,1.046-1.264,1.538-1.879a.184.184,0,0,1,.253-.07c.292.116.588.219.878.339.153.063.215.041.213-.136-.007-.81-.007-1.621-.009-2.431l.054-.049q2.081-1.073,4.163-2.145a.707.707,0,0,1,.279-.117,6.969,6.969,0,0,1,.044,1.268q0,5.268.006,10.536a.352.352,0,0,1-.231.37q-2.413,1.216-4.815,2.451c-.848.434-1.684.892-2.54,1.308-.731.356-1.437.76-2.166,1.119-.693.342-1.379.7-2.068,1.046" transform="translate(-141.742 -73.132)" fill="#746dcc"/><path d="M16.754,54.779c-.226.125-.449.256-.679.374-.949.485-1.9.965-2.85,1.449-.264.135-.523.28-.785.421l-2.328-1.179c-.063-.032-.121-.073-.183-.1q-1.437-.733-2.874-1.464Q5.147,53.3,3.241,52.322c-.781-.4-1.559-.811-2.339-1.215-.076-.039-.158-.067-.237-.1.011-.124.127-.13.2-.169,1.186-.609,2.376-1.21,3.56-1.822a5.1,5.1,0,0,1,.73-.356c0,.056.041.079.084.1.805.425,1.6.876,2.42,1.267.738.351,1.445.759,2.18,1.115,1.258.61,2.487,1.279,3.731,1.92.888.457,1.783.9,2.667,1.368.18.095.4.143.514.347" transform="translate(-0.614 -44.913)" fill="#827bd7"/><path d="M70.612,36.945c-.11-.2-.333-.253-.514-.347-.884-.465-1.779-.91-2.667-1.368-1.243-.64-2.473-1.309-3.731-1.92-.735-.357-1.442-.764-2.18-1.115-.822-.391-1.614-.842-2.42-1.267-.043-.023-.083-.046-.084-.1A2.42,2.42,0,0,1,59.6,30.5c.673-.35,1.349-.694,2.026-1.037a.875.875,0,0,1,.3-.123,14.894,14.894,0,0,0,1.574.849c.337.154.656.34.986.506,1.016.511,2.023,1.039,3.034,1.559q1.688.869,3.377,1.736c.838.43,1.678.856,2.516,1.288.078.04.193.045.207.167l-.054.049c-.079.034-.16.064-.237.1q-1.241.631-2.48,1.265c-.055.028-.1.066-.157.1l-.086-.014" transform="translate(-54.472 -27.079)" fill="#00c355"/><path d="M210.7,110.709c.052-.033.1-.071.157-.1q1.239-.634,2.48-1.265c.077-.039.158-.069.237-.1,0,.811,0,1.621.009,2.431,0,.177-.06.2-.213.137-.29-.12-.586-.224-.878-.339a.184.184,0,0,0-.253.07c-.493.616-1,1.222-1.538,1.879Z" transform="translate(-194.469 -100.829)" fill="#00c355"/></g></svg>