<svg xmlns="http://www.w3.org/2000/svg" xmlns:xlink="http://www.w3.org/1999/xlink" width="25" height="24.998" viewBox="0 0 25 24.998"><defs><clipPath id="a"><rect width="21.973" height="20.998" fill="none"/></clipPath></defs><g transform="translate(3758 1154.998)"><g transform="translate(2574 21020)"><path d="M12.5,15C5.608,15,0,12.757,0,10S5.608,5,12.5,5c.166,0,.334,0,.5,0V15C12.833,15,12.665,15,12.5,15Z" transform="translate(-6332 -22165)" fill="#00fd98"/><path d="M13,15h0V5a23.931,23.931,0,0,1,8.5,1.527C23.758,7.467,25,8.7,25,10s-1.242,2.533-3.5,3.469A23.926,23.926,0,0,1,13,15Z" transform="translate(-6332 -22164.996)" fill="#00ff8d"/></g><g transform="translate(-3756.486 -1154.998)"><g clip-path="url(#a)"><path d="M191.722,0a.554.554,0,0,1,.572.333c.428.849.835,1.709,1.248,2.566.287.595.6,1.176.892,1.771.256.528.515,1.056.755,1.591a.5.5,0,0,0,.461.318c.448.045.893.123,1.339.188.529.078,1.058.152,1.586.237.6.1,1.2.168,1.792.275.385.07.783.1,1.175.153.223.03.447.057.67.092s.34.238.492.38v.473c-.533.588-1.109,1.133-1.687,1.677-.488.459-.948.947-1.426,1.418-.575.567-1.14,1.144-1.738,1.685a.665.665,0,0,0-.2.712c.124.658.223,1.321.337,1.982.13.757.266,1.513.4,2.27.114.667.209,1.338.34,2a.651.651,0,0,1-.271.756.613.613,0,0,1-.674.029c-.678-.355-1.35-.721-2.025-1.08-.589-.313-1.181-.621-1.771-.932q-1.129-.6-2.257-1.195V0" transform="translate(-180.731 0)" fill="#6767bc"/><path d="M10.992.044v17.7l-3.4,1.79c-.886.466-1.776.924-2.657,1.4a.606.606,0,0,1-.706-.022.7.7,0,0,1-.267-.721c.146-.84.284-1.681.436-2.519.109-.6.19-1.21.319-1.81.12-.556.184-1.124.274-1.687a3.192,3.192,0,0,1,.1-.475c.075-.231-.05-.335-.185-.445-.456-.37-.84-.815-1.262-1.22s-.853-.822-1.276-1.236Q1.3,9.759.236,8.713a.655.655,0,0,1,0-1.01.545.545,0,0,1,.285-.13c.594-.1,1.19-.178,1.785-.264S3.5,7.135,4.09,7.052c.64-.09,1.281-.174,1.921-.263q.6-.083,1.193-.174c.135-.02.192-.123.247-.236Q8.811,3.614,10.177.853c.073-.147.151-.291.223-.438a.6.6,0,0,1,.591-.371" transform="translate(0 -0.042)" fill="#807dd1"/></g></g></g></svg>