<svg width="48" height="48" viewBox="0 0 48 48" fill="none" xmlns="http://www.w3.org/2000/svg">
<path d="M16.4805 33.538H26.0288V25.8263H16.4805V33.538Z" stroke="#666BB1" stroke-linecap="round" stroke-linejoin="round"/>
<path d="M19.7852 28.0283H22.7227V26.1929H19.7852V28.0283Z" fill="#666BB1" stroke="#666BB1" stroke-width="0.5" stroke-miterlimit="10"/>
<path d="M26.7695 23.9979H33.0078V18.9597H26.7695V23.9979Z" stroke="#666BB1" stroke-linecap="round" stroke-linejoin="round"/>
<path d="M28.9297 20.3955H30.8488V19.199H28.9297V20.3955Z" fill="#666BB1" stroke="#666BB1" stroke-width="0.5" stroke-miterlimit="10"/>
<path d="M10.9299 11.2774C10.9299 11.7279 10.7963 12.1682 10.5461 12.5427C10.2958 12.9173 9.94014 13.2092 9.52399 13.3815C9.10784 13.5539 8.64992 13.599 8.20814 13.5111C7.76636 13.4233 7.36056 13.2064 7.04205 12.8878C6.72354 12.5693 6.50664 12.1635 6.41876 11.7218C6.33089 11.28 6.37599 10.8221 6.54836 10.4059C6.72074 9.98976 7.01264 9.63407 7.38717 9.38382C7.76169 9.13357 8.20201 9 8.65245 9C8.95153 9 9.24768 9.05891 9.52399 9.17336C9.8003 9.28781 10.0514 9.45557 10.2628 9.66705C10.4743 9.87853 10.6421 10.1296 10.7565 10.4059C10.871 10.6822 10.9299 10.9784 10.9299 11.2774Z" fill="#C0C1CB" stroke="#C0C1CB" stroke-width="1.2" stroke-miterlimit="10"/>
<path d="M39.8213 14.6831L36.5207 16.6222L36.5006 18.0368L32.1391 23.0597C32.0504 23.1616 31.9828 23.28 31.9399 23.4081C31.897 23.5362 31.8798 23.6715 31.8892 23.8062C31.8986 23.941 31.9345 24.0725 31.9948 24.1934C32.055 24.3143 32.1385 24.4222 32.2404 24.5108C32.3424 24.5994 32.4608 24.6671 32.5889 24.71C32.717 24.7528 32.8522 24.77 32.987 24.7606C33.1217 24.7512 33.2533 24.7154 33.3742 24.6551C33.4951 24.5948 33.6029 24.5113 33.6915 24.4094L36.4547 21.2266L36.3863 25.8817C36.3862 26.1419 36.4722 26.3948 36.6308 26.6009C36.7895 26.8071 37.0118 26.955 37.2633 27.0216C37.2531 27.08 37.248 27.1392 37.248 27.1985V37.1134L35.857 37.4423C35.5651 37.4426 35.2852 37.5587 35.0788 37.7651C34.8724 37.9715 34.7563 38.2513 34.756 38.5433C34.756 39.1515 35.2499 39.0549 35.857 39.0549H38.2358C38.2736 39.0549 38.3113 39.0549 38.3537 39.0549C38.6457 39.0549 38.9258 38.9389 39.1322 38.7324C39.3387 38.5259 39.4547 38.2459 39.4547 37.9539V27.2032C39.4539 27.1515 39.4496 27.0999 39.4417 27.0487C39.7148 26.9994 39.9616 26.8553 40.1389 26.6418C40.3161 26.4283 40.4124 26.1592 40.4107 25.8817L41.0001 15.8619C41.0001 15.5493 40.8759 15.2494 40.6549 15.0284C40.4338 14.8073 40.134 14.6831 39.8213 14.6831Z" fill="white" stroke="#C0C1CB" stroke-linecap="round" stroke-linejoin="round"/>
<path d="M40.6252 11.2774C40.6252 11.7279 40.4916 12.1682 40.2414 12.5427C39.9911 12.9173 39.6355 13.2092 39.2193 13.3815C38.8032 13.5539 38.3452 13.599 37.9035 13.5111C37.4617 13.4233 37.0559 13.2064 36.7374 12.8878C36.4189 12.5693 36.2019 12.1635 36.1141 11.7218C36.0262 11.28 36.0713 10.8221 36.2437 10.4059C36.416 9.98976 36.708 9.63407 37.0825 9.38382C37.457 9.13357 37.8973 9 38.3478 9C38.6468 9 38.943 9.05891 39.2193 9.17336C39.4956 9.28781 39.7467 9.45557 39.9582 9.66705C40.1696 9.87853 40.3374 10.1296 40.4518 10.4059C40.5663 10.6822 40.6252 10.9784 40.6252 11.2774Z" fill="#C0C1CB" stroke="#C0C1CB" stroke-width="1.2" stroke-miterlimit="10"/>
<path d="M17.0062 33.9068V23.2493H13.9531V24.4988H15.8628V35.0361H31.4878V33.9068H17.0062Z" fill="#666BB1" stroke="#666BB1"/>
<path d="M19.0777 35.5383C18.8012 35.5383 18.5309 35.6203 18.301 35.7739C18.0711 35.9276 17.8919 36.1459 17.7861 36.4014C17.6803 36.6568 17.6526 36.9379 17.7066 37.2091C17.7605 37.4803 17.8936 37.7294 18.0892 37.925C18.2847 38.1205 18.5338 38.2536 18.805 38.3076C19.0762 38.3615 19.3573 38.3338 19.6128 38.228C19.8682 38.1222 20.0866 37.943 20.2402 37.7131C20.3938 37.4832 20.4758 37.2129 20.4758 36.9364C20.4758 36.5656 20.3285 36.21 20.0663 35.9478C19.8041 35.6856 19.4485 35.5383 19.0777 35.5383ZM19.0777 37.3761C18.9907 37.3763 18.9056 37.3507 18.8331 37.3026C18.7607 37.2544 18.7041 37.1858 18.6707 37.1055C18.6372 37.0252 18.6283 36.9367 18.6452 36.8513C18.662 36.766 18.7038 36.6875 18.7652 36.6259C18.8267 36.5643 18.905 36.5223 18.9904 36.5052C19.0757 36.4882 19.1641 36.4968 19.2446 36.5301C19.325 36.5633 19.3937 36.6197 19.4421 36.692C19.4904 36.7643 19.5163 36.8494 19.5163 36.9364C19.5163 37.0528 19.4701 37.1645 19.3879 37.2469C19.3057 37.3293 19.1942 37.3758 19.0777 37.3761Z" fill="#363636" stroke="#666BB1"/>
<path d="M28.1688 35.5383C27.8922 35.5381 27.6218 35.6199 27.3917 35.7734C27.1617 35.9269 26.9823 36.1451 26.8763 36.4006C26.7703 36.656 26.7424 36.9371 26.7963 37.2084C26.8501 37.4797 26.9831 37.7289 27.1786 37.9246C27.3741 38.1202 27.6232 38.2535 27.8944 38.3075C28.1656 38.3615 28.4468 38.3339 28.7023 38.2281C28.9579 38.1224 29.1763 37.9432 29.33 37.7132C29.4836 37.4833 29.5656 37.213 29.5656 36.9364C29.5656 36.5658 29.4185 36.2104 29.1566 35.9482C28.8947 35.6861 28.5394 35.5386 28.1688 35.5383ZM28.1688 37.3761C28.0818 37.3763 27.9966 37.3507 27.9242 37.3026C27.8517 37.2544 27.7952 37.1858 27.7617 37.1055C27.7282 37.0252 27.7194 36.9367 27.7362 36.8513C27.753 36.766 27.7948 36.6875 27.8563 36.6259C27.9177 36.5643 27.9961 36.5223 28.0814 36.5052C28.1667 36.4882 28.2552 36.4968 28.3356 36.5301C28.416 36.5633 28.4847 36.6197 28.5331 36.692C28.5815 36.7643 28.6073 36.8494 28.6073 36.9364C28.6073 37.0528 28.5611 37.1645 28.4789 37.2469C28.3967 37.3293 28.2852 37.3758 28.1688 37.3761Z" fill="#363636" stroke="#666BB1"/>
<path d="M6 15.8618L6.5894 25.8816C6.58933 26.1588 6.68689 26.427 6.86496 26.6394C7.04302 26.8517 7.2902 26.9945 7.56309 27.0428C7.55518 27.0943 7.55084 27.1463 7.55013 27.1984V37.9585C7.54997 38.1031 7.57834 38.2463 7.63362 38.38C7.68889 38.5136 7.76999 38.6351 7.87226 38.7373C7.97452 38.8396 8.09596 38.9207 8.22961 38.976C8.36326 39.0313 8.5065 39.0596 8.65113 39.0595C8.68885 39.0595 8.72775 39.0595 8.76901 39.0595H11.1478C11.7561 39.0595 12.2488 39.1561 12.2488 38.5479C12.2485 38.256 12.1324 37.9761 11.926 37.7697C11.7196 37.5633 11.4397 37.4472 11.1478 37.4469L9.75684 37.118V27.2019C9.75653 27.1422 9.75141 27.0827 9.74152 27.0239C9.993 26.9573 10.2154 26.8094 10.374 26.6032C10.5327 26.397 10.6186 26.1441 10.6185 25.884L10.5525 21.223L13.3157 24.4058C13.404 24.5076 13.5115 24.591 13.632 24.6512C13.7525 24.7114 13.8838 24.7473 14.0182 24.7569C14.1526 24.7664 14.2876 24.7493 14.4154 24.7067C14.5433 24.6641 14.6614 24.5966 14.7632 24.5083C14.865 24.42 14.9484 24.3125 15.0086 24.192C15.0689 24.0714 15.1048 23.9402 15.1143 23.8058C15.1238 23.6714 15.1068 23.5364 15.0641 23.4086C15.0215 23.2807 14.9541 23.1625 14.8658 23.0608L10.5042 18.0379L10.4842 16.6233L7.18116 14.683C6.86852 14.683 6.56869 14.8072 6.34762 15.0283C6.12655 15.2493 6.00236 15.5492 6.00236 15.8618H6Z" fill="white" stroke="#C0C1CB" stroke-linecap="round" stroke-linejoin="round"/>
<path d="M26.0352 33.4802H30.2977V28.4456H26.0352V33.4802Z" stroke="#666BB1" stroke-linecap="round" stroke-linejoin="round"/>
<path d="M27.5117 29.8848H28.8237V28.6859H27.5117V29.8848Z" fill="#666BB1" stroke="#666BB1" stroke-width="0.5" stroke-miterlimit="10"/>
</svg>
