<svg width="22" height="24" viewBox="0 0 22 24" fill="none" xmlns="http://www.w3.org/2000/svg">
<path d="M4.25066 0.423273C4.07343 0.424166 3.9037 0.494968 3.77838 0.62029C3.65306 0.745612 3.58226 0.915325 3.58137 1.09255V1.79581H2.43533C1.82075 1.79909 1.23234 2.045 0.798181 2.48C0.364024 2.91501 0.119269 3.50389 0.117188 4.11848V20.9626C0.119269 21.5772 0.364024 22.1661 0.798181 22.6011C1.23234 23.0361 1.82075 23.282 2.43533 23.2853H19.2772C19.8918 23.282 20.4802 23.0361 20.9144 22.6011C21.3485 22.1661 21.5933 21.5772 21.5954 20.9626V4.12074C21.5933 3.50616 21.3485 2.91727 20.9144 2.48227C20.4802 2.04727 19.8918 1.80136 19.2772 1.79808H18.1357V1.09255C18.1357 0.913999 18.0648 0.742759 17.9385 0.616501C17.8123 0.490243 17.641 0.419312 17.4625 0.419312C17.2839 0.419312 17.1127 0.490243 16.9864 0.616501C16.8601 0.742759 16.7892 0.913999 16.7892 1.09255V1.79581H11.5278V1.09029C11.5207 0.916809 11.4468 0.752801 11.3215 0.632572C11.1962 0.512343 11.0293 0.445205 10.8557 0.445205C10.6821 0.445205 10.5152 0.512343 10.3899 0.632572C10.2646 0.752801 10.1907 0.916809 10.1836 1.09029V1.79581H4.92107V1.09029C4.92017 0.913061 4.84938 0.743344 4.72406 0.618022C4.59874 0.4927 4.42901 0.421902 4.25178 0.421009L4.25066 0.423273ZM2.43872 3.14117H3.58478V3.84669C3.58478 4.02435 3.65533 4.19472 3.78095 4.32034C3.90657 4.44597 4.07696 4.51654 4.25461 4.51654C4.43227 4.51654 4.60265 4.44597 4.72827 4.32034C4.85389 4.19472 4.92447 4.02435 4.92447 3.84669V3.14117H10.1813V3.84669C10.1813 4.0251 10.2522 4.1962 10.3784 4.32235C10.5045 4.4485 10.6756 4.51937 10.854 4.51937C11.0324 4.51937 11.2035 4.4485 11.3297 4.32235C11.4558 4.1962 11.5267 4.0251 11.5267 3.84669V3.14117H16.7881V3.84669C16.7881 4.02525 16.859 4.19649 16.9853 4.32275C17.1115 4.449 17.2828 4.51994 17.4613 4.51994C17.6399 4.51994 17.8111 4.449 17.9374 4.32275C18.0636 4.19649 18.1346 4.02525 18.1346 3.84669V3.14117H19.2761C19.4048 3.13932 19.5326 3.16341 19.6519 3.212C19.7711 3.26059 19.8793 3.33268 19.9701 3.42398C20.0609 3.51529 20.1323 3.62393 20.1802 3.74345C20.2281 3.86296 20.2515 3.99089 20.2489 4.11961V6.39812H1.46141V4.12074C1.45881 3.99202 1.48216 3.86409 1.53005 3.74458C1.57795 3.62507 1.64942 3.51642 1.7402 3.42511C1.83097 3.33381 1.93919 3.26172 2.05842 3.21313C2.17765 3.16454 2.30545 3.14045 2.43419 3.1423L2.43872 3.14117ZM1.46594 7.74347H20.2534V20.9626C20.256 21.0913 20.2327 21.2192 20.1847 21.3386C20.1368 21.4581 20.0653 21.5667 19.9746 21.6579C19.8838 21.7491 19.7755 21.8211 19.6563 21.8696C19.5371 21.918 19.4093 21.942 19.2806 21.94H2.43419C2.30551 21.942 2.17774 21.918 2.05851 21.8696C1.93928 21.8211 1.83105 21.7491 1.74026 21.6579C1.64946 21.5667 1.57798 21.4581 1.53007 21.3386C1.48216 21.2192 1.45881 21.0913 1.46141 20.9626L1.46594 7.74347ZM10.8653 9.01296C9.71255 9.01184 8.58532 9.35264 7.62626 9.99226C6.66719 10.6319 5.91937 11.5416 5.47739 12.6063C5.03541 13.671 4.91912 14.8428 5.14325 15.9736C5.36738 17.1044 5.92184 18.1433 6.73651 18.9589C7.55118 19.7745 8.58945 20.3302 9.71998 20.5557C10.8505 20.7811 12.0225 20.6662 13.0877 20.2255C14.1529 19.7847 15.0635 19.038 15.7042 18.0796C16.345 17.1213 16.6871 15.9945 16.6873 14.8417C16.684 13.2973 16.0691 11.8171 14.9772 10.725C13.8853 9.63285 12.4052 9.01768 10.8608 9.01409L10.8653 9.01296ZM10.8653 10.3595C11.7515 10.3597 12.6178 10.6227 13.3545 11.1151C14.0912 11.6076 14.6654 12.3075 15.0044 13.1263C15.3435 13.945 15.4321 14.8459 15.2592 15.7151C15.0862 16.5842 14.6595 17.3826 14.0328 18.0092C13.4062 18.6359 12.6079 19.0626 11.7387 19.2356C10.8696 19.4085 9.96865 19.3198 9.14988 18.9808C8.3311 18.6418 7.63123 18.0676 7.13875 17.3309C6.64627 16.5941 6.38329 15.7279 6.38307 14.8417C6.38143 14.2531 6.49611 13.6699 6.72051 13.1257C6.94491 12.5815 7.27461 12.087 7.69069 11.6706C8.10677 11.2542 8.60103 10.9241 9.14506 10.6993C9.68908 10.4745 10.2722 10.3594 10.8608 10.3606L10.8653 10.3595ZM10.5256 11.8475C10.437 11.8479 10.3493 11.8659 10.2676 11.9003C10.186 11.9348 10.1119 11.985 10.0497 12.0481C9.98754 12.1113 9.93843 12.1861 9.90523 12.2682C9.87204 12.3504 9.85542 12.4383 9.85631 12.527V15.4555C9.85542 15.5441 9.87204 15.6321 9.90523 15.7142C9.93843 15.7964 9.98754 15.8712 10.0497 15.9344C10.1119 15.9975 10.186 16.0477 10.2676 16.0822C10.3493 16.1166 10.437 16.1345 10.5256 16.135H12.5108C12.6892 16.135 12.8603 16.0641 12.9865 15.938C13.1126 15.8118 13.1835 15.6407 13.1835 15.4623C13.1835 15.2839 13.1126 15.1128 12.9865 14.9866C12.8603 14.8605 12.6892 14.7896 12.5108 14.7896H11.2005V12.5236C11.2014 12.4341 11.1845 12.3453 11.1507 12.2625C11.1168 12.1796 11.0668 12.1044 11.0035 12.0411C10.9403 11.9778 10.865 11.9278 10.7822 11.894C10.6993 11.8601 10.6106 11.8432 10.5211 11.8441L10.5256 11.8475Z" fill="#5E43A2"/>
</svg>
