<svg width="48" height="48" viewBox="0 0 48 48" fill="none" xmlns="http://www.w3.org/2000/svg">
<path d="M13.5237 15.6336C13.5237 15.6336 22.6143 14.039 24.9942 10.9053C25.251 11.0225 26.5019 14.6792 35.2713 15.6336C35.283 15.6183 35.2713 27.0606 35.2713 27.0606C35.2713 27.0606 37.7579 27.0243 24.9942 36.6612C24.7597 36.9519 17.0795 34.8206 13.5237 26.1462C13.5143 25.9234 13.5237 15.6336 13.5237 15.6336Z" fill="#666BB1" stroke="#C0C1CB"/>
<path d="M24.5094 5.00002C23.0029 7.1396 12.9474 11.5266 9 11.5266V27.0266C9 34.3129 23.6383 42.2863 24.5 42.516C25.3617 42.2816 40 33.7572 40 27.8426V11.5254C35.6938 11.5254 26.0159 7.1396 24.5094 5.00002Z" stroke="#49494A" stroke-width="1.2" stroke-miterlimit="10" stroke-linejoin="round"/>
<path d="M24.5094 5.00002C23.0029 7.1396 12.9474 11.5266 9 11.5266V27.0266C9 34.3129 23.6383 42.2863 24.5 42.516C25.3617 42.2816 40 33.7572 40 27.8426V11.5254C35.6938 11.5254 26.0159 7.1396 24.5094 5.00002Z" stroke="#C0C1CB" stroke-width="1.2" stroke-miterlimit="10" stroke-linejoin="round"/>
<path d="M19.5469 23.894L22.8506 27.1978L29.4582 19.7649" stroke="white" stroke-width="1.2" stroke-miterlimit="10"/>
</svg>
