<svg width="48" height="48" viewBox="0 0 48 48" fill="none" xmlns="http://www.w3.org/2000/svg">
<path d="M27.0396 25.7828L24.3721 24.3747L23.8437 24.0957L23.3152 24.3747L20.6478 25.7827L21.2191 22.732L21.326 22.1615L20.925 21.7417L18.6094 19.3177L21.6388 19.0356L22.3073 18.9734L22.5733 18.3569L23.8436 15.4121L25.114 18.3569L25.3799 18.9734L26.0485 19.0356L29.078 19.3177L26.7626 21.7418L26.3617 22.1615L26.4685 22.732L27.0396 25.7828Z" fill="white"/>
<path d="M23.8451 18.27L23.0823 20.0383L21.0459 20.2279L22.547 21.7993L22.1934 23.6875L23.8451 22.8156L25.4971 23.6877L25.1436 21.7993L26.6446 20.2279L24.6079 20.0383L23.8451 18.27ZM23.8451 12.5542L26.1549 17.9085L31.5144 18.4074L27.5826 22.5237L28.585 27.878L23.8451 25.3758L19.1052 27.878L20.1079 22.5237L16.1758 18.4074L21.5353 17.9085L23.8451 12.5542Z" fill="#C0C1CB"/>
<path d="M9.72134 28.1239C8.76712 26.0698 8.27425 23.8317 8.27736 21.5668C8.27736 17.4383 9.91743 13.4788 12.8368 10.5594C15.7561 7.64006 19.7156 6 23.8442 6C27.9719 6.00133 31.9301 7.64199 34.8484 10.5612C37.7666 13.4804 39.406 17.4391 39.406 21.5668C39.4092 23.8308 38.9168 26.068 37.9633 28.1214" stroke="#C0C1CB" stroke-width="1.2" stroke-miterlimit="10"/>
<path d="M14.0123 31.398V29.7628H5L9.09674 34.6784L5 39.5915H10.7357" stroke="#C0C1CB" stroke-width="1.2" stroke-miterlimit="10" stroke-linejoin="round"/>
<path d="M33.6758 31.398V29.7628H42.6881L38.5914 34.6784L42.6881 39.594H36.9524" stroke="#C0C1CB" stroke-width="1.2" stroke-miterlimit="10" stroke-linejoin="round"/>
<path d="M12.375 42.8706H35.3152V33.0382H12.375V42.8706Z" fill="#666BB1" stroke="#666BB1" stroke-width="1.2" stroke-miterlimit="10" stroke-linejoin="round"/>
</svg>
