<svg width="28" height="28" viewBox="0 0 28 28" fill="none" xmlns="http://www.w3.org/2000/svg">
<path d="M15.8807 17.1372C15.8807 17.245 15.8487 17.3503 15.7889 17.4399C15.729 17.5295 15.6439 17.5994 15.5443 17.6406C15.4448 17.6818 15.3352 17.6926 15.2296 17.6716C15.1239 17.6506 15.0268 17.5987 14.9506 17.5225C14.8744 17.4463 14.8225 17.3492 14.8015 17.2435C14.7805 17.1378 14.7912 17.0283 14.8325 16.9287C14.8737 16.8292 14.9436 16.7441 15.0332 16.6842C15.1227 16.6244 15.2281 16.5924 15.3358 16.5924C15.4803 16.5924 15.6189 16.6498 15.7211 16.752C15.8233 16.8542 15.8807 16.9927 15.8807 17.1372Z" fill="#666BB1"/>
<path d="M27.2602 16.5924H24.5372V7.33651H25.0821V10.603C25.0785 10.6767 25.09 10.7503 25.1157 10.8194C25.1415 10.8885 25.181 10.9517 25.2318 11.0051C25.2827 11.0585 25.3439 11.101 25.4117 11.13C25.4795 11.1591 25.5525 11.1741 25.6263 11.1741C25.7 11.1741 25.773 11.1591 25.8408 11.13C25.9086 11.101 25.9698 11.0585 26.0207 11.0051C26.0716 10.9517 26.1111 10.8885 26.1368 10.8194C26.1626 10.7503 26.174 10.6767 26.1705 10.603V6.79293C26.1749 6.72023 26.1639 6.64742 26.138 6.57931C26.1122 6.5112 26.0723 6.44934 26.0207 6.39784C25.9692 6.34633 25.9074 6.30636 25.8393 6.28054C25.7712 6.25473 25.6984 6.24367 25.6257 6.2481H24.5372V5.15969C24.5417 5.08699 24.5306 5.01418 24.5048 4.94607C24.479 4.87796 24.439 4.8161 24.3875 4.7646C24.336 4.71309 24.2741 4.67311 24.206 4.6473C24.1379 4.62149 24.0651 4.61043 23.9924 4.61486H21.8143C21.7416 4.61043 21.6688 4.62149 21.6007 4.6473C21.5326 4.67311 21.4707 4.71309 21.4192 4.7646C21.3677 4.8161 21.3277 4.87796 21.3019 4.94607C21.2761 5.01418 21.2651 5.08699 21.2695 5.15969V16.5924H20.1811V4.07002C20.185 3.85446 20.1455 3.64031 20.0648 3.44037C19.9841 3.24044 19.864 3.05881 19.7115 2.90636C19.5591 2.75391 19.3774 2.63375 19.1775 2.55307C18.9776 2.47239 18.7634 2.43284 18.5478 2.43678H17.9487C17.8281 1.96661 17.5536 1.55034 17.1689 1.25433C16.7843 0.958322 16.3116 0.799623 15.8262 0.803538C15.3427 0.807491 14.8736 0.969123 14.4903 1.2639C14.107 1.55867 13.8304 1.97048 13.7025 2.43678H12.9946C12.874 1.96661 12.5995 1.55034 12.2149 1.25433C11.8302 0.958322 11.3575 0.799623 10.8721 0.803538C10.3886 0.807491 9.91957 0.969123 9.53627 1.2639C9.15298 1.55867 8.87635 1.97048 8.7484 2.43678H8.04047C7.91992 1.96661 7.64543 1.55034 7.26076 1.25433C6.87609 0.958322 6.40338 0.799623 5.91802 0.803538C5.4345 0.807491 4.96548 0.969123 4.58218 1.2639C4.19888 1.55867 3.92226 1.97048 3.79431 2.43678H2.21543C1.99986 2.43284 1.7857 2.47239 1.58576 2.55307C1.38583 2.63375 1.20422 2.75391 1.05177 2.90636C0.899313 3.05881 0.779152 3.24044 0.698471 3.44037C0.617789 3.64031 0.578234 3.85446 0.582178 4.07002V25.8483C0.578234 26.0638 0.617789 26.278 0.698471 26.4779C0.779152 26.6779 0.899313 26.8595 1.05177 27.0119C1.20422 27.1644 1.38583 27.2845 1.58576 27.3652C1.7857 27.4459 1.99986 27.4855 2.21543 27.4815H18.5491C18.7647 27.4855 18.9788 27.4459 19.1788 27.3652C19.3787 27.2845 19.5603 27.1644 19.7128 27.0119C19.8652 26.8595 19.9854 26.6779 20.0661 26.4779C20.1467 26.278 20.1863 26.0638 20.1824 25.8483V20.9485H21.2708V24.7599C21.2708 24.8686 21.2708 24.9229 21.3251 24.9773L22.4135 27.1554C22.4627 27.2455 22.533 27.3222 22.6185 27.3791C22.7039 27.4359 22.8019 27.4711 22.904 27.4815C23.009 27.4827 23.112 27.4522 23.1995 27.394C23.2869 27.3358 23.3549 27.2527 23.3945 27.1554L24.4829 24.9773C24.5372 24.9229 24.5372 24.8686 24.5372 24.7599V20.9485C25.4228 20.8664 26.2467 20.4593 26.8499 19.8057C27.453 19.1521 27.7928 18.2983 27.8037 17.409V17.1372C27.8002 16.9938 27.7417 16.8573 27.6402 16.7559C27.5388 16.6544 27.4023 16.5959 27.2589 16.5924H27.2602ZM23.4488 5.70326V6.2481H22.3604V5.70326H23.4488ZM22.3604 7.33651H23.4488V16.5924H22.3604V7.33651ZM15.8275 1.89194C16.0164 1.89153 16.2019 1.94187 16.3647 2.03772C16.5275 2.13357 16.6615 2.27139 16.7528 2.43678H14.9021C14.9933 2.27158 15.1271 2.13388 15.2897 2.03805C15.4522 1.94221 15.6388 1.89176 15.8275 1.89194ZM10.9277 1.89194C11.1166 1.89153 11.3022 1.94187 11.465 2.03772C11.6277 2.13357 11.7618 2.27139 11.8531 2.43678H9.99986C10.0912 2.2712 10.2255 2.13326 10.3885 2.0374C10.5515 1.94154 10.7373 1.8913 10.9265 1.89194H10.9277ZM6.028 1.89194C6.21691 1.89153 6.40245 1.94187 6.56524 2.03772C6.72802 2.13357 6.86205 2.27139 6.95333 2.43678H5.10267C5.19385 2.27158 5.32769 2.13388 5.49023 2.03805C5.65277 1.94221 5.83931 1.89176 6.028 1.89194ZM19.0952 25.8483C19.0996 25.921 19.0886 25.9938 19.0628 26.0619C19.037 26.13 18.997 26.1919 18.9455 26.2434C18.894 26.2949 18.8321 26.3349 18.764 26.3607C18.6959 26.3865 18.6231 26.3975 18.5504 26.3931H2.21543C2.14273 26.3975 2.0699 26.3865 2.00179 26.3607C1.93367 26.3349 1.87184 26.2949 1.82033 26.2434C1.76883 26.1919 1.72883 26.13 1.70302 26.0619C1.67721 25.9938 1.66614 25.921 1.67057 25.8483V4.07002C1.66614 3.99732 1.67721 3.92451 1.70302 3.8564C1.72883 3.78829 1.76883 3.72643 1.82033 3.67493C1.87184 3.62342 1.93367 3.58344 2.00179 3.55763C2.0699 3.53182 2.14273 3.52076 2.21543 3.52519V17.409C2.21443 17.8741 2.30529 18.3348 2.48281 18.7647C2.66034 19.1946 2.92102 19.5852 3.24989 19.9141C3.57877 20.2429 3.96936 20.5036 4.39925 20.6812C4.82913 20.8587 5.28985 20.9495 5.75495 20.9485H19.0939L19.0952 25.8483ZM23.4514 20.9485V23.1266H22.3629V20.9485H23.4514ZM22.9065 25.7396L22.3617 24.6511V24.215H23.4501V24.6511L22.9065 25.7396ZM24.268 19.8601H8.3148C8.87665 19.2647 9.22174 18.4975 9.29449 17.6821H13.7594C13.9038 17.6817 14.0421 17.6242 14.1442 17.5221C14.2463 17.42 14.3039 17.2816 14.3042 17.1372C14.3086 17.0645 14.2976 16.9917 14.2717 16.9236C14.2459 16.8555 14.206 16.7936 14.1544 16.7421C14.1029 16.6906 14.0411 16.6506 13.973 16.6248C13.9049 16.599 13.8321 16.588 13.7594 16.5924H8.7484C8.67569 16.588 8.60286 16.599 8.53475 16.6248C8.46664 16.6506 8.40481 16.6906 8.3533 16.7421C8.3018 16.7936 8.2618 16.8555 8.23599 16.9236C8.21017 16.9917 8.19913 17.0645 8.20356 17.1372V17.409C8.20356 18.0588 7.94545 18.6819 7.48601 19.1413C7.02658 19.6008 6.40344 19.8589 5.75369 19.8589C5.10395 19.8589 4.48081 19.6008 4.02137 19.1413C3.56194 18.6819 3.30383 18.0588 3.30383 17.409V3.52645H6.95208C6.8608 3.69184 6.72675 3.82966 6.56396 3.92551C6.40118 4.02136 6.21565 4.0717 6.02675 4.07129C5.88695 4.07802 5.75511 4.1383 5.65856 4.23962C5.56201 4.34094 5.50815 4.47554 5.50815 4.61549C5.50815 4.75545 5.56201 4.89004 5.65856 4.99136C5.75511 5.09268 5.88695 5.15295 6.02675 5.15969C6.51027 5.15574 6.97929 4.99411 7.36258 4.69933C7.74588 4.40456 8.02251 3.99275 8.15046 3.52645H11.9074C11.8161 3.69184 11.6821 3.82966 11.5193 3.92551C11.3565 4.02136 11.171 4.0717 10.9821 4.07129C10.9084 4.06773 10.8348 4.07918 10.7657 4.10493C10.6966 4.13067 10.6334 4.17018 10.58 4.22106C10.5266 4.27195 10.4841 4.33314 10.455 4.40094C10.426 4.46874 10.411 4.54174 10.411 4.61549C10.411 4.68925 10.426 4.76224 10.455 4.83003C10.4841 4.89783 10.5266 4.95903 10.58 5.00991C10.6334 5.0608 10.6966 5.10031 10.7657 5.12605C10.8348 5.1518 10.9084 5.16324 10.9821 5.15969C11.4656 5.15574 11.9346 4.99411 12.3179 4.69933C12.7012 4.40456 12.9779 3.99275 13.1058 3.52645H16.8628C16.7715 3.69184 16.6375 3.82966 16.4747 3.92551C16.3119 4.02136 16.1263 4.0717 15.9374 4.07129C15.8638 4.06773 15.7901 4.07918 15.721 4.10493C15.6519 4.13067 15.5887 4.17018 15.5353 4.22106C15.4819 4.27195 15.4394 4.33314 15.4104 4.40094C15.3813 4.46874 15.3664 4.54174 15.3664 4.61549C15.3664 4.68925 15.3813 4.76224 15.4104 4.83003C15.4394 4.89783 15.4819 4.95903 15.5353 5.00991C15.5887 5.0608 15.6519 5.10031 15.721 5.12605C15.7901 5.1518 15.8638 5.16324 15.9374 5.15969C16.421 5.15574 16.89 4.99411 17.2733 4.69933C17.6566 4.40456 17.9332 3.99275 18.0612 3.52645H18.5516C18.6243 3.52202 18.6971 3.53308 18.7653 3.55889C18.8334 3.58471 18.8952 3.62469 18.9467 3.67619C18.9982 3.72769 19.0382 3.78955 19.064 3.85766C19.0898 3.92577 19.1009 3.99858 19.0965 4.07129V16.5924H16.9728C16.8284 16.5927 16.69 16.6502 16.5879 16.7523C16.4858 16.8544 16.4283 16.9928 16.4279 17.1372C16.4374 17.2786 16.4978 17.4118 16.598 17.5119C16.6982 17.6121 16.8314 17.6726 16.9728 17.6821H26.7178C26.6464 18.2819 26.3577 18.8347 25.9063 19.2361C25.4549 19.6374 24.872 19.8594 24.268 19.8601Z" fill="#5E43A2"/>
<path d="M4.93657 8.96974H8.74789C8.88769 8.96301 9.01953 8.90273 9.11608 8.80141C9.21263 8.70009 9.26649 8.5655 9.26649 8.42555C9.26649 8.28559 9.21263 8.151 9.11608 8.04968C9.01953 7.94836 8.88769 7.88809 8.74789 7.88135H4.93657C4.79678 7.88809 4.66494 7.94836 4.56838 8.04968C4.47183 8.151 4.41797 8.28559 4.41797 8.42555C4.41797 8.5655 4.47183 8.70009 4.56838 8.80141C4.66494 8.90273 4.79678 8.96301 4.93657 8.96974Z" fill="#6342A8"/>
<path d="M14.194 10.0595H4.93813C4.86446 10.0559 4.79083 10.0674 4.72171 10.0931C4.65259 10.1189 4.58943 10.1584 4.53604 10.2092C4.48264 10.2601 4.44013 10.3213 4.41108 10.3891C4.38204 10.4569 4.36707 10.5299 4.36707 10.6037C4.36707 10.6774 4.38204 10.7504 4.41108 10.8182C4.44013 10.886 4.48264 10.9472 4.53604 10.9981C4.58943 11.049 4.65259 11.0885 4.72171 11.1142C4.79083 11.14 4.86446 11.1514 4.93813 11.1479H14.194C14.2677 11.1514 14.3413 11.14 14.4104 11.1142C14.4795 11.0885 14.5427 11.049 14.5961 10.9981C14.6495 10.9472 14.692 10.886 14.7211 10.8182C14.7501 10.7504 14.7651 10.6774 14.7651 10.6037C14.7651 10.5299 14.7501 10.4569 14.7211 10.3891C14.692 10.3213 14.6495 10.2601 14.5961 10.2092C14.5427 10.1584 14.4795 10.1189 14.4104 10.0931C14.3413 10.0674 14.2677 10.0559 14.194 10.0595Z" fill="#6342A8"/>
<path d="M14.1925 12.2374H4.93657C4.79678 12.2442 4.66494 12.3045 4.56838 12.4058C4.47183 12.5071 4.41797 12.6417 4.41797 12.7816C4.41797 12.9216 4.47183 13.0562 4.56838 13.1575C4.66494 13.2588 4.79678 13.3191 4.93657 13.3258H14.1925C14.2661 13.3294 14.3397 13.318 14.4089 13.2922C14.478 13.2665 14.5412 13.227 14.5946 13.1761C14.648 13.1252 14.6905 13.064 14.7195 12.9962C14.7486 12.9284 14.7635 12.8554 14.7635 12.7816C14.7635 12.7079 14.7486 12.6349 14.7195 12.5671C14.6905 12.4993 14.648 12.4381 14.5946 12.3872C14.5412 12.3363 14.478 12.2968 14.4089 12.2711C14.3397 12.2453 14.2661 12.2339 14.1925 12.2374Z" fill="#6342A8"/>
</svg>
